<?xml version="1.0" standalone="no"?><!DOCTYPE svg PUBLIC "-//W3C//DTD SVG 1.1//EN" "http://www.w3.org/Graphics/SVG/1.1/DTD/svg11.dtd" ><svg version="1.1" xmlns="http://www.w3.org/2000/svg"><defs><font horiz-adv-x="0" id="font"><font-face ascent="800" bbox="-176 -248 1383 1050" cap-height="780" descent="-200" font-family="Galaxie Polaris Condensed Heavy Italic" font-stretch="normal" font-style="normal" font-weight="600" units-per-em="1000" x-height="530" /><missing-glyph d="M800 115V665L525 390ZM160 665V115L435 390ZM480 435 759 714H201ZM201 66H759L480 345ZM90 780H870V0H90Z" horiz-adv-x="961" /><glyph d="M216 271H297L300 625ZM455 786 477 0H295V125H182L153 0H-29L184 786Z" glyph-name="A" horiz-adv-x="528" unicode="A" /><glyph d="M233 271H318L342 615ZM754 780 735 620H502L497 478H674L655 319H491L484 160H689L670 0H300L308 125H187L148 0H-34L252 780Z" glyph-name="AE" horiz-adv-x="740" unicode="&#198;" /><glyph d="M501 1030 414 822H235L305 1030ZM216 271H297L300 625ZM455 786 477 0H295V125H182L153 0H-29L184 786Z" glyph-name="Aacute" horiz-adv-x="528" unicode="&#193;" /><glyph d="M322 806Q270 806 238 821Q206 836 190 864.5Q174 893 171.5 934.5Q169 976 177 1030H307Q302 996 309.5 977Q317 958 341 958Q365 958 377 977Q389 996 393 1030H523Q517 976 504 934.5Q491 893 468 864.5Q445 836 409.5 821Q374 806 322 806ZM216 271H297L300 625ZM455 786 477 0H295V125H182L153 0H-29L184 786Z" glyph-name="Abreve" horiz-adv-x="528" unicode="&#258;" /><glyph d="M138 822 252 1030H448L510 822H367L335 906L281 822ZM216 271H297L300 625ZM455 786 477 0H295V125H182L153 0H-29L184 786Z" glyph-name="Acircumflex" horiz-adv-x="528" unicode="&#194;" /><glyph d="M535 833H356L378 1010H557ZM296 833H117L139 1010H318ZM216 271H297L300 625ZM455 786 477 0H295V125H182L153 0H-29L184 786Z" glyph-name="Adieresis" horiz-adv-x="528" unicode="&#196;" /><glyph d="M395 1030 413 822H234L199 1030ZM216 271H297L300 625ZM455 786 477 0H295V125H182L153 0H-29L184 786Z" glyph-name="Agrave" horiz-adv-x="528" unicode="&#192;" /><glyph d="M222 1010H474L453 846H201ZM216 271H297L300 625ZM455 786 477 0H295V125H182L153 0H-29L184 786Z" glyph-name="Amacron" horiz-adv-x="528" unicode="&#256;" /><glyph d="M216 271H300V625ZM455 786 477 0Q453 -2 432.5 -9.5Q412 -17 397 -27Q382 -37 374 -49Q366 -61 366 -71Q366 -79 370 -87Q374 -95 391 -95Q411 -95 427.5 -86.5Q444 -78 444 -77L464 -191Q447 -201 418.5 -208.5Q390 -216 356 -216Q299 -216 266 -191.5Q233 -167 233 -109Q233 -74 250 -45Q267 -16 295 7V125H182L153 0H-29L184 786Z" glyph-name="Aogonek" horiz-adv-x="528" unicode="&#260;" /><glyph d="M365 926Q369 954 341 954Q313 954 309 926Q306 898 334 898Q362 898 365 926ZM217 926Q224 979 259.5 1012.5Q295 1046 352 1046Q409 1046 436.5 1012.5Q464 979 457 926Q451 873 415 839.5Q379 806 322 806Q265 806 238 839.5Q211 873 217 926ZM216 271H297L300 625ZM455 786 477 0H295V125H182L153 0H-29L184 786Z" glyph-name="Aring" horiz-adv-x="528" unicode="&#197;" /><glyph d="M563 1002Q555 960 542.5 924.5Q530 889 511 862.5Q492 836 466.5 821Q441 806 407 806Q375 806 354.5 817.5Q334 829 319 843.5Q304 858 292.5 869.5Q281 881 267 881Q255 881 248.5 873.5Q242 866 239 858Q235 847 234 835L112 850Q119 892 131.5 927.5Q144 963 163 989.5Q182 1016 207.5 1031Q233 1046 267 1046Q299 1046 319.5 1034.5Q340 1023 355 1008.5Q370 994 382 982.5Q394 971 408 971Q419 971 426 978Q433 985 436 994Q440 1004 440 1017ZM216 271H297L300 625ZM455 786 477 0H295V125H182L153 0H-29L184 786Z" glyph-name="Atilde" horiz-adv-x="528" unicode="&#195;" /><glyph d="M268 620 250 478H311Q322 478 333 482Q344 486 352.5 497Q361 508 366 526Q371 544 371 573Q371 602 360 611Q349 620 329 620ZM283 160Q298 160 311.5 164Q325 168 335 179Q345 190 351 209Q357 228 357 259Q357 294 343 306.5Q329 319 307 319H231L211 160ZM12 0 107 780H391Q424 780 454 773.5Q484 767 507 749.5Q530 732 543.5 700.5Q557 669 557 619Q557 572 550 537Q543 502 531 477Q519 452 502.5 436Q486 420 467 411Q541 393 541 282Q541 225 528.5 174Q516 123 488 84.5Q460 46 414 23Q368 0 302 0Z" glyph-name="B" horiz-adv-x="576" unicode="B" /><glyph d="M331 636Q311 636 294.5 617.5Q278 599 265.5 568.5Q253 538 243.5 498Q234 458 228 416Q222 374 219 333Q216 292 216 258Q216 201 228.5 172.5Q241 144 270 144Q291 144 305.5 149Q320 154 331 168.5Q342 183 349 208Q356 233 362 272L530 213Q519 152 500.5 109Q482 66 450 39Q418 12 370.5 0Q323 -12 256 -12Q203 -12 162.5 1Q122 14 93.5 45Q65 76 50.5 127Q36 178 36 255Q36 310 40.5 371.5Q45 433 57.5 493Q70 553 92 607Q114 661 149.5 702Q185 743 235.5 767.5Q286 792 355 792Q416 792 459.5 781Q503 770 530 744.5Q557 719 567.5 676Q578 633 574 570L391 508Q393 527 394 549.5Q395 572 390.5 591Q386 610 372.5 623Q359 636 331 636Z" glyph-name="C" horiz-adv-x="576" unicode="C" /><glyph d="M331 636Q311 636 294.5 617.5Q278 599 265.5 568.5Q253 538 243.5 498Q234 458 228 416Q222 374 219 333Q216 292 216 258Q216 201 228.5 172.5Q241 144 270 144Q291 144 305.5 149Q320 154 331 168.5Q342 183 349 208Q356 233 362 272L530 213Q519 152 500.5 109Q482 66 450 39Q418 12 370.5 0Q323 -12 256 -12Q203 -12 162.5 1Q122 14 93.5 45Q65 76 50.5 127Q36 178 36 255Q36 310 40.5 371.5Q45 433 57.5 493Q70 553 92 607Q114 661 149.5 702Q185 743 235.5 767.5Q286 792 355 792Q416 792 459.5 781Q503 770 530 744.5Q557 719 567.5 676Q578 633 574 570L391 508Q393 527 394 549.5Q395 572 390.5 591Q386 610 372.5 623Q359 636 331 636ZM527 1030 440 822H261L331 1030Z" glyph-name="Cacute" horiz-adv-x="576" unicode="&#262;" /><glyph d="M331 636Q311 636 294.5 617.5Q278 599 265.5 568.5Q253 538 243.5 498Q234 458 228 416Q222 374 219 333Q216 292 216 258Q216 201 228.5 172.5Q241 144 270 144Q291 144 305.5 149Q320 154 331 168.5Q342 183 349 208Q356 233 362 272L530 213Q519 152 500.5 109Q482 66 450 39Q418 12 370.5 0Q323 -12 256 -12Q203 -12 162.5 1Q122 14 93.5 45Q65 76 50.5 127Q36 178 36 255Q36 310 40.5 371.5Q45 433 57.5 493Q70 553 92 607Q114 661 149.5 702Q185 743 235.5 767.5Q286 792 355 792Q416 792 459.5 781Q503 770 530 744.5Q557 719 567.5 676Q578 633 574 570L391 508Q393 527 394 549.5Q395 572 390.5 591Q386 610 372.5 623Q359 636 331 636ZM567 1030 453 822H257L195 1030H338L371 946L424 1030Z" glyph-name="Ccaron" horiz-adv-x="576" unicode="&#268;" /><glyph d="M331 636Q311 636 294.5 617.5Q278 599 265.5 568.5Q253 538 243.5 498Q234 458 228 416Q222 374 219 333Q216 292 216 258Q216 201 228.5 172.5Q241 144 270 144Q291 144 305.5 149Q320 154 331 168.5Q342 183 349 208Q356 233 362 272L530 213Q520 157 503.5 116Q487 75 459.5 48Q432 21 392 7Q352 -7 297 -11L288 -33Q313 -38 332.5 -46.5Q352 -55 364.5 -67Q377 -79 381.5 -95Q386 -111 381 -132Q376 -154 362.5 -170Q349 -186 329.5 -196Q310 -206 286.5 -211Q263 -216 238 -216Q185 -216 154 -207Q123 -198 112 -193L146 -117Q153 -120 161 -124Q168 -127 176 -129.5Q184 -132 194 -134Q214 -137 228.5 -133Q243 -129 245 -113Q247 -99 227 -89Q207 -79 171 -75L202 -8Q162 -2 131 14.5Q100 31 79 62.5Q58 94 47 141.5Q36 189 36 255Q36 310 40.5 371.5Q45 433 57.5 493Q70 553 92 607Q114 661 149.5 702Q185 743 235.5 767.5Q286 792 355 792Q416 792 459.5 781Q503 770 530 744.5Q557 719 567.5 676Q578 633 574 570L391 508Q393 527 394 549.5Q395 572 390.5 591Q386 610 372.5 623Q359 636 331 636Z" glyph-name="Ccedilla" horiz-adv-x="576" unicode="&#199;" /><glyph d="M331 636Q311 636 294.5 617.5Q278 599 265.5 568.5Q253 538 243.5 498Q234 458 228 416Q222 374 219 333Q216 292 216 258Q216 201 228.5 172.5Q241 144 270 144Q291 144 305.5 149Q320 154 331 168.5Q342 183 349 208Q356 233 362 272L530 213Q519 152 500.5 109Q482 66 450 39Q418 12 370.5 0Q323 -12 256 -12Q203 -12 162.5 1Q122 14 93.5 45Q65 76 50.5 127Q36 178 36 255Q36 310 40.5 371.5Q45 433 57.5 493Q70 553 92 607Q114 661 149.5 702Q185 743 235.5 767.5Q286 792 355 792Q416 792 459.5 781Q503 770 530 744.5Q557 719 567.5 676Q578 633 574 570L391 508Q393 527 394 549.5Q395 572 390.5 591Q386 610 372.5 623Q359 636 331 636ZM169 822 283 1030H479L541 822H398L366 906L312 822Z" glyph-name="Ccircumflex" horiz-adv-x="576" unicode="&#264;" /><glyph d="M331 636Q311 636 294.5 617.5Q278 599 265.5 568.5Q253 538 243.5 498Q234 458 228 416Q222 374 219 333Q216 292 216 258Q216 201 228.5 172.5Q241 144 270 144Q291 144 305.5 149Q320 154 331 168.5Q342 183 349 208Q356 233 362 272L530 213Q519 152 500.5 109Q482 66 450 39Q418 12 370.5 0Q323 -12 256 -12Q203 -12 162.5 1Q122 14 93.5 45Q65 76 50.5 127Q36 178 36 255Q36 310 40.5 371.5Q45 433 57.5 493Q70 553 92 607Q114 661 149.5 702Q185 743 235.5 767.5Q286 792 355 792Q416 792 459.5 781Q503 770 530 744.5Q557 719 567.5 676Q578 633 574 570L391 508Q393 527 394 549.5Q395 572 390.5 591Q386 610 372.5 623Q359 636 331 636ZM448 828H264L287 1010H471Z" glyph-name="Cdotaccent" horiz-adv-x="576" unicode="&#266;" /><glyph d="M261 160Q307 160 335 194.5Q363 229 378.5 281Q394 333 399.5 395Q405 457 405 512Q405 564 386.5 592Q368 620 318 620H268L211 160ZM12 0 107 780H336Q402 780 449 766.5Q496 753 526 722Q556 691 570.5 642Q585 593 585 523Q585 403 567.5 306.5Q550 210 509.5 141.5Q469 73 403 36.5Q337 0 241 0Z" glyph-name="D" horiz-adv-x="605" unicode="D" /><glyph d="M261 160Q307 160 335 194.5Q363 229 378.5 281Q394 333 399.5 395Q405 457 405 512Q405 564 386.5 592Q368 620 318 620H268L211 160ZM12 0 107 780H336Q402 780 449 766.5Q496 753 526 722Q556 691 570.5 642Q585 593 585 523Q585 403 567.5 306.5Q550 210 509.5 141.5Q469 73 403 36.5Q337 0 241 0ZM552 1030 438 822H242L180 1030H323L356 946L409 1030Z" glyph-name="Dcaron" horiz-adv-x="605" unicode="&#270;" /><glyph d="M301 160Q347 160 375 194.5Q403 229 418.5 281Q434 333 439.5 395Q445 457 445 512Q445 564 426.5 592Q408 620 358 620H308L290 478H383L364 319H270L251 160ZM52 0 91 319H30L49 478H110L147 780H376Q442 780 489 766.5Q536 753 566 722Q596 691 610.5 642Q625 593 625 523Q625 403 607.5 306.5Q590 210 549.5 141.5Q509 73 443 36.5Q377 0 281 0Z" glyph-name="Dcroat" horiz-adv-x="645" unicode="&#272;" /><glyph d="M286 163H594L440 486ZM60 78 394 774H486L820 78V0H60Z" glyph-name="Delta" horiz-adv-x="880" unicode="&#8710;" /><glyph d="M513 780 494 620H267L249 478H433L414 319H230L210 160H448L429 0H12L107 780Z" glyph-name="E" horiz-adv-x="500" unicode="E" /><glyph d="M492 1030 405 822H226L296 1030ZM513 780 494 620H267L249 478H433L414 319H230L210 160H448L429 0H12L107 780Z" glyph-name="Eacute" horiz-adv-x="499" unicode="&#201;" /><glyph d="M318 806Q266 806 234 821Q202 836 186 864.5Q170 893 167.5 934.5Q165 976 173 1030H303Q298 996 305.5 977Q313 958 337 958Q361 958 373 977Q385 996 389 1030H519Q513 976 500 934.5Q487 893 464 864.5Q441 836 405.5 821Q370 806 318 806ZM513 780 494 620H267L249 478H433L414 319H230L210 160H448L429 0H12L107 780Z" glyph-name="Ebreve" horiz-adv-x="499" unicode="&#276;" /><glyph d="M532 1030 418 822H222L160 1030H303L336 946L389 1030ZM513 780 494 620H267L249 478H433L414 319H230L210 160H448L429 0H12L107 780Z" glyph-name="Ecaron" horiz-adv-x="499" unicode="&#282;" /><glyph d="M134 822 248 1030H444L506 822H363L331 906L277 822ZM513 780 494 620H267L249 478H433L414 319H230L210 160H448L429 0H12L107 780Z" glyph-name="Ecircumflex" horiz-adv-x="499" unicode="&#202;" /><glyph d="M531 833H352L374 1010H553ZM292 833H113L135 1010H314ZM513 780 494 620H267L249 478H433L414 319H230L210 160H448L429 0H12L107 780Z" glyph-name="Edieresis" horiz-adv-x="500" unicode="&#203;" /><glyph d="M413 828H229L252 1010H436ZM513 780 494 620H267L249 478H433L414 319H230L210 160H448L429 0H12L107 780Z" glyph-name="Edotaccent" horiz-adv-x="499" unicode="&#278;" /><glyph d="M396 1030 414 822H235L200 1030ZM513 780 494 620H267L249 478H433L414 319H230L210 160H448L429 0H12L107 780Z" glyph-name="Egrave" horiz-adv-x="499" unicode="&#200;" /><glyph d="M218 1010H470L449 846H197ZM513 780 494 620H267L249 478H433L414 319H230L210 160H448L429 0H12L107 780Z" glyph-name="Emacron" horiz-adv-x="499" unicode="&#274;" /><glyph d="M350 554 389 364 407 514 439 780H606L511 0H510L505 -45Q494 -128 446 -172Q398 -216 304 -216Q262 -216 242 -212Q222 -208 209 -203L234 -59Q255 -67 271 -67Q296 -67 308.5 -57.5Q321 -48 324 -25L267 226L229 416L211 266L181 0H12L107 780H301Z" glyph-name="Eng" horiz-adv-x="603" unicode="&#330;" /><glyph d="M513 780 494 620H267L249 478H433L414 319H230L210 160H448L429 0Q404 -2 383.5 -9.5Q363 -17 348 -27.5Q333 -38 325 -50Q317 -62 318 -73Q318 -82 325.5 -90Q333 -98 358 -93Q375 -90 385 -84Q391 -81 396 -77L416 -191Q399 -201 370.5 -208.5Q342 -216 308 -216Q254 -216 223 -195Q192 -174 186 -125Q181 -87 196.5 -56Q212 -25 239 0H12L107 780Z" glyph-name="Eogonek" horiz-adv-x="499" unicode="&#280;" /><glyph d="M301 160Q347 160 375 194.5Q403 229 418.5 281Q434 333 439.5 395Q445 457 445 512Q445 564 426.5 592Q408 620 358 620H308L290 478H383L364 319H270L251 160ZM52 0 91 319H30L49 478H110L147 780H376Q442 780 489 766.5Q536 753 566 722Q596 691 610.5 642Q625 593 625 523Q625 403 607.5 306.5Q590 210 549.5 141.5Q509 73 443 36.5Q377 0 281 0Z" glyph-name="Eth" horiz-adv-x="645" unicode="&#208;" /><glyph d="M348 251H240Q236 191 245 167Q254 143 280 143Q293 143 303 146Q313 149 320.5 157Q328 165 333.5 178.5Q339 192 342 214L510 155Q502 111 486.5 79.5Q471 48 443 28Q415 8 373 -2Q331 -12 270 -12Q209 -12 168 2Q127 16 103 47Q79 78 70 128Q61 178 64 251H7L21 362H73L78 402H26L39 513H97Q112 585 133 635.5Q154 686 185.5 717Q217 748 261.5 762Q306 776 367 776Q427 776 466.5 766.5Q506 757 529 737Q552 717 560 686Q568 655 566 612L383 550Q387 594 376 607.5Q365 621 339 621Q313 621 298 597Q283 573 272 513H451L408 402H256L251 362H392Z" glyph-name="Euro" horiz-adv-x="550" unicode="&#8364;" /><glyph d="M191 0H12L107 780H507L488 620H267L249 478H436L417 319H230Z" glyph-name="F" horiz-adv-x="477" unicode="F" /><glyph d="M34 246Q34 358 49 457.5Q64 557 101.5 631.5Q139 706 202 749Q265 792 361 792Q423 792 467.5 781.5Q512 771 539 745.5Q566 720 577 677.5Q588 635 584 571L401 508Q403 527 403.5 549Q404 571 398.5 590.5Q393 610 378.5 623Q364 636 337 636Q313 636 294.5 616Q276 596 262 563.5Q248 531 238.5 489.5Q229 448 223 404.5Q217 361 214.5 319.5Q212 278 212 245Q212 197 228 170.5Q244 144 289 144Q316 144 332 148.5Q348 153 362 160L379 299H301L319 445H569L520 60Q494 43 467.5 29.5Q441 16 411 7Q381 -2 345 -7Q309 -12 265 -12Q201 -12 157 3.5Q113 19 85.5 51Q58 83 46 131.5Q34 180 34 246Z" glyph-name="G" horiz-adv-x="605" unicode="G" /><glyph d="M34 246Q34 358 49 457.5Q64 557 101.5 631.5Q139 706 202 749Q265 792 361 792Q423 792 467.5 781.5Q512 771 539 745.5Q566 720 577 677.5Q588 635 584 571L401 508Q403 527 403.5 549Q404 571 398.5 590.5Q393 610 378.5 623Q364 636 337 636Q313 636 294.5 616Q276 596 262 563.5Q248 531 238.5 489.5Q229 448 223 404.5Q217 361 214.5 319.5Q212 278 212 245Q212 197 228 170.5Q244 144 289 144Q316 144 332 148.5Q348 153 362 160L379 299H301L319 445H569L520 60Q494 43 467.5 29.5Q441 16 411 7Q381 -2 345 -7Q309 -12 265 -12Q201 -12 157 3.5Q113 19 85.5 51Q58 83 46 131.5Q34 180 34 246ZM363 806Q311 806 279 821Q247 836 231 864.5Q215 893 212.5 934.5Q210 976 218 1030H348Q343 996 350.5 977Q358 958 382 958Q406 958 418 977Q430 996 434 1030H564Q558 976 545 934.5Q532 893 509 864.5Q486 836 450.5 821Q415 806 363 806Z" glyph-name="Gbreve" horiz-adv-x="592" unicode="&#286;" /><glyph d="M34 246Q34 358 49 457.5Q64 557 101.5 631.5Q139 706 202 749Q265 792 361 792Q423 792 467.5 781.5Q512 771 539 745.5Q566 720 577 677.5Q588 635 584 571L401 508Q403 527 403.5 549Q404 571 398.5 590.5Q393 610 378.5 623Q364 636 337 636Q313 636 294.5 616Q276 596 262 563.5Q248 531 238.5 489.5Q229 448 223 404.5Q217 361 214.5 319.5Q212 278 212 245Q212 197 228 170.5Q244 144 289 144Q316 144 332 148.5Q348 153 362 160L379 299H301L319 445H569L520 60Q494 43 467.5 29.5Q441 16 411 7Q381 -2 345 -7Q309 -12 265 -12Q201 -12 157 3.5Q113 19 85.5 51Q58 83 46 131.5Q34 180 34 246ZM179 822 293 1030H489L551 822H408L376 906L322 822Z" glyph-name="Gcircumflex" horiz-adv-x="592" unicode="&#284;" /><glyph d="M34 246Q34 358 49 457.5Q64 557 101.5 631.5Q139 706 202 749Q265 792 361 792Q423 792 467.5 781.5Q512 771 539 745.5Q566 720 577 677.5Q588 635 584 571L401 508Q403 527 403.5 549Q404 571 398.5 590.5Q393 610 378.5 623Q364 636 337 636Q313 636 294.5 616Q276 596 262 563.5Q248 531 238.5 489.5Q229 448 223 404.5Q217 361 214.5 319.5Q212 278 212 245Q212 197 228 170.5Q244 144 289 144Q316 144 332 148.5Q348 153 362 160L379 299H301L319 445H569L520 60Q494 43 467.5 29.5Q441 16 411 7Q381 -2 345 -7Q309 -12 265 -12Q201 -12 157 3.5Q113 19 85.5 51Q58 83 46 131.5Q34 180 34 246ZM356 -40 299 -200H136L171 -40Z" glyph-name="Gcommaaccent" horiz-adv-x="592" unicode="&#290;" /><glyph d="M34 246Q34 358 49 457.5Q64 557 101.5 631.5Q139 706 202 749Q265 792 361 792Q423 792 467.5 781.5Q512 771 539 745.5Q566 720 577 677.5Q588 635 584 571L401 508Q403 527 403.5 549Q404 571 398.5 590.5Q393 610 378.5 623Q364 636 337 636Q313 636 294.5 616Q276 596 262 563.5Q248 531 238.5 489.5Q229 448 223 404.5Q217 361 214.5 319.5Q212 278 212 245Q212 197 228 170.5Q244 144 289 144Q316 144 332 148.5Q348 153 362 160L379 299H301L319 445H569L520 60Q494 43 467.5 29.5Q441 16 411 7Q381 -2 345 -7Q309 -12 265 -12Q201 -12 157 3.5Q113 19 85.5 51Q58 83 46 131.5Q34 180 34 246ZM458 828H274L297 1010H481Z" glyph-name="Gdotaccent" horiz-adv-x="592" unicode="&#288;" /><glyph d="M587 780 492 0H313L352 319H230L191 0H12L107 780H286L249 478H371L408 780Z" glyph-name="H" horiz-adv-x="584" unicode="H" /><glyph d="M371 478 383 582H261L249 478ZM587 780 492 0H313L352 319H230L191 0H12L107 780H286L274 685H396L408 780Z" glyph-name="Hbar" horiz-adv-x="584" unicode="&#294;" /><glyph d="M166 822 280 1030H476L538 822H395L363 906L309 822ZM587 780 492 0H313L352 319H230L191 0H12L107 780H286L249 478H371L408 780Z" glyph-name="Hcircumflex" horiz-adv-x="584" unicode="&#292;" /><glyph d="M197 0H17L112 780H292Z" glyph-name="I" horiz-adv-x="294" unicode="I" /><glyph d="M197 0H17L112 780H292ZM341 142Q393 142 400 203L471 779H650L580 206Q572 145 553.5 103.5Q535 62 506.5 36Q478 10 441 -1.5Q404 -13 360 -13Q324 -13 290 -8Q256 -3 240 5L270 162Q283 154 301.5 147.5Q320 141 341 142Z" glyph-name="IJ" horiz-adv-x="644" unicode="&#306;" /><glyph d="M384 1030 297 822H118L188 1030ZM197 0H17L112 780H292Z" glyph-name="Iacute" horiz-adv-x="294" unicode="&#205;" /><glyph d="M205 806Q153 806 121 821Q89 836 73 864.5Q57 893 54.5 934.5Q52 976 60 1030H190Q185 996 192.5 977Q200 958 224 958Q248 958 260 977Q272 996 276 1030H406Q400 976 387 934.5Q374 893 351 864.5Q328 836 292.5 821Q257 806 205 806ZM197 0H17L112 780H292Z" glyph-name="Ibreve" horiz-adv-x="294" unicode="&#300;" /><glyph d="M21 822 135 1030H331L393 822H250L218 906L164 822ZM197 0H17L112 780H292Z" glyph-name="Icircumflex" horiz-adv-x="294" unicode="&#206;" /><glyph d="M418 833H239L261 1010H440ZM179 833H0L22 1010H201ZM197 0H17L112 780H292Z" glyph-name="Idieresis" horiz-adv-x="294" unicode="&#207;" /><glyph d="M300 828H116L139 1010H323ZM197 0H17L112 780H292Z" glyph-name="Idotaccent" horiz-adv-x="294" unicode="&#304;" /><glyph d="M278 1030 296 822H117L82 1030ZM197 0H17L112 780H292Z" glyph-name="Igrave" horiz-adv-x="294" unicode="&#204;" /><glyph d="M105 1010H357L336 846H84ZM197 0H17L112 780H292Z" glyph-name="Imacron" horiz-adv-x="294" unicode="&#298;" /><glyph d="M197 0Q149 -5 124.5 -27.5Q100 -50 100 -71Q100 -79 105 -87Q110 -95 126 -95Q145 -95 162 -86.5Q179 -78 179 -77L199 -191Q182 -201 153.5 -208.5Q125 -216 91 -216Q37 -216 2 -194Q-33 -172 -33 -123Q-33 -88 -19 -59.5Q-5 -31 15 -9L112 780H292Z" glyph-name="Iogonek" horiz-adv-x="294" unicode="&#302;" /><glyph d="M446 1002Q438 960 425.5 924.5Q413 889 394 862.5Q375 836 349.5 821Q324 806 290 806Q258 806 237.5 817.5Q217 829 202 843.5Q187 858 175.5 869.5Q164 881 150 881Q138 881 131.5 873.5Q125 866 122 858Q118 847 117 835L-5 850Q2 892 14.5 927.5Q27 963 46 989.5Q65 1016 90.5 1031Q116 1046 150 1046Q182 1046 202.5 1034.5Q223 1023 238 1008.5Q253 994 265 982.5Q277 971 291 971Q302 971 309 978Q316 985 319 994Q323 1004 323 1017ZM197 0H17L112 780H292Z" glyph-name="Itilde" horiz-adv-x="294" unicode="&#296;" /><glyph d="M500 780 431 217Q423 153 403.5 109Q384 65 352 38Q320 11 276 -0.5Q232 -12 176 -12Q116 -12 77.5 -0.5Q39 11 17.5 34Q-4 57 -11 90.5Q-18 124 -16 168L163 230Q157 185 165 164Q173 143 199 143Q224 143 235.5 159.5Q247 176 252 216L321 780Z" glyph-name="J" horiz-adv-x="494" unicode="J" /><glyph d="M229 822 343 1030H539L601 822H458L426 906L372 822ZM500 780 431 217Q423 153 403.5 109Q384 65 352 38Q320 11 276 -0.5Q232 -12 176 -12Q116 -12 77.5 -0.5Q39 11 17.5 34Q-4 57 -11 90.5Q-18 124 -16 168L163 230Q157 185 165 164Q173 143 199 143Q224 143 235.5 159.5Q247 176 252 216L321 780Z" glyph-name="Jcircumflex" horiz-adv-x="494" unicode="&#308;" /><glyph d="M242 455 403 780H619L410 442L536 0H317L268 286L211 199L191 0H12L107 780H286Z" glyph-name="K" horiz-adv-x="585" unicode="K" /><glyph d="M346 -40 289 -200H126L161 -40ZM242 455 403 780H619L410 442L536 0H317L268 286L211 199L191 0H12L107 780H286Z" glyph-name="Kcommaaccent" horiz-adv-x="585" unicode="&#310;" /><glyph d="M210 160H407L388 0H12L107 780H286Z" glyph-name="L" horiz-adv-x="450" unicode="L" /><glyph d="M379 1030 292 822H113L183 1030ZM210 160H407L388 0H12L107 780H286Z" glyph-name="Lacute" horiz-adv-x="448" unicode="&#313;" /><glyph d="M442 800 378 560H307L342 800ZM210 160H407L388 0H12L107 780H286Z" glyph-name="Lcaron" horiz-adv-x="448" unicode="&#317;" /><glyph d="M291 -40 234 -200H71L106 -40ZM210 160H407L388 0H12L107 780H286Z" glyph-name="Lcommaaccent" horiz-adv-x="448" unicode="&#315;" /><glyph d="M462 308H278L301 490H485ZM210 160H407L388 0H12L107 780H286Z" glyph-name="Ldot" horiz-adv-x="483" unicode="&#319;" /><glyph d="M271 335 250 160H447L428 0H52L82 246L26 220L42 354L98 380L147 780H326L288 469L418 530L401 396Z" glyph-name="Lslash" horiz-adv-x="488" unicode="&#321;" /><glyph d="M263 0 229 397 189 0H12L107 780H356L376 346L501 780H751L656 0H479L535 397L405 0Z" glyph-name="M" horiz-adv-x="748" unicode="M" /><glyph d="M350 554 389 364 407 514 439 780H606L511 0H317L267 226L229 416L211 266L181 0H12L107 780H301Z" glyph-name="N" horiz-adv-x="603" unicode="N" /><glyph d="M533 1030 446 822H267L337 1030ZM350 554 389 364 407 514 439 780H606L511 0H317L267 226L229 416L211 266L181 0H12L107 780H301Z" glyph-name="Nacute" horiz-adv-x="603" unicode="&#323;" /><glyph d="M573 1030 459 822H263L201 1030H344L377 946L430 1030ZM350 554 389 364 407 514 439 780H606L511 0H317L267 226L229 416L211 266L181 0H12L107 780H301Z" glyph-name="Ncaron" horiz-adv-x="603" unicode="&#327;" /><glyph d="M352 -40 295 -200H132L167 -40ZM350 554 389 364 407 514 439 780H606L511 0H317L267 226L229 416L211 266L181 0H12L107 780H301Z" glyph-name="Ncommaaccent" horiz-adv-x="603" unicode="&#325;" /><glyph d="M600 1002Q592 960 579.5 924.5Q567 889 548 862.5Q529 836 503.5 821Q478 806 444 806Q412 806 391.5 817.5Q371 829 356 843.5Q341 858 329.5 869.5Q318 881 304 881Q292 881 285.5 873.5Q279 866 276 858Q272 847 271 835L149 850Q156 892 168.5 927.5Q181 963 200 989.5Q219 1016 244.5 1031Q270 1046 304 1046Q336 1046 356.5 1034.5Q377 1023 392 1008.5Q407 994 419 982.5Q431 971 445 971Q456 971 463 978Q470 985 473 994Q477 1004 477 1017ZM350 554 389 364 407 514 439 780H606L511 0H317L267 226L229 416L211 266L181 0H12L107 780H301Z" glyph-name="Ntilde" horiz-adv-x="603" unicode="&#209;" /><glyph d="M252 -12Q190 -12 148 6Q106 24 80.5 58Q55 92 44 141Q33 190 33 251Q33 364 47 462.5Q61 561 97 634.5Q133 708 194.5 750Q256 792 351 792Q413 792 455 774Q497 756 522.5 722Q548 688 559 639Q570 590 570 529Q570 416 555.5 317.5Q541 219 505 145.5Q469 72 407.5 30Q346 -12 252 -12ZM271 144Q292 144 309 161.5Q326 179 339 209Q352 239 361.5 278Q371 317 377 359Q383 401 386 444.5Q389 488 389 526Q389 579 376 607.5Q363 636 332 636Q311 636 294 618.5Q277 601 264 571Q251 541 241.5 502Q232 463 226 421Q220 379 217 335.5Q214 292 214 254Q214 201 227 172.5Q240 144 271 144Z" glyph-name="O" horiz-adv-x="588" unicode="O" /><glyph d="M322 160 379 620H358Q327 620 304.5 603.5Q282 587 266 559.5Q250 532 240 496Q230 460 224 420Q218 380 216 339.5Q214 299 214 262Q214 208 232.5 184Q251 160 302 160ZM284 0Q218 0 170.5 12.5Q123 25 93 54.5Q63 84 48.5 132.5Q34 181 34 252Q34 372 51.5 469.5Q69 567 109.5 636Q150 705 215.5 742.5Q281 780 377 780H785L766 620H559L541 478H705L686 319H522L502 160H720L701 0Z" glyph-name="OE" horiz-adv-x="771" unicode="&#338;" /><glyph d="M252 -12Q190 -12 148 6Q106 24 80.5 58Q55 92 44 141Q33 190 33 251Q33 364 47 462.5Q61 561 97 634.5Q133 708 194.5 750Q256 792 351 792Q413 792 455 774Q497 756 522.5 722Q548 688 559 639Q570 590 570 529Q570 416 555.5 317.5Q541 219 505 145.5Q469 72 407.5 30Q346 -12 252 -12ZM271 144Q292 144 309 161.5Q326 179 339 209Q352 239 361.5 278Q371 317 377 359Q383 401 386 444.5Q389 488 389 526Q389 579 376 607.5Q363 636 332 636Q311 636 294 618.5Q277 601 264 571Q251 541 241.5 502Q232 463 226 421Q220 379 217 335.5Q214 292 214 254Q214 201 227 172.5Q240 144 271 144ZM526 1030 439 822H260L330 1030Z" glyph-name="Oacute" horiz-adv-x="588" unicode="&#211;" /><glyph d="M252 -12Q190 -12 148 6Q106 24 80.5 58Q55 92 44 141Q33 190 33 251Q33 364 47 462.5Q61 561 97 634.5Q133 708 194.5 750Q256 792 351 792Q413 792 455 774Q497 756 522.5 722Q548 688 559 639Q570 590 570 529Q570 416 555.5 317.5Q541 219 505 145.5Q469 72 407.5 30Q346 -12 252 -12ZM271 144Q292 144 309 161.5Q326 179 339 209Q352 239 361.5 278Q371 317 377 359Q383 401 386 444.5Q389 488 389 526Q389 579 376 607.5Q363 636 332 636Q311 636 294 618.5Q277 601 264 571Q251 541 241.5 502Q232 463 226 421Q220 379 217 335.5Q214 292 214 254Q214 201 227 172.5Q240 144 271 144ZM352 806Q300 806 268 821Q236 836 220 864.5Q204 893 201.5 934.5Q199 976 207 1030H337Q332 996 339.5 977Q347 958 371 958Q395 958 407 977Q419 996 423 1030H553Q547 976 534 934.5Q521 893 498 864.5Q475 836 439.5 821Q404 806 352 806Z" glyph-name="Obreve" horiz-adv-x="588" unicode="&#334;" /><glyph d="M252 -12Q190 -12 148 6Q106 24 80.5 58Q55 92 44 141Q33 190 33 251Q33 364 47 462.5Q61 561 97 634.5Q133 708 194.5 750Q256 792 351 792Q413 792 455 774Q497 756 522.5 722Q548 688 559 639Q570 590 570 529Q570 416 555.5 317.5Q541 219 505 145.5Q469 72 407.5 30Q346 -12 252 -12ZM271 144Q292 144 309 161.5Q326 179 339 209Q352 239 361.5 278Q371 317 377 359Q383 401 386 444.5Q389 488 389 526Q389 579 376 607.5Q363 636 332 636Q311 636 294 618.5Q277 601 264 571Q251 541 241.5 502Q232 463 226 421Q220 379 217 335.5Q214 292 214 254Q214 201 227 172.5Q240 144 271 144ZM168 822 282 1030H478L540 822H397L365 906L311 822Z" glyph-name="Ocircumflex" horiz-adv-x="588" unicode="&#212;" /><glyph d="M252 -12Q190 -12 148 6Q106 24 80.5 58Q55 92 44 141Q33 190 33 251Q33 364 47 462.5Q61 561 97 634.5Q133 708 194.5 750Q256 792 351 792Q413 792 455 774Q497 756 522.5 722Q548 688 559 639Q570 590 570 529Q570 416 555.5 317.5Q541 219 505 145.5Q469 72 407.5 30Q346 -12 252 -12ZM271 144Q292 144 309 161.5Q326 179 339 209Q352 239 361.5 278Q371 317 377 359Q383 401 386 444.5Q389 488 389 526Q389 579 376 607.5Q363 636 332 636Q311 636 294 618.5Q277 601 264 571Q251 541 241.5 502Q232 463 226 421Q220 379 217 335.5Q214 292 214 254Q214 201 227 172.5Q240 144 271 144ZM565 833H386L408 1010H587ZM326 833H147L169 1010H348Z" glyph-name="Odieresis" horiz-adv-x="588" unicode="&#214;" /><glyph d="M252 -12Q190 -12 148 6Q106 24 80.5 58Q55 92 44 141Q33 190 33 251Q33 364 47 462.5Q61 561 97 634.5Q133 708 194.5 750Q256 792 351 792Q413 792 455 774Q497 756 522.5 722Q548 688 559 639Q570 590 570 529Q570 416 555.5 317.5Q541 219 505 145.5Q469 72 407.5 30Q346 -12 252 -12ZM271 144Q292 144 309 161.5Q326 179 339 209Q352 239 361.5 278Q371 317 377 359Q383 401 386 444.5Q389 488 389 526Q389 579 376 607.5Q363 636 332 636Q311 636 294 618.5Q277 601 264 571Q251 541 241.5 502Q232 463 226 421Q220 379 217 335.5Q214 292 214 254Q214 201 227 172.5Q240 144 271 144ZM430 1030 448 822H269L234 1030Z" glyph-name="Ograve" horiz-adv-x="588" unicode="&#210;" /><glyph d="M252 -12Q190 -12 148 6Q106 24 80.5 58Q55 92 44 141Q33 190 33 251Q33 364 47 462.5Q61 561 97 634.5Q133 708 194.5 750Q256 792 351 792Q413 792 455 774Q497 756 522.5 722Q548 688 559 639Q570 590 570 529Q570 416 555.5 317.5Q541 219 505 145.5Q469 72 407.5 30Q346 -12 252 -12ZM271 144Q292 144 309 161.5Q326 179 339 209Q352 239 361.5 278Q371 317 377 359Q383 401 386 444.5Q389 488 389 526Q389 579 376 607.5Q363 636 332 636Q311 636 294 618.5Q277 601 264 571Q251 541 241.5 502Q232 463 226 421Q220 379 217 335.5Q214 292 214 254Q214 201 227 172.5Q240 144 271 144ZM650 1030 553 822H374L454 1030ZM434 1030 337 822H158L238 1030Z" glyph-name="Ohungarumlaut" horiz-adv-x="588" unicode="&#336;" /><glyph d="M252 -12Q190 -12 148 6Q106 24 80.5 58Q55 92 44 141Q33 190 33 251Q33 364 47 462.5Q61 561 97 634.5Q133 708 194.5 750Q256 792 351 792Q413 792 455 774Q497 756 522.5 722Q548 688 559 639Q570 590 570 529Q570 416 555.5 317.5Q541 219 505 145.5Q469 72 407.5 30Q346 -12 252 -12ZM271 144Q292 144 309 161.5Q326 179 339 209Q352 239 361.5 278Q371 317 377 359Q383 401 386 444.5Q389 488 389 526Q389 579 376 607.5Q363 636 332 636Q311 636 294 618.5Q277 601 264 571Q251 541 241.5 502Q232 463 226 421Q220 379 217 335.5Q214 292 214 254Q214 201 227 172.5Q240 144 271 144ZM252 1010H504L483 846H231Z" glyph-name="Omacron" horiz-adv-x="588" unicode="&#332;" /><glyph d="M332 636Q303 636 282 605Q261 574 247 526Q233 478 225 419.5Q217 361 215 306L386 572Q381 603 368 619.5Q355 636 332 636ZM271 144Q299 144 320 174.5Q341 205 355.5 253Q370 301 377.5 359.5Q385 418 388 474L217 208Q226 144 271 144ZM252 -12Q155 -12 104 33L83 0H18L68 77Q49 110 41 153.5Q33 197 33 251Q33 364 47 462.5Q61 561 97 634.5Q133 708 194.5 750Q256 792 351 792Q446 792 499 747L520 780H585L535 702Q554 669 562 625.5Q570 582 570 529Q570 416 555.5 317.5Q541 219 505 145.5Q469 72 407.5 30Q346 -12 252 -12Z" glyph-name="Oslash" horiz-adv-x="588" unicode="&#216;" /><glyph d="M252 -12Q190 -12 148 6Q106 24 80.5 58Q55 92 44 141Q33 190 33 251Q33 364 47 462.5Q61 561 97 634.5Q133 708 194.5 750Q256 792 351 792Q413 792 455 774Q497 756 522.5 722Q548 688 559 639Q570 590 570 529Q570 416 555.5 317.5Q541 219 505 145.5Q469 72 407.5 30Q346 -12 252 -12ZM271 144Q292 144 309 161.5Q326 179 339 209Q352 239 361.5 278Q371 317 377 359Q383 401 386 444.5Q389 488 389 526Q389 579 376 607.5Q363 636 332 636Q311 636 294 618.5Q277 601 264 571Q251 541 241.5 502Q232 463 226 421Q220 379 217 335.5Q214 292 214 254Q214 201 227 172.5Q240 144 271 144ZM593 1002Q585 960 572.5 924.5Q560 889 541 862.5Q522 836 496.5 821Q471 806 437 806Q405 806 384.5 817.5Q364 829 349 843.5Q334 858 322.5 869.5Q311 881 297 881Q285 881 278.5 873.5Q272 866 269 858Q265 847 264 835L142 850Q149 892 161.5 927.5Q174 963 193 989.5Q212 1016 237.5 1031Q263 1046 297 1046Q329 1046 349.5 1034.5Q370 1023 385 1008.5Q400 994 412 982.5Q424 971 438 971Q449 971 456 978Q463 985 466 994Q470 1004 470 1017Z" glyph-name="Otilde" horiz-adv-x="588" unicode="&#213;" /><glyph d="M194 0H14L109 780H355Q395 780 431 771Q467 762 494.5 739.5Q522 717 538 678.5Q554 640 554 580Q554 479 530.5 415.5Q507 352 470 315.5Q433 279 386.5 265.5Q340 252 294 252H224ZM300 413Q331 413 351 446Q371 479 371 559Q371 592 360 606Q349 620 326 620H270L244 413Z" glyph-name="P" horiz-adv-x="550" unicode="P" /><glyph d="M271 144Q292 144 309 161.5Q326 179 339 209Q352 239 361.5 278Q371 317 377 359Q383 401 386 444.5Q389 488 389 526Q389 579 376 607.5Q363 636 332 636Q311 636 294 618.5Q277 601 264 571Q251 541 241.5 502Q232 463 226 421Q220 379 217 335.5Q214 292 214 254Q214 201 227 172.5Q240 144 271 144ZM97 40Q63 75 48 127.5Q33 180 33 251Q33 364 47 462.5Q61 561 97 634.5Q133 708 194.5 750Q256 792 351 792Q413 792 455 774Q497 756 522.5 722Q548 688 559 639Q570 590 570 529Q570 434 560.5 349.5Q551 265 527 196.5Q503 128 462.5 78.5Q422 29 361 6L457 -59L351 -216Z" glyph-name="Q" horiz-adv-x="588" unicode="Q" /><glyph d="M291 433Q306 433 321.5 436.5Q337 440 349.5 452.5Q362 465 370 489.5Q378 514 378 557Q378 578 373 590.5Q368 603 359 609.5Q350 616 338.5 618Q327 620 314 620H268L245 433ZM192 0H12L107 780H358Q398 780 435 773.5Q472 767 500 747.5Q528 728 545 691Q562 654 562 593Q562 525 550.5 474.5Q539 424 521 388.5Q503 353 481.5 330Q460 307 439 294L512 0H307L266 272H225Z" glyph-name="R" horiz-adv-x="569" unicode="R" /><glyph d="M291 433Q306 433 321.5 436.5Q337 440 349.5 452.5Q362 465 370 489.5Q378 514 378 557Q378 578 373 590.5Q368 603 359 609.5Q350 616 338.5 618Q327 620 314 620H268L245 433ZM192 0H12L107 780H358Q398 780 435 773.5Q472 767 500 747.5Q528 728 545 691Q562 654 562 593Q562 525 550.5 474.5Q539 424 521 388.5Q503 353 481.5 330Q460 307 439 294L512 0H307L266 272H225ZM504 1030 417 822H238L308 1030Z" glyph-name="Racute" horiz-adv-x="569" unicode="&#340;" /><glyph d="M291 433Q306 433 321.5 436.5Q337 440 349.5 452.5Q362 465 370 489.5Q378 514 378 557Q378 578 373 590.5Q368 603 359 609.5Q350 616 338.5 618Q327 620 314 620H268L245 433ZM192 0H12L107 780H358Q398 780 435 773.5Q472 767 500 747.5Q528 728 545 691Q562 654 562 593Q562 525 550.5 474.5Q539 424 521 388.5Q503 353 481.5 330Q460 307 439 294L512 0H307L266 272H225ZM544 1030 430 822H234L172 1030H315L348 946L401 1030Z" glyph-name="Rcaron" horiz-adv-x="569" unicode="&#344;" /><glyph d="M291 433Q306 433 321.5 436.5Q337 440 349.5 452.5Q362 465 370 489.5Q378 514 378 557Q378 578 373 590.5Q368 603 359 609.5Q350 616 338.5 618Q327 620 314 620H268L245 433ZM192 0H12L107 780H358Q398 780 435 773.5Q472 767 500 747.5Q528 728 545 691Q562 654 562 593Q562 525 550.5 474.5Q539 424 521 388.5Q503 353 481.5 330Q460 307 439 294L512 0H307L266 272H225ZM346 -40 289 -200H126L161 -40Z" glyph-name="Rcommaaccent" horiz-adv-x="569" unicode="&#342;" /><glyph d="M243 144Q281 144 302 165Q323 186 323 235Q323 273 297.5 290Q272 307 219 321Q188 329 158.5 341Q129 353 106.5 374Q84 395 70 427.5Q56 460 56 511Q56 657 122.5 726.5Q189 796 333 796Q394 796 434 783.5Q474 771 497.5 744.5Q521 718 528.5 676.5Q536 635 532 576L353 515Q355 530 357.5 551Q360 572 357 590.5Q354 609 343 622.5Q332 636 308 636Q276 636 257 612.5Q238 589 238 539Q238 503 258.5 490Q279 477 328 468Q368 460 401 448.5Q434 437 457 416Q480 395 492.5 362.5Q505 330 505 281Q505 197 485 140Q465 83 427.5 48.5Q390 14 337.5 -1Q285 -16 220 -16Q149 -16 105 -2Q61 12 37.5 40Q14 68 8 109Q2 150 7 204L185 265Q183 246 182 225Q181 204 185.5 186Q190 168 203 156Q216 144 243 144Z" glyph-name="S" horiz-adv-x="538" unicode="S" /><glyph d="M243 144Q281 144 302 165Q323 186 323 235Q323 273 297.5 290Q272 307 219 321Q188 329 158.5 341Q129 353 106.5 374Q84 395 70 427.5Q56 460 56 511Q56 657 122.5 726.5Q189 796 333 796Q394 796 434 783.5Q474 771 497.5 744.5Q521 718 528.5 676.5Q536 635 532 576L353 515Q355 530 357.5 551Q360 572 357 590.5Q354 609 343 622.5Q332 636 308 636Q276 636 257 612.5Q238 589 238 539Q238 503 258.5 490Q279 477 328 468Q368 460 401 448.5Q434 437 457 416Q480 395 492.5 362.5Q505 330 505 281Q505 197 485 140Q465 83 427.5 48.5Q390 14 337.5 -1Q285 -16 220 -16Q149 -16 105 -2Q61 12 37.5 40Q14 68 8 109Q2 150 7 204L185 265Q183 246 182 225Q181 204 185.5 186Q190 168 203 156Q216 144 243 144ZM504 1030 417 822H238L308 1030Z" glyph-name="Sacute" horiz-adv-x="538" unicode="&#346;" /><glyph d="M243 144Q281 144 302 165Q323 186 323 235Q323 273 297.5 290Q272 307 219 321Q188 329 158.5 341Q129 353 106.5 374Q84 395 70 427.5Q56 460 56 511Q56 657 122.5 726.5Q189 796 333 796Q394 796 434 783.5Q474 771 497.5 744.5Q521 718 528.5 676.5Q536 635 532 576L353 515Q355 530 357.5 551Q360 572 357 590.5Q354 609 343 622.5Q332 636 308 636Q276 636 257 612.5Q238 589 238 539Q238 503 258.5 490Q279 477 328 468Q368 460 401 448.5Q434 437 457 416Q480 395 492.5 362.5Q505 330 505 281Q505 197 485 140Q465 83 427.5 48.5Q390 14 337.5 -1Q285 -16 220 -16Q149 -16 105 -2Q61 12 37.5 40Q14 68 8 109Q2 150 7 204L185 265Q183 246 182 225Q181 204 185.5 186Q190 168 203 156Q216 144 243 144ZM544 1030 430 822H234L172 1030H315L348 946L401 1030Z" glyph-name="Scaron" horiz-adv-x="538" unicode="&#352;" /><glyph d="M243 144Q281 144 302 165Q323 186 323 235Q323 273 297.5 290Q272 307 219 321Q188 329 158.5 341Q129 353 106.5 374Q84 395 70 427.5Q56 460 56 511Q56 657 122.5 726.5Q189 796 333 796Q394 796 434 783.5Q474 771 497.5 744.5Q521 718 528.5 676.5Q536 635 532 576L353 515Q355 530 357.5 551Q360 572 357 590.5Q354 609 343 622.5Q332 636 308 636Q276 636 257 612.5Q238 589 238 539Q238 503 258.5 490Q279 477 328 468Q368 460 401 448.5Q434 437 457 416Q480 395 492.5 362.5Q505 330 505 281Q505 203 487.5 149Q470 95 438 60Q406 25 360.5 7.5Q315 -10 258 -14L251 -33Q276 -38 295.5 -46.5Q315 -55 327.5 -67Q340 -79 344.5 -95Q349 -111 344 -132Q339 -154 325.5 -170Q312 -186 292.5 -196Q273 -206 249.5 -211Q226 -216 201 -216Q148 -216 117 -207Q86 -198 75 -193L109 -117Q116 -120 124 -124Q131 -127 139 -129.5Q147 -132 157 -134Q177 -137 191.5 -133Q206 -129 208 -113Q210 -99 190 -89Q170 -79 134 -75L163 -13Q110 -7 78 9.5Q46 26 29 53Q12 80 7.5 118Q3 156 7 204L185 265Q183 246 182 225Q181 204 185.5 186Q190 168 203 156Q216 144 243 144Z" glyph-name="Scedilla" horiz-adv-x="538" unicode="&#350;" /><glyph d="M243 144Q281 144 302 165Q323 186 323 235Q323 273 297.5 290Q272 307 219 321Q188 329 158.5 341Q129 353 106.5 374Q84 395 70 427.5Q56 460 56 511Q56 657 122.5 726.5Q189 796 333 796Q394 796 434 783.5Q474 771 497.5 744.5Q521 718 528.5 676.5Q536 635 532 576L353 515Q355 530 357.5 551Q360 572 357 590.5Q354 609 343 622.5Q332 636 308 636Q276 636 257 612.5Q238 589 238 539Q238 503 258.5 490Q279 477 328 468Q368 460 401 448.5Q434 437 457 416Q480 395 492.5 362.5Q505 330 505 281Q505 197 485 140Q465 83 427.5 48.5Q390 14 337.5 -1Q285 -16 220 -16Q149 -16 105 -2Q61 12 37.5 40Q14 68 8 109Q2 150 7 204L185 265Q183 246 182 225Q181 204 185.5 186Q190 168 203 156Q216 144 243 144ZM146 822 260 1030H456L518 822H375L343 906L289 822Z" glyph-name="Scircumflex" horiz-adv-x="538" unicode="&#348;" /><glyph d="M243 144Q281 144 302 165Q323 186 323 235Q323 273 297.5 290Q272 307 219 321Q188 329 158.5 341Q129 353 106.5 374Q84 395 70 427.5Q56 460 56 511Q56 657 122.5 726.5Q189 796 333 796Q394 796 434 783.5Q474 771 497.5 744.5Q521 718 528.5 676.5Q536 635 532 576L353 515Q355 530 357.5 551Q360 572 357 590.5Q354 609 343 622.5Q332 636 308 636Q276 636 257 612.5Q238 589 238 539Q238 503 258.5 490Q279 477 328 468Q368 460 401 448.5Q434 437 457 416Q480 395 492.5 362.5Q505 330 505 281Q505 197 485 140Q465 83 427.5 48.5Q390 14 337.5 -1Q285 -16 220 -16Q149 -16 105 -2Q61 12 37.5 40Q14 68 8 109Q2 150 7 204L185 265Q183 246 182 225Q181 204 185.5 186Q190 168 203 156Q216 144 243 144ZM315 -40 258 -200H95L130 -40Z" glyph-name="Scommaaccent" horiz-adv-x="538" unicode="&#536;" /><glyph d="M294 0H115L191 620H56L75 780H524L505 620H370Z" glyph-name="T" horiz-adv-x="489" unicode="T" /><glyph d="M98 462H171L191 620H56L75 780H524L505 620H370L350 462H423L408 338H335L294 0H115L156 338H83Z" glyph-name="Tbar" horiz-adv-x="489" unicode="&#358;" /><glyph d="M516 1030 402 822H206L144 1030H287L320 946L373 1030ZM294 0H115L191 620H56L75 780H524L505 620H370Z" glyph-name="Tcaron" horiz-adv-x="489" unicode="&#356;" /><glyph d="M295 -40 238 -200H75L110 -40ZM294 0H115L191 620H56L75 780H524L505 620H370Z" glyph-name="Tcommaaccent" horiz-adv-x="489" unicode="&#354;" /><glyph d="M285 286Q317 286 336 319Q355 352 355 433Q355 465 344 479Q333 493 310 493H254L229 286ZM273 653H340Q380 653 416 644.5Q452 636 479 613.5Q506 591 522 552.5Q538 514 538 455Q538 354 515 289.5Q492 225 455 188.5Q418 152 371.5 138.5Q325 125 279 125H209L194 0H14L109 780H289Z" glyph-name="Thorn" horiz-adv-x="550" unicode="&#222;" /><glyph d="M259 143Q293 143 305 159Q317 175 322 215L391 780H570L500 206Q493 149 478 107Q463 65 433.5 38Q404 11 357.5 -2.5Q311 -16 240 -16Q169 -16 125.5 -2.5Q82 11 59.5 38Q37 65 32 107Q27 149 34 206L104 780H284L215 215Q210 175 218 159Q226 143 259 143Z" glyph-name="U" horiz-adv-x="564" unicode="U" /><glyph d="M517 1030 430 822H251L321 1030ZM257 143Q291 143 303 159Q315 175 320 215L389 780H568L498 206Q491 149 476 107Q461 65 431.5 38Q402 11 355.5 -2.5Q309 -16 238 -16Q167 -16 123.5 -2.5Q80 11 57.5 38Q35 65 30 107Q25 149 32 206L102 780H282L213 215Q208 175 216 159Q224 143 257 143Z" glyph-name="Uacute" horiz-adv-x="561" unicode="&#218;" /><glyph d="M338 806Q286 806 254 821Q222 836 206 864.5Q190 893 187.5 934.5Q185 976 193 1030H323Q318 996 325.5 977Q333 958 357 958Q381 958 393 977Q405 996 409 1030H539Q533 976 520 934.5Q507 893 484 864.5Q461 836 425.5 821Q390 806 338 806ZM257 143Q291 143 303 159Q315 175 320 215L389 780H568L498 206Q491 149 476 107Q461 65 431.5 38Q402 11 355.5 -2.5Q309 -16 238 -16Q167 -16 123.5 -2.5Q80 11 57.5 38Q35 65 30 107Q25 149 32 206L102 780H282L213 215Q208 175 216 159Q224 143 257 143Z" glyph-name="Ubreve" horiz-adv-x="561" unicode="&#364;" /><glyph d="M154 822 268 1030H464L526 822H383L351 906L297 822ZM257 143Q291 143 303 159Q315 175 320 215L389 780H568L498 206Q491 149 476 107Q461 65 431.5 38Q402 11 355.5 -2.5Q309 -16 238 -16Q167 -16 123.5 -2.5Q80 11 57.5 38Q35 65 30 107Q25 149 32 206L102 780H282L213 215Q208 175 216 159Q224 143 257 143Z" glyph-name="Ucircumflex" horiz-adv-x="561" unicode="&#219;" /><glyph d="M553 833H374L396 1010H575ZM314 833H135L157 1010H336ZM259 143Q293 143 305 159Q317 175 322 215L391 780H570L500 206Q493 149 478 107Q463 65 433.5 38Q404 11 357.5 -2.5Q311 -16 240 -16Q169 -16 125.5 -2.5Q82 11 59.5 38Q37 65 32 107Q27 149 34 206L104 780H284L215 215Q210 175 218 159Q226 143 259 143Z" glyph-name="Udieresis" horiz-adv-x="564" unicode="&#220;" /><glyph d="M411 1030 429 822H250L215 1030ZM257 143Q291 143 303 159Q315 175 320 215L389 780H568L498 206Q491 149 476 107Q461 65 431.5 38Q402 11 355.5 -2.5Q309 -16 238 -16Q167 -16 123.5 -2.5Q80 11 57.5 38Q35 65 30 107Q25 149 32 206L102 780H282L213 215Q208 175 216 159Q224 143 257 143Z" glyph-name="Ugrave" horiz-adv-x="561" unicode="&#217;" /><glyph d="M636 1030 539 822H360L440 1030ZM420 1030 323 822H144L224 1030ZM257 143Q291 143 303 159Q315 175 320 215L389 780H568L498 206Q491 149 476 107Q461 65 431.5 38Q402 11 355.5 -2.5Q309 -16 238 -16Q167 -16 123.5 -2.5Q80 11 57.5 38Q35 65 30 107Q25 149 32 206L102 780H282L213 215Q208 175 216 159Q224 143 257 143Z" glyph-name="Uhungarumlaut" horiz-adv-x="561" unicode="&#368;" /><glyph d="M238 1010H490L469 846H217ZM257 143Q291 143 303 159Q315 175 320 215L389 780H568L498 206Q491 149 476 107Q461 65 431.5 38Q402 11 355.5 -2.5Q309 -16 238 -16Q167 -16 123.5 -2.5Q80 11 57.5 38Q35 65 30 107Q25 149 32 206L102 780H282L213 215Q208 175 216 159Q224 143 257 143Z" glyph-name="Umacron" horiz-adv-x="561" unicode="&#362;" /><glyph d="M257 143Q291 143 303 159Q315 175 320 215L389 780H568L498 206Q492 162 482 127Q472 92 455 65.5Q438 39 411.5 21.5Q385 4 346 -5Q310 -15 287 -29Q264 -43 261 -68Q260 -76 265 -85.5Q270 -95 287 -95Q306 -95 321.5 -87Q337 -79 340 -77L360 -191Q343 -201 314.5 -208.5Q286 -216 252 -216Q223 -216 199 -209.5Q175 -203 158 -190Q141 -177 133 -156.5Q125 -136 128 -107Q132 -78 144.5 -55Q157 -32 177 -13Q126 -7 95 9Q64 25 47.5 52Q31 79 28.5 117.5Q26 156 32 206L102 780H282L213 215Q208 175 216 159Q224 143 257 143Z" glyph-name="Uogonek" horiz-adv-x="561" unicode="&#370;" /><glyph d="M381 926Q385 954 357 954Q329 954 325 926Q322 898 350 898Q378 898 381 926ZM233 926Q240 979 275.5 1012.5Q311 1046 368 1046Q425 1046 452.5 1012.5Q480 979 473 926Q467 873 431 839.5Q395 806 338 806Q281 806 254 839.5Q227 873 233 926ZM257 143Q291 143 303 159Q315 175 320 215L389 780H568L498 206Q491 149 476 107Q461 65 431.5 38Q402 11 355.5 -2.5Q309 -16 238 -16Q167 -16 123.5 -2.5Q80 11 57.5 38Q35 65 30 107Q25 149 32 206L102 780H282L213 215Q208 175 216 159Q224 143 257 143Z" glyph-name="Uring" horiz-adv-x="561" unicode="&#366;" /><glyph d="M579 1002Q571 960 558.5 924.5Q546 889 527 862.5Q508 836 482.5 821Q457 806 423 806Q391 806 370.5 817.5Q350 829 335 843.5Q320 858 308.5 869.5Q297 881 283 881Q271 881 264.5 873.5Q258 866 255 858Q251 847 250 835L128 850Q135 892 147.5 927.5Q160 963 179 989.5Q198 1016 223.5 1031Q249 1046 283 1046Q315 1046 335.5 1034.5Q356 1023 371 1008.5Q386 994 398 982.5Q410 971 424 971Q435 971 442 978Q449 985 452 994Q456 1004 456 1017ZM257 143Q291 143 303 159Q315 175 320 215L389 780H568L498 206Q491 149 476 107Q461 65 431.5 38Q402 11 355.5 -2.5Q309 -16 238 -16Q167 -16 123.5 -2.5Q80 11 57.5 38Q35 65 30 107Q25 149 32 206L102 780H282L213 215Q208 175 216 159Q224 143 257 143Z" glyph-name="Utilde" horiz-adv-x="561" unicode="&#360;" /><glyph d="M87 -6 66 780H248L243 155L390 780H572L358 -6Z" glyph-name="V" horiz-adv-x="528" unicode="V" /><glyph d="M420 535 289 -6H54L68 780H247L216 230L349 780H551L550 230L653 780H832L654 -6H419Z" glyph-name="W" horiz-adv-x="790" unicode="W" /><glyph d="M256 822 370 1030H566L628 822H485L453 906L399 822ZM407 535 276 -6H41L55 780H234L203 230L336 780H538L537 230L640 780H819L641 -6H406Z" glyph-name="Wcircumflex" horiz-adv-x="764" unicode="&#372;" /><glyph d="M284 277 182 0H-28L140 399L76 780H278L312 505L412 780H614L456 399L528 0H318Z" glyph-name="X" horiz-adv-x="580" unicode="X" /><glyph d="M412 780H596L346 252L319 0H139L171 252L51 780H235L282 437Z" glyph-name="Y" horiz-adv-x="537" unicode="Y" /><glyph d="M500 1030 413 822H234L304 1030ZM412 780H596L346 252L319 0H139L171 252L51 780H235L282 437Z" glyph-name="Yacute" horiz-adv-x="537" unicode="&#221;" /><glyph d="M142 822 256 1030H452L514 822H371L339 906L285 822ZM412 780H596L346 252L319 0H139L171 252L51 780H235L282 437Z" glyph-name="Ycircumflex" horiz-adv-x="537" unicode="&#374;" /><glyph d="M539 833H360L382 1010H561ZM300 833H121L143 1010H322ZM412 780H596L346 252L319 0H139L171 252L51 780H235L282 437Z" glyph-name="Ydieresis" horiz-adv-x="537" unicode="&#376;" /><glyph d="M2 129 289 566 328 621 211 620H81L100 780H548L532 651L247 214L207 159L325 160H473L454 0H-13Z" glyph-name="Z" horiz-adv-x="528" unicode="Z" /><glyph d="M502 1030 415 822H236L306 1030ZM2 129 289 566 328 621 211 620H81L100 780H548L532 651L247 214L207 159L325 160H473L454 0H-13Z" glyph-name="Zacute" horiz-adv-x="528" unicode="&#377;" /><glyph d="M542 1030 428 822H232L170 1030H313L346 946L399 1030ZM2 129 289 566 328 621 211 620H81L100 780H548L532 651L247 214L207 159L325 160H473L454 0H-13Z" glyph-name="Zcaron" horiz-adv-x="528" unicode="&#381;" /><glyph d="M423 828H239L262 1010H446ZM2 129 289 566 328 621 211 620H81L100 780H548L532 651L247 214L207 159L325 160H473L454 0H-13Z" glyph-name="Zdotaccent" horiz-adv-x="528" unicode="&#379;" /><glyph d="M464 152 450 0H292L291 46Q268 20 238.5 4Q209 -12 159 -12Q91 -12 50.5 32.5Q10 77 10 182Q10 281 28 349.5Q46 418 76.5 461Q107 504 146 523Q185 542 227 542Q277 542 302.5 526Q328 510 345 484L357 530H515L492 378ZM315 353Q304 369 290 378.5Q276 388 259 388Q245 388 232.5 380.5Q220 373 210.5 352Q201 331 195 294.5Q189 258 189 201Q189 166 199 154Q209 142 229 142Q246 142 262.5 151.5Q279 161 293 177Z" glyph-name="a" horiz-adv-x="532" unicode="a" /><glyph d="M461 800 374 592H195L265 800ZM464 152 450 0H292L291 46Q268 20 238.5 4Q209 -12 159 -12Q91 -12 50.5 32.5Q10 77 10 182Q10 281 28 349.5Q46 418 76.5 461Q107 504 146 523Q185 542 227 542Q277 542 302.5 526Q328 510 345 484L357 530H515L492 378ZM315 353Q304 369 290 378.5Q276 388 259 388Q245 388 232.5 380.5Q220 373 210.5 352Q201 331 195 294.5Q189 258 189 201Q189 166 199 154Q209 142 229 142Q246 142 262.5 151.5Q279 161 293 177Z" glyph-name="aacute" horiz-adv-x="532" unicode="&#225;" /><glyph d="M464 152 450 0H292L291 46Q268 20 238.5 4Q209 -12 159 -12Q91 -12 50.5 32.5Q10 77 10 182Q10 281 28 349.5Q46 418 76.5 461Q107 504 146 523Q185 542 227 542Q277 542 302.5 526Q328 510 345 484L357 530H515L492 378ZM315 353Q304 369 290 378.5Q276 388 259 388Q245 388 232.5 380.5Q220 373 210.5 352Q201 331 195 294.5Q189 258 189 201Q189 166 199 154Q209 142 229 142Q246 142 262.5 151.5Q279 161 293 177ZM287 576Q235 576 203 591Q171 606 155 634.5Q139 663 136.5 704.5Q134 746 142 800H272Q267 766 274.5 747Q282 728 306 728Q330 728 342 747Q354 766 358 800H488Q482 746 469 704.5Q456 663 433 634.5Q410 606 374.5 591Q339 576 287 576Z" glyph-name="abreve" horiz-adv-x="532" unicode="&#259;" /><glyph d="M103 592 217 800H413L475 592H332L300 676L246 592ZM464 152 450 0H292L291 46Q268 20 238.5 4Q209 -12 159 -12Q91 -12 50.5 32.5Q10 77 10 182Q10 281 28 349.5Q46 418 76.5 461Q107 504 146 523Q185 542 227 542Q277 542 302.5 526Q328 510 345 484L357 530H515L492 378ZM315 353Q304 369 290 378.5Q276 388 259 388Q245 388 232.5 380.5Q220 373 210.5 352Q201 331 195 294.5Q189 258 189 201Q189 166 199 154Q209 142 229 142Q246 142 262.5 151.5Q279 161 293 177Z" glyph-name="acircumflex" horiz-adv-x="532" unicode="&#226;" /><glyph d="M514 800 427 592H248L318 800Z" glyph-name="acute" horiz-adv-x="620" unicode="&#180;" /><glyph d="M501 603H322L343 780H522ZM262 603H83L104 780H283ZM464 152 450 0H292L291 46Q268 20 238.5 4Q209 -12 159 -12Q91 -12 50.5 32.5Q10 77 10 182Q10 281 28 349.5Q46 418 76.5 461Q107 504 146 523Q185 542 227 542Q277 542 302.5 526Q328 510 345 484L357 530H515L492 378ZM315 353Q304 369 290 378.5Q276 388 259 388Q245 388 232.5 380.5Q220 373 210.5 352Q201 331 195 294.5Q189 258 189 201Q189 166 199 154Q209 142 229 142Q246 142 262.5 151.5Q279 161 293 177Z" glyph-name="adieresis" horiz-adv-x="532" unicode="&#228;" /><glyph d="M507 403Q484 403 472.5 384Q461 365 455 317H534Q537 342 537 359Q537 383 530 393Q523 403 507 403ZM229 214Q206 214 190 201Q174 188 174 162Q174 147 181 137.5Q188 128 205 128Q221 128 235 135Q249 142 261 154Q260 160 260 166Q260 172 260 178Q260 186 260.5 195.5Q261 205 262 214ZM443 214Q440 190 440 172Q440 149 447 138Q454 127 473 127Q490 127 502.5 137Q515 147 519 175L687 117Q680 88 666 64.5Q652 41 626.5 24Q601 7 560.5 -2.5Q520 -12 461 -12Q403 -12 364.5 0Q326 12 303 36Q255 6 212.5 -3Q170 -12 145 -12Q105 -12 77 -1.5Q49 9 31 27Q13 45 5 70Q-3 95 -3 124Q-3 229 53 273Q109 317 230 317H276L283 372Q285 386 281 398.5Q277 411 257 411Q240 411 230 398Q220 385 215 348L47 406Q54 438 68.5 463Q83 488 109 505.5Q135 523 175.5 532.5Q216 542 276 542Q324 542 354 532.5Q384 523 401 505Q424 522 455 532Q486 542 526 542Q580 542 617.5 530Q655 518 677.5 494Q700 470 710 434Q720 398 720 350Q720 309 714 263L708 214Z" glyph-name="ae" horiz-adv-x="745" unicode="&#230;" /><glyph d="M299 -16Q240 -16 200.5 -4Q161 8 135 29Q109 50 95.5 79Q82 108 76 141Q54 127 42.5 120.5Q31 114 24 110V254L70 289V498Q70 580 85.5 634.5Q101 689 127.5 721.5Q154 754 190 767Q226 780 267 780Q352 780 387.5 733Q423 686 423 604Q423 544 407.5 493.5Q392 443 367 401Q342 359 311 323.5Q280 288 249 257V195Q249 179 253 169.5Q257 160 264 154.5Q271 149 281 146Q291 143 304 142Q331 139 358 148.5Q385 158 398 166L411 4Q395 -3 368 -9.5Q341 -16 299 -16ZM249 478Q255 487 261.5 500.5Q268 514 274 530.5Q280 547 284 566.5Q288 586 288 606Q288 617 284.5 623.5Q281 630 271 630Q261 630 255 615.5Q249 601 249 566Z" glyph-name="afii61289" horiz-adv-x="461" unicode="&#8467;" /><glyph d="M367 800 385 592H206L171 800ZM464 152 450 0H292L291 46Q268 20 238.5 4Q209 -12 159 -12Q91 -12 50.5 32.5Q10 77 10 182Q10 281 28 349.5Q46 418 76.5 461Q107 504 146 523Q185 542 227 542Q277 542 302.5 526Q328 510 345 484L357 530H515L492 378ZM315 353Q304 369 290 378.5Q276 388 259 388Q245 388 232.5 380.5Q220 373 210.5 352Q201 331 195 294.5Q189 258 189 201Q189 166 199 154Q209 142 229 142Q246 142 262.5 151.5Q279 161 293 177Z" glyph-name="agrave" horiz-adv-x="532" unicode="&#224;" /><glyph d="M192 -21Q252 -25 290 -35Q328 -45 349 -59.5Q370 -74 375.5 -92.5Q381 -111 376 -132Q371 -154 357.5 -170Q344 -186 324.5 -196Q305 -206 281.5 -211Q258 -216 233 -216Q180 -216 149 -207Q118 -198 107 -193L141 -117Q148 -120 156 -124Q163 -127 171 -129.5Q179 -132 189 -134Q209 -137 223.5 -133Q238 -129 240 -113Q242 -99 222 -89Q202 -79 166 -75Z" glyph-name="altcedilla" horiz-adv-x="620" unicode="&#58390;" /><glyph d="M186 780H438L418 616H166ZM464 152 450 0H292L291 46Q268 20 238.5 4Q209 -12 159 -12Q91 -12 50.5 32.5Q10 77 10 182Q10 281 28 349.5Q46 418 76.5 461Q107 504 146 523Q185 542 227 542Q277 542 302.5 526Q328 510 345 484L357 530H515L492 378ZM315 353Q304 369 290 378.5Q276 388 259 388Q245 388 232.5 380.5Q220 373 210.5 352Q201 331 195 294.5Q189 258 189 201Q189 166 199 154Q209 142 229 142Q246 142 262.5 151.5Q279 161 293 177Z" glyph-name="amacron" horiz-adv-x="532" unicode="&#257;" /><glyph d="M286 638Q274 638 265.5 631Q257 624 252 614Q247 604 245 593Q243 582 243 573Q243 556 245.5 542Q248 528 253 517Q284 540 298 560.5Q312 581 312 605Q312 638 286 638ZM234 140Q261 140 290 158Q241 210 191 279Q185 262 181.5 243Q178 224 178 207Q178 140 234 140ZM540 398Q540 380 536.5 357.5Q533 335 526.5 310.5Q520 286 512 260.5Q504 235 495 213Q509 202 522 196L496 -12Q467 8 441 26.5Q415 45 392 64Q351 27 303.5 7.5Q256 -12 199 -12Q148 -12 112 2.5Q76 17 52.5 42.5Q29 68 18.5 101.5Q8 135 8 174Q8 247 34 304Q60 361 112 410Q95 446 87 489.5Q79 533 79 564Q79 679 135 735.5Q191 792 291 792Q340 792 372.5 782Q405 772 424.5 753.5Q444 735 452.5 707.5Q461 680 461 645Q461 605 450.5 573Q440 541 420 512.5Q400 484 371.5 457Q343 430 306 402Q323 376 340.5 353.5Q358 331 377 311Q384 346 388.5 379.5Q393 413 391 450Z" glyph-name="ampersand" horiz-adv-x="563" unicode="&amp;" /><glyph d="M212 350 259 -130H85L33 350L202 830H376Z" glyph-name="anglebracketleft" horiz-adv-x="327" unicode="&#12296;" /><glyph d="M217 390 263 -90H89L38 390L207 870H381Z" glyph-name="anglebracketleft.cap" horiz-adv-x="327" unicode="&#58519;" /><glyph d="M73 830H247L298 350L130 -130H-43L119 350Z" glyph-name="anglebracketright" horiz-adv-x="327" unicode="&#12297;" /><glyph d="M78 870H252L303 390L134 -90H-39L124 390Z" glyph-name="anglebracketright.cap" horiz-adv-x="327" unicode="&#58520;" /><glyph d="M315 353Q304 369 290 378.5Q276 388 259 388Q245 388 232.5 380.5Q220 373 210.5 352Q201 331 195 294.5Q189 258 189 201Q189 166 199 154Q209 142 229 142Q246 142 262.5 151.5Q279 161 293 177ZM464 152 450 0Q425 -2 404.5 -9.5Q384 -17 369 -27.5Q354 -38 346 -50Q338 -62 339 -73Q339 -82 346.5 -90Q354 -98 379 -93Q396 -90 406 -84Q412 -81 417 -77L437 -191Q420 -201 391.5 -208.5Q363 -216 329 -216Q275 -216 244 -195Q213 -174 207 -125Q201 -77 226.5 -39.5Q252 -2 291 24V46Q268 20 238.5 4Q209 -12 159 -12Q91 -12 50.5 32.5Q10 77 10 182Q10 281 28 349.5Q46 418 76.5 461Q107 504 146 523Q185 542 227 542Q277 542 302.5 526Q328 510 345 484L357 530H515L492 378Z" glyph-name="aogonek" horiz-adv-x="532" unicode="&#261;" /><glyph d="M485 183Q452 183 418.5 193.5Q385 204 352.5 216Q320 228 289.5 238.5Q259 249 232 249Q210 249 193.5 244.5Q177 240 165 235Q151 229 140 221L80 340Q95 358 117 373Q136 386 165 396.5Q194 407 235 407Q268 407 301.5 396.5Q335 386 367.5 373.5Q400 361 430.5 350.5Q461 340 488 341Q509 341 526 345.5Q543 350 555 355Q569 361 580 369L640 250Q625 231 603 216Q584 203 554.5 193Q525 183 485 183ZM485 373Q452 373 418.5 383.5Q385 394 352.5 406Q320 418 289.5 428.5Q259 439 232 439Q210 439 193.5 434.5Q177 430 165 425Q151 419 140 411L80 530Q95 548 117 563Q136 576 165 586.5Q194 597 235 597Q268 597 301.5 586.5Q335 576 367.5 563.5Q400 551 430.5 540.5Q461 530 488 531Q509 531 526 535.5Q543 540 555 545Q569 551 580 559L640 440Q625 421 603 406Q584 393 554.5 383Q525 373 485 373Z" glyph-name="approxequal" horiz-adv-x="720" unicode="&#8776;" /><glyph d="M287 576Q235 576 208 603.5Q181 631 181 676Q181 706 190.5 731.5Q200 757 218 775.5Q236 794 261 805Q286 816 317 816Q369 816 396 788.5Q423 761 423 716Q423 686 413.5 660.5Q404 635 386 616.5Q368 598 343 587Q318 576 287 576ZM464 152 450 0H292L291 46Q268 20 238.5 4Q209 -12 159 -12Q91 -12 50.5 32.5Q10 77 10 182Q10 281 28 349.5Q46 418 76.5 461Q107 504 146 523Q185 542 227 542Q277 542 302.5 526Q328 510 345 484L357 530H515L492 378ZM315 353Q304 369 290 378.5Q276 388 259 388Q245 388 232.5 380.5Q220 373 210.5 352Q201 331 195 294.5Q189 258 189 201Q189 166 199 154Q209 142 229 142Q246 142 262.5 151.5Q279 161 293 177ZM299 668Q330 668 330 701Q330 724 305 724Q274 724 274 691Q274 668 299 668Z" glyph-name="aring" horiz-adv-x="532" unicode="&#229;" /><glyph d="M381 -16 100 440H299L359 322L355 487V780H525V487L521 322L581 440H780L499 -16Z" glyph-name="arrowdown" horiz-adv-x="880" unicode="&#8595;" /><glyph d="M34 449 490 730V531L372 471L537 475H830V305H537L372 309L490 249V50L34 331Z" glyph-name="arrowleft" horiz-adv-x="880" unicode="&#8592;" /><glyph d="M846 331 390 50V249L508 309L343 305H50V475H343L508 471L390 531V730L846 449Z" glyph-name="arrowright" horiz-adv-x="880" unicode="&#8594;" /><glyph d="M499 796 780 340H581L521 458L525 293V0H355V293L359 458L299 340H100L381 796Z" glyph-name="arrowup" horiz-adv-x="880" unicode="&#8593;" /><glyph d="M438 796 595 400H407L357 542L337 604L299 542L215 400H27L280 796Z" glyph-name="asciicircum" horiz-adv-x="604" unicode="^" /><glyph d="M362 383Q377 383 389.5 387Q402 391 411.5 396Q421 401 426.5 406.5Q432 412 434 414L495 321Q492 315 479.5 301Q467 287 447 272Q427 257 399 246Q371 235 338 235Q304 235 280.5 243.5Q257 252 238 261.5Q219 271 201 279.5Q183 288 160 288Q145 288 132.5 284Q120 280 110.5 274.5Q101 269 95 264Q89 259 87 257L26 350Q29 356 41.5 370Q54 384 74 399Q94 414 122 425Q150 436 183 436Q217 436 240.5 427.5Q264 419 283.5 409.5Q303 400 321 391.5Q339 383 362 383Z" glyph-name="asciitilde" horiz-adv-x="520" unicode="~" /><glyph d="M295 780 276 698 359 733 379 627 306 612 346 560 247 495 213 569 162 495 79 560 133 612 62 627 110 733 182 698 184 780Z" glyph-name="asterisk" horiz-adv-x="369" unicode="*" /><glyph d="M553 60 552 106Q547 100 536.5 90Q526 80 510.5 71Q495 62 473.5 55Q452 48 424 48Q342 48 302.5 89.5Q263 131 263 223Q263 307 278.5 367.5Q294 428 322.5 466.5Q351 505 392 523.5Q433 542 485 542Q513 542 533 535Q553 528 566.5 519Q580 510 588 500Q596 490 600 484L611 530H765L745 407L721 206Q747 207 765 221.5Q783 236 795.5 257.5Q808 279 815 306.5Q822 334 825.5 362.5Q829 391 830 417.5Q831 444 831 465Q831 512 819 546.5Q807 581 777.5 604Q748 627 698.5 638.5Q649 650 574 650Q476 650 405.5 620.5Q335 591 290 533.5Q245 476 223.5 391.5Q202 307 202 198Q202 128 219.5 79Q237 30 273 -1Q309 -32 365 -46Q421 -60 498 -60Q556 -60 607.5 -54Q659 -48 705.5 -37Q752 -26 795.5 -11Q839 4 882 23L928 -114Q840 -159 728 -185.5Q616 -212 479 -212Q361 -212 276 -184.5Q191 -157 136 -105Q81 -53 55 22Q29 97 29 192Q29 333 65 445.5Q101 558 172 637.5Q243 717 348.5 759.5Q454 802 593 802Q704 802 781.5 777Q859 752 907.5 707.5Q956 663 978 601Q1000 539 1000 464Q1000 385 983.5 312Q967 239 927.5 183Q888 127 823.5 93.5Q759 60 663 60ZM564 350Q556 372 542 380Q528 388 509 388Q481 388 460.5 360Q440 332 440 266Q440 232 452 217Q464 202 486 202Q506 202 521.5 210Q537 218 551 240Z" glyph-name="at" horiz-adv-x="1028" unicode="@" /><glyph d="M564 152 563 198Q558 192 547.5 182Q537 172 521.5 163Q506 154 484.5 147Q463 140 435 140Q353 140 313.5 181.5Q274 223 274 315Q274 399 289.5 459.5Q305 520 333.5 558.5Q362 597 403 615.5Q444 634 496 634Q524 634 544 627Q564 620 577.5 611Q591 602 599 592Q607 582 611 576L622 622H776L756 499L732 298Q758 299 776 313.5Q794 328 806.5 349.5Q819 371 826 398.5Q833 426 836.5 454.5Q840 483 841 509.5Q842 536 842 557Q842 604 830 638.5Q818 673 788.5 696Q759 719 709.5 730.5Q660 742 585 742Q487 742 416.5 712.5Q346 683 301 625.5Q256 568 234.5 483.5Q213 399 213 290Q213 220 230.5 171Q248 122 284 91Q320 60 376 46Q432 32 509 32Q567 32 618.5 38Q670 44 716.5 55Q763 66 806.5 81Q850 96 893 115L939 -22Q851 -67 739 -93.5Q627 -120 490 -120Q372 -120 287 -92.5Q202 -65 147 -13Q92 39 66 114Q40 189 40 284Q40 425 76 537.5Q112 650 183 729.5Q254 809 359.5 851.5Q465 894 604 894Q715 894 792.5 869Q870 844 918.5 799.5Q967 755 989 693Q1011 631 1011 556Q1011 477 994.5 404Q978 331 938.5 275Q899 219 834.5 185.5Q770 152 674 152ZM575 442Q567 464 553 472Q539 480 520 480Q492 480 471.5 452Q451 424 451 358Q451 324 463 309Q475 294 497 294Q517 294 532.5 302Q548 310 562 332Z" glyph-name="at.cap" horiz-adv-x="1028" unicode="&#58643;" /><glyph d="M527 772Q519 730 506.5 694.5Q494 659 475.5 632.5Q457 606 431.5 591Q406 576 372 576Q340 576 319 587.5Q298 599 283 613.5Q268 628 256.5 639.5Q245 651 231 651Q219 651 212.5 643.5Q206 636 203 628Q199 617 199 605L77 620Q84 662 96.5 697.5Q109 733 128 759.5Q147 786 172.5 801Q198 816 232 816Q264 816 284.5 804.5Q305 793 320 778.5Q335 764 346.5 752.5Q358 741 372 741Q383 741 390 748Q397 755 400 764Q404 774 405 787ZM464 152 450 0H292L291 46Q268 20 238.5 4Q209 -12 159 -12Q91 -12 50.5 32.5Q10 77 10 182Q10 281 28 349.5Q46 418 76.5 461Q107 504 146 523Q185 542 227 542Q277 542 302.5 526Q328 510 345 484L357 530H515L492 378ZM315 353Q304 369 290 378.5Q276 388 259 388Q245 388 232.5 380.5Q220 373 210.5 352Q201 331 195 294.5Q189 258 189 201Q189 166 199 154Q209 142 229 142Q246 142 262.5 151.5Q279 161 293 177Z" glyph-name="atilde" horiz-adv-x="532" unicode="&#227;" /><glyph d="M202 177Q213 161 226.5 151.5Q240 142 257 142Q270 142 282.5 149.5Q295 157 305 178Q315 199 321 235.5Q327 272 327 329Q327 364 317 376Q307 388 287 388Q270 388 254 378.5Q238 369 224 353ZM357 542Q425 542 465 497.5Q505 453 505 348Q505 249 487 180.5Q469 112 439 69Q409 26 370 7Q331 -12 289 -12Q240 -12 214 4Q188 20 171 46L160 0H2L24 152L104 800H279L242 497Q259 515 283.5 528.5Q308 542 357 542Z" glyph-name="b" horiz-adv-x="532" unicode="b" /><glyph d="M75 870H254L365 -90H186Z" glyph-name="backslash" horiz-adv-x="426" unicode="\" /><glyph d="M86 800H271L365 -20H180Z" glyph-name="backslash.cap" horiz-adv-x="436" unicode="&#58466;" /><glyph d="M162 178 278 62 365 149 452 62 568 178 481 265 568 352 452 468 365 381 278 468 162 352 249 265ZM100 530H630V0H100Z" glyph-name="ballotboxwithx" horiz-adv-x="730" unicode="&#9746;" /><glyph d="M198 -130H19L136 830H315Z" glyph-name="bar" horiz-adv-x="329" unicode="|" /><glyph d="M211 -20H32L133 800H312Z" glyph-name="bar.cap" horiz-adv-x="329" unicode="&#58467;" /><glyph d="M90 390Q90 473 121.5 546Q153 619 207 673Q261 727 334 758.5Q407 790 490 790Q573 790 646 758.5Q719 727 773 673Q827 619 858.5 546Q890 473 890 390Q890 307 858.5 234Q827 161 773 107Q719 53 646 21.5Q573 -10 490 -10Q407 -10 334 21.5Q261 53 207 107Q153 161 121.5 234Q90 307 90 390Z" glyph-name="blackcircle" horiz-adv-x="980" unicode="&#9679;" /><glyph d="M630 0H100V530H630Z" glyph-name="blacksmallsquare" horiz-adv-x="730" unicode="&#9642;" /><glyph d="M880 0H100V780H880Z" glyph-name="blacksquare" horiz-adv-x="980" unicode="&#9632;" /><glyph d="M289 -130H248Q180 -130 140 -111.5Q100 -93 80.5 -64Q61 -35 57 0.5Q53 36 57 71L76 222Q79 249 65 260.5Q51 272 26 272H2L21 429H45Q70 429 87 440.5Q104 452 107 479L126 629Q130 664 142.5 699.5Q155 735 182 764Q209 793 253 811.5Q297 830 365 830H406L387 670H363Q338 670 320.5 659Q303 648 300 620L280 462Q275 424 254.5 394Q234 364 196 350Q230 336 244 306.5Q258 277 253 239L233 80Q230 52 244.5 41Q259 30 284 30H308Z" glyph-name="braceleft" horiz-adv-x="357" unicode="{" /><glyph d="M293 -90H252Q184 -90 144.5 -71.5Q105 -53 85 -24Q65 5 61.5 40.5Q58 76 62 111L81 262Q84 289 70 300.5Q56 312 31 312H7L26 469H50Q75 469 92 480.5Q109 492 112 519L131 669Q135 704 147.5 739.5Q160 775 187 804Q214 833 258 851.5Q302 870 370 870H411L392 710H368Q343 710 325.5 699Q308 688 305 660L285 502Q280 464 259.5 434Q239 404 201 390Q235 376 249 346.5Q263 317 258 279L238 120Q235 92 249.5 81Q264 70 289 70H313Z" glyph-name="braceleft.cap" horiz-adv-x="357" unicode="&#58517;" /><glyph d="M53 670 72 830H114Q181 830 221 811.5Q261 793 281 764Q301 735 305 699.5Q309 664 305 629L286 478Q283 451 297 439.5Q311 428 335 428H359L340 271H316Q292 271 275 259.5Q258 248 255 221L236 71Q232 36 219.5 0.5Q207 -35 180 -64Q153 -93 108.5 -111.5Q64 -130 -3 -130H-44L-26 30H-1Q24 30 41 41Q58 52 61 80L81 238Q86 276 107 306Q128 336 165 350Q132 364 117.5 393.5Q103 423 108 461L128 620Q131 648 117 659Q103 670 78 670Z" glyph-name="braceright" horiz-adv-x="357" unicode="}" /><glyph d="M58 710 77 870H119Q186 870 226 851.5Q266 833 286 804Q306 775 310 739.5Q314 704 310 669L291 518Q288 491 302 479.5Q316 468 340 468H364L345 311H321Q297 311 280 299.5Q263 288 260 261L241 111Q237 76 224 40.5Q211 5 184 -24Q157 -53 112.5 -71.5Q68 -90 1 -90H-40L-21 70H4Q29 70 46 81Q63 92 66 120L86 278Q91 316 112 346Q133 376 170 390Q137 404 122.5 433.5Q108 463 113 501L133 660Q136 688 122 699Q108 710 83 710Z" glyph-name="braceright.cap" horiz-adv-x="357" unicode="&#58518;" /><glyph d="M285 670 206 30H262L243 -130H8L125 830H360L341 670Z" glyph-name="bracketleft" horiz-adv-x="328" unicode="[" /><glyph d="M290 710 211 70H267L247 -90H12L130 870H365L346 710Z" glyph-name="bracketleft.cap" horiz-adv-x="327" unicode="&#58515;" /><glyph d="M48 30 127 670H71L90 830H325L208 -130H-27L-8 30Z" glyph-name="bracketright" horiz-adv-x="328" unicode="]" /><glyph d="M53 70 132 710H76L95 870H330L212 -90H-23L-3 70Z" glyph-name="bracketright.cap" horiz-adv-x="328" unicode="&#58516;" /><glyph d="M340 576Q288 576 256 591Q224 606 208 634.5Q192 663 189.5 704.5Q187 746 195 800H325Q320 766 327.5 747Q335 728 359 728Q383 728 395 747Q407 766 411 800H541Q535 746 522 704.5Q509 663 486 634.5Q463 606 427.5 591Q392 576 340 576Z" glyph-name="breve" horiz-adv-x="620" unicode="&#728;" /><glyph d="M277 405H92L144 830H329ZM212 -130H27L79 295H264Z" glyph-name="brokenbar" horiz-adv-x="351" unicode="&#166;" /><glyph d="M282 445H97L141 800H326ZM225 -20H40L84 335H269Z" glyph-name="brokenbar.cap" horiz-adv-x="351" unicode="&#58469;" /><glyph d="M384 166H46L87 504H425Z" glyph-name="bullet" horiz-adv-x="470" unicode="&#8226;" /><glyph d="M391 221H53L94 559H432Z" glyph-name="bullet.cap" horiz-adv-x="470" unicode="&#58470;" /><glyph d="M167 339Q167 282 188.5 232.5Q210 183 246.5 146.5Q283 110 332.5 88.5Q382 67 439 67Q496 67 545.5 88.5Q595 110 632 146.5Q669 183 690.5 232.5Q712 282 712 339Q712 396 690.5 445.5Q669 495 632 532Q595 569 545.5 590.5Q496 612 439 612Q382 612 332.5 590.5Q283 569 246.5 532Q210 495 188.5 445.5Q167 396 167 339ZM340 390Q340 421 352 448.5Q364 476 384 496Q404 516 431.5 528Q459 540 490 540Q521 540 548.5 528Q576 516 596 496Q616 476 628 448.5Q640 421 640 390Q640 359 628 331.5Q616 304 596 284Q576 264 548.5 252Q521 240 490 240Q459 240 431.5 252Q404 264 384 284Q364 304 352 331.5Q340 359 340 390ZM90 390Q90 473 121.5 546Q153 619 207 673Q261 727 334 758.5Q407 790 490 790Q573 790 646 758.5Q719 727 773 673Q827 619 858.5 546Q890 473 890 390Q890 307 858.5 234Q827 161 773 107Q719 53 646 21.5Q573 -10 490 -10Q407 -10 334 21.5Q261 53 207 107Q153 161 121.5 234Q90 307 90 390Z" glyph-name="bullseye" horiz-adv-x="980" unicode="&#9678;" /><glyph d="M254 390Q228 390 214 367.5Q200 345 193 314.5Q186 284 184.5 251.5Q183 219 183 200Q183 164 193 152Q203 140 224 140Q247 140 257 160.5Q267 181 272 216L431 161Q424 120 410 88Q396 56 370.5 33.5Q345 11 305 -0.5Q265 -12 205 -12Q153 -12 116 -2Q79 8 55.5 30.5Q32 53 21 89Q10 125 10 177Q10 250 21 316.5Q32 383 61.5 433Q91 483 142 512.5Q193 542 273 542Q319 542 354.5 534Q390 526 413.5 506.5Q437 487 448 454.5Q459 422 457 373L284 314Q285 323 286 336Q287 349 285 361Q283 373 276 381.5Q269 390 254 390Z" glyph-name="c" horiz-adv-x="476" unicode="c" /><glyph d="M254 390Q228 390 214 367.5Q200 345 193 314.5Q186 284 184.5 251.5Q183 219 183 200Q183 164 193 152Q203 140 224 140Q247 140 257 160.5Q267 181 272 216L431 161Q424 120 410 88Q396 56 370.5 33.5Q345 11 305 -0.5Q265 -12 205 -12Q153 -12 116 -2Q79 8 55.5 30.5Q32 53 21 89Q10 125 10 177Q10 250 21 316.5Q32 383 61.5 433Q91 483 142 512.5Q193 542 273 542Q319 542 354.5 534Q390 526 413.5 506.5Q437 487 448 454.5Q459 422 457 373L284 314Q285 323 286 336Q287 349 285 361Q283 373 276 381.5Q269 390 254 390ZM444 800 357 592H178L248 800Z" glyph-name="cacute" horiz-adv-x="476" unicode="&#263;" /><glyph d="M554 800 440 592H244L182 800H325L357 716L411 800Z" glyph-name="caron" horiz-adv-x="620" unicode="&#711;" /><glyph d="M503 800 439 560H368L403 800Z" glyph-name="caronSlovak" horiz-adv-x="620" unicode="&#58387;" /><glyph d="M254 390Q228 390 214 367.5Q200 345 193 314.5Q186 284 184.5 251.5Q183 219 183 200Q183 164 193 152Q203 140 224 140Q247 140 257 160.5Q267 181 272 216L431 161Q424 120 410 88Q396 56 370.5 33.5Q345 11 305 -0.5Q265 -12 205 -12Q153 -12 116 -2Q79 8 55.5 30.5Q32 53 21 89Q10 125 10 177Q10 250 21 316.5Q32 383 61.5 433Q91 483 142 512.5Q193 542 273 542Q319 542 354.5 534Q390 526 413.5 506.5Q437 487 448 454.5Q459 422 457 373L284 314Q285 323 286 336Q287 349 285 361Q283 373 276 381.5Q269 390 254 390ZM484 800 370 592H174L112 800H255L287 716L341 800Z" glyph-name="ccaron" horiz-adv-x="476" unicode="&#269;" /><glyph d="M254 390Q228 390 214 367.5Q200 345 193 314.5Q186 284 184.5 251.5Q183 219 183 200Q183 164 193 152Q203 140 224 140Q247 140 257 160.5Q267 181 272 216L431 161Q424 123 412 92.5Q400 62 377.5 40Q355 18 321 5Q287 -8 237 -11L228 -33Q253 -38 272.5 -46.5Q292 -55 304.5 -67Q317 -79 321.5 -95Q326 -111 321 -132Q316 -154 302.5 -170Q289 -186 269.5 -196Q250 -206 226.5 -211Q203 -216 178 -216Q125 -216 94 -207Q63 -198 52 -193L86 -117Q93 -120 101 -124Q108 -127 116 -129.5Q124 -132 134 -134Q154 -137 168.5 -133Q183 -129 185 -113Q187 -99 167 -89Q147 -79 111 -75L143 -7Q73 4 41.5 47Q10 90 10 177Q10 250 21 316.5Q32 383 61.5 433Q91 483 142 512.5Q193 542 273 542Q319 542 354.5 534Q390 526 413.5 506.5Q437 487 448 454.5Q459 422 457 373L284 314Q285 323 286 336Q287 349 285 361Q283 373 276 381.5Q269 390 254 390Z" glyph-name="ccedilla" horiz-adv-x="476" unicode="&#231;" /><glyph d="M254 390Q228 390 214 367.5Q200 345 193 314.5Q186 284 184.5 251.5Q183 219 183 200Q183 164 193 152Q203 140 224 140Q247 140 257 160.5Q267 181 272 216L431 161Q424 120 410 88Q396 56 370.5 33.5Q345 11 305 -0.5Q265 -12 205 -12Q153 -12 116 -2Q79 8 55.5 30.5Q32 53 21 89Q10 125 10 177Q10 250 21 316.5Q32 383 61.5 433Q91 483 142 512.5Q193 542 273 542Q319 542 354.5 534Q390 526 413.5 506.5Q437 487 448 454.5Q459 422 457 373L284 314Q285 323 286 336Q287 349 285 361Q283 373 276 381.5Q269 390 254 390ZM86 592 200 800H396L458 592H315L283 676L229 592Z" glyph-name="ccircumflex" horiz-adv-x="476" unicode="&#265;" /><glyph d="M254 390Q228 390 214 367.5Q200 345 193 314.5Q186 284 184.5 251.5Q183 219 183 200Q183 164 193 152Q203 140 224 140Q247 140 257 160.5Q267 181 272 216L431 161Q424 120 410 88Q396 56 370.5 33.5Q345 11 305 -0.5Q265 -12 205 -12Q153 -12 116 -2Q79 8 55.5 30.5Q32 53 21 89Q10 125 10 177Q10 250 21 316.5Q32 383 61.5 433Q91 483 142 512.5Q193 542 273 542Q319 542 354.5 534Q390 526 413.5 506.5Q437 487 448 454.5Q459 422 457 373L284 314Q285 323 286 336Q287 349 285 361Q283 373 276 381.5Q269 390 254 390ZM365 598H181L203 780H387Z" glyph-name="cdotaccent" horiz-adv-x="476" unicode="&#267;" /><glyph d="M301 12 283 -33Q308 -38 327.5 -46.5Q347 -55 359.5 -67Q372 -79 376.5 -95Q381 -111 376 -132Q371 -154 357.5 -170Q344 -186 324.5 -196Q305 -206 281.5 -211Q258 -216 233 -216Q180 -216 149 -207Q118 -198 107 -193L141 -117Q148 -120 156 -124Q163 -127 171 -129.5Q179 -132 189 -134Q209 -137 223.5 -133Q238 -129 240 -113Q242 -99 222 -89Q202 -79 166 -75L207 12Z" glyph-name="cedilla" horiz-adv-x="620" unicode="&#184;" /><glyph d="M269 511Q243 511 229 487.5Q215 464 207.5 432Q200 400 198.5 367.5Q197 335 197 316Q197 280 207 266.5Q217 253 238 253Q263 253 271.5 267.5Q280 282 283 308L442 252Q435 219 422.5 192.5Q410 166 388 146.5Q366 127 332 115.5Q298 104 248 101L206 0H53L103 121Q61 141 42.5 183Q24 225 24 294Q24 355 32.5 417.5Q41 480 66 531.5Q91 583 137.5 618.5Q184 654 260 662L302 764H454L404 646Q442 629 458 596Q474 563 474 515L301 456Q302 466 302 475.5Q302 485 299.5 493Q297 501 290 506Q283 511 269 511Z" glyph-name="cent" horiz-adv-x="476" unicode="&#162;" /><glyph d="M90 265Q90 322 111.5 372Q133 422 170.5 459.5Q208 497 258 518.5Q308 540 365 540Q422 540 472 518.5Q522 497 559.5 459.5Q597 422 618.5 372Q640 322 640 265Q640 208 618.5 158Q597 108 559.5 70.5Q522 33 472 11.5Q422 -10 365 -10Q308 -10 258 11.5Q208 33 170.5 70.5Q133 108 111.5 158Q90 208 90 265Z" glyph-name="circle" horiz-adv-x="730" /><glyph d="M156 592 270 800H466L528 592H385L353 676L299 592Z" glyph-name="circumflex" horiz-adv-x="620" unicode="&#710;" /><glyph d="M359 0Q378 37 391.5 73Q405 109 414.5 147Q424 185 430.5 227Q437 269 441 320L438 321Q425 290 406 261Q387 232 362 209.5Q337 187 306 173.5Q275 160 238 160Q201 160 169 173.5Q137 187 113 210.5Q89 234 75.5 265.5Q62 297 62 334Q62 373 74.5 406Q87 439 110 463Q133 487 165 500.5Q197 514 236 514Q262 514 282.5 507Q303 500 320 491L322 493Q305 518 294.5 547.5Q284 577 284 610Q284 647 297.5 680Q311 713 334.5 737.5Q358 762 390 776Q422 790 460 790Q498 790 530 776Q562 762 585.5 737.5Q609 713 622.5 680Q636 647 636 610Q636 577 625.5 547.5Q615 518 598 493L600 491Q617 500 637.5 507Q658 514 684 514Q723 514 755 500.5Q787 487 810 463Q833 439 845.5 406Q858 373 858 334Q858 297 844.5 265.5Q831 234 807 210.5Q783 187 751 173.5Q719 160 682 160Q645 160 614 173.5Q583 187 558 209.5Q533 232 514 261Q495 290 482 321L479 320Q483 269 489.5 227Q496 185 505.5 147Q515 109 528.5 73Q542 37 561 0Z" glyph-name="club" horiz-adv-x="920" unicode="&#9827;" /><glyph d="M221 319H42L63 495H242ZM182 0H3L24 177H203Z" glyph-name="colon" horiz-adv-x="265" unicode=":" /><glyph d="M218 319H39L60 495H239ZM179 0H0L21 177H200Z" glyph-name="colon.T" horiz-adv-x="260" /><glyph d="M210 177 102 -109H-32L24 177Z" glyph-name="comma" horiz-adv-x="265" unicode="," /><glyph d="M207 177 99 -109H-35L21 177Z" glyph-name="comma.T" horiz-adv-x="260" /><glyph d="M361 -40 304 -200H141L176 -40Z" glyph-name="commaaccent" horiz-adv-x="620" unicode="&#58388;" /><glyph d="M418 -16Q340 -16 274 11.5Q208 39 160 87Q112 135 85 200Q58 265 58 340Q58 432 96 515Q134 598 197 660.5Q260 723 343 759.5Q426 796 516 796Q594 796 660 768.5Q726 741 774 693Q822 645 849 580Q876 515 876 440Q876 348 838 265Q800 182 737 119.5Q674 57 591 20.5Q508 -16 418 -16ZM736 521Q733 553 719 580.5Q705 608 677.5 628Q650 648 606.5 659.5Q563 671 502 671Q440 671 384 649Q328 627 286 585Q244 543 219 482Q194 421 194 343Q194 286 211.5 242.5Q229 199 260.5 169.5Q292 140 336 124.5Q380 109 433 109Q495 109 541.5 120.5Q588 132 621 153Q654 174 675 202Q696 230 706 263L535 322Q533 310 529 300Q525 290 516.5 283.5Q508 277 493 273.5Q478 270 453 270Q414 270 395.5 289.5Q377 309 377 355Q377 439 405 474.5Q433 510 482 510Q494 510 506.5 509Q519 508 529 502.5Q539 497 545.5 486.5Q552 476 552 458Z" glyph-name="copyright" horiz-adv-x="920" unicode="&#169;" /><glyph d="M259 678Q238 678 226 663.5Q214 649 207.5 628.5Q201 608 199.5 585.5Q198 563 198 546Q198 512 208.5 502Q219 492 236 492Q259 492 267.5 507Q276 522 279 548L413 501Q407 473 396 450Q385 427 363.5 410Q342 393 309 383.5Q276 374 227 374Q138 374 96.5 409Q55 444 55 527Q55 602 69.5 653Q84 704 112 736Q140 768 182 782Q224 796 279 796Q328 796 358.5 787Q389 778 405.5 761.5Q422 745 427.5 722.5Q433 700 433 673L288 624Q289 633 289.5 642.5Q290 652 287.5 660Q285 668 278.5 673Q272 678 259 678Z" glyph-name="cordinal" horiz-adv-x="425" unicode="&#57729;" /><glyph d="M133 229Q99 295 99 382Q99 469 133 535L29 639L145 755L252 648Q321 680 410 680Q499 680 568 648L675 755L791 639L687 535Q721 470 721 382Q721 294 687 229L791 125L675 9L568 116Q499 84 410 84Q321 84 252 116L145 9L29 125ZM410 247Q471 247 504 277.5Q537 308 537 382Q537 456 504 486.5Q471 517 410 517Q349 517 316 486.5Q283 456 283 382Q283 308 316 277.5Q349 247 410 247Z" glyph-name="currency" horiz-adv-x="820" unicode="&#164;" /><glyph d="M315 353Q304 369 290 378.5Q276 388 260 388Q246 388 233.5 380.5Q221 373 211 352Q201 331 195 295Q189 259 189 202Q189 167 199 154.5Q209 142 230 142Q246 142 262.5 151.5Q279 161 293 177ZM228 542Q252 542 269 538.5Q286 535 298 528.5Q310 522 318 514Q326 506 333 497L370 800H544L464 152L450 0H292L291 46Q268 20 238.5 4Q209 -12 160 -12Q91 -12 50.5 32.5Q10 77 10 182Q10 281 28 349.5Q46 418 76 461Q106 504 145.5 523Q185 542 228 542Z" glyph-name="d" horiz-adv-x="532" unicode="d" /><glyph d="M287 780 265 678 372 688 358 576 253 586 249 390H116L160 586L53 576L67 688L172 678L174 780Z" glyph-name="dagger" horiz-adv-x="351" unicode="&#8224;" /><glyph d="M287 780 265 678 372 688 358 576 252 586V552L244 517L352 527L338 415L234 425L230 229H97L141 425L33 415L47 527L152 517V552L160 586L53 576L67 688L172 678L174 780Z" glyph-name="daggerdbl" horiz-adv-x="351" unicode="&#8225;" /><glyph d="M315 353Q304 369 290 378.5Q276 388 260 388Q246 388 233.5 380.5Q221 373 211 352Q201 331 195 295Q189 259 189 202Q189 167 199 154.5Q209 142 230 142Q246 142 262.5 151.5Q279 161 293 177ZM228 542Q252 542 269 538.5Q286 535 298 528.5Q310 522 318 514Q326 506 333 497L370 800H544L464 152L450 0H292L291 46Q268 20 238.5 4Q209 -12 160 -12Q91 -12 50.5 32.5Q10 77 10 182Q10 281 28 349.5Q46 418 76 461Q106 504 145.5 523Q185 542 228 542ZM679 800 615 560H544L579 800Z" glyph-name="dcaron" horiz-adv-x="532" unicode="&#271;" /><glyph d="M315 353Q304 369 290 378.5Q276 388 260 388Q246 388 233.5 380.5Q221 373 211 352Q201 331 195 295Q189 259 189 202Q189 167 199 154.5Q209 142 230 142Q246 142 262.5 151.5Q279 161 293 177ZM582 620H522L464 152L450 0H292L291 46Q268 20 238.5 4Q209 -12 160 -12Q91 -12 50.5 32.5Q10 77 10 182Q10 281 28 349.5Q46 418 76 461Q106 504 145.5 523Q185 542 228 542Q252 542 269 538.5Q286 535 298 528.5Q310 522 318 514Q326 506 333 497L348 620H247L259 723H360L370 800H544L534 723H594Z" glyph-name="dcroat" horiz-adv-x="532" unicode="&#273;" /><glyph d="M246 408Q204 408 168 419.5Q132 431 106 454Q80 477 65 512Q50 547 50 594Q50 641 65 676Q80 711 106 734Q132 757 168 768.5Q204 780 246 780Q288 780 324 768.5Q360 757 386 734Q412 711 427 676Q442 641 442 594Q442 547 427 512Q412 477 386 454Q360 431 324 419.5Q288 408 246 408ZM246 536Q274 536 290.5 550Q307 564 307 594Q307 626 290.5 639.5Q274 653 246 653Q219 653 202 639.5Q185 626 185 594Q185 564 202 550Q219 536 246 536Z" glyph-name="degree" horiz-adv-x="492" unicode="&#176;" /><glyph d="M827 390Q774 348 722.5 300.5Q671 253 624 201.5Q577 150 535.5 96.5Q494 43 461 -10H459Q426 43 384.5 96.5Q343 150 296 201.5Q249 253 197.5 300.5Q146 348 93 390Q146 432 197.5 479.5Q249 527 296 578.5Q343 630 384.5 683.5Q426 737 459 790H461Q494 737 535.5 683.5Q577 630 624 578.5Q671 527 722.5 479.5Q774 432 827 390Z" glyph-name="diamond" horiz-adv-x="920" unicode="&#9830;" /><glyph d="M553 603H374L395 780H574ZM314 603H135L156 780H335Z" glyph-name="dieresis" horiz-adv-x="620" unicode="&#168;" /><glyph d="M451 507H269V690H451ZM451 90H269V273H451ZM90 308V472H630V308Z" glyph-name="divide" horiz-adv-x="720" unicode="&#247;" /><glyph d="M50 308V472H830V308ZM531 597H349V780H531ZM531 0H349V183H531Z" glyph-name="divide.cap" horiz-adv-x="880" unicode="&#58772;" /><glyph d="M215 252Q244 252 261 260Q278 268 278 291Q278 306 264.5 313.5Q251 321 216 324Q184 327 155 332Q126 337 104 350.5Q82 364 69 388.5Q56 413 56 453Q56 514 73.5 554Q91 594 121 618Q151 642 191 652Q231 662 275 663L316 764H468L422 654Q448 648 461 642.5Q474 637 489 629L430 478Q401 498 369 506.5Q337 515 296 515Q237 515 237 478Q237 464 253 458.5Q269 453 292.5 449.5Q316 446 343.5 441Q371 436 394.5 422.5Q418 409 434 384.5Q450 360 450 317Q450 255 433 214Q416 173 385.5 148Q355 123 313 112.5Q271 102 222 101L181 0H28L77 115Q25 129 -3 148L61 299Q104 273 141.5 262.5Q179 252 215 252Z" glyph-name="dollar" horiz-adv-x="467" unicode="$" /><glyph d="M435 598H251L273 780H457Z" glyph-name="dotaccent" horiz-adv-x="620" unicode="&#729;" /><glyph d="M337 -200H153L173 -40H357Z" glyph-name="dotbelow" horiz-adv-x="620" unicode="&#58389;" /><glyph d="M71 530H245L180 0H6Z" glyph-name="dotlessi" horiz-adv-x="266" unicode="&#305;" /><glyph d="M174 -45Q163 -128 115 -172Q67 -216 -27 -216Q-68 -216 -88 -212Q-108 -208 -121 -203L-96 -59Q-75 -67 -45 -67Q-25 -67 -12.5 -57.5Q0 -48 3 -24L71 530H245Z" glyph-name="dotlessj" horiz-adv-x="266" unicode="&#567;" /><glyph d="M467 -130H282L399 830H584ZM212 -130H27L144 830H329Z" glyph-name="doublebar" horiz-adv-x="606" unicode="&#8214;" /><glyph d="M480 -20H295L396 800H581ZM225 -20H40L141 800H326Z" glyph-name="doublebar.cap" horiz-adv-x="606" unicode="&#58468;" /><glyph d="M294 800 322 592H143L98 800ZM510 800 538 592H359L314 800Z" glyph-name="doublegrave" horiz-adv-x="620" unicode="&#58386;" /><glyph d="M256 403Q233 403 221.5 384Q210 365 204 317H283Q286 342 286 359Q286 383 279 393Q272 403 256 403ZM192 214Q189 190 189 172Q189 149 196 138Q203 127 222 127Q239 127 251.5 137Q264 147 268 175L436 117Q429 88 415 64.5Q401 41 375.5 24Q350 7 309.5 -2.5Q269 -12 210 -12Q153 -12 114.5 0Q76 12 53 35.5Q30 59 20 94Q10 129 10 176Q10 240 20.5 305.5Q31 371 60 423.5Q89 476 140.5 509Q192 542 275 542Q329 542 366.5 530Q404 518 426.5 494Q449 470 459 434Q469 398 469 350Q469 309 463 263L457 214Z" glyph-name="e" horiz-adv-x="494" unicode="e" /><glyph d="M256 403Q233 403 221.5 384Q210 365 204 317H283Q286 342 286 359Q286 383 279 393Q272 403 256 403ZM192 214Q189 190 189 172Q189 149 196 138Q203 127 222 127Q239 127 251.5 137Q264 147 268 175L436 117Q429 88 415 64.5Q401 41 375.5 24Q350 7 309.5 -2.5Q269 -12 210 -12Q153 -12 114.5 0Q76 12 53 35.5Q30 59 20 94Q10 129 10 176Q10 240 20.5 305.5Q31 371 60 423.5Q89 476 140.5 509Q192 542 275 542Q329 542 366.5 530Q404 518 426.5 494Q449 470 459 434Q469 398 469 350Q469 309 463 263L457 214ZM453 800 366 592H187L257 800Z" glyph-name="eacute" horiz-adv-x="494" unicode="&#233;" /><glyph d="M256 403Q233 403 221.5 384Q210 365 204 317H283Q286 342 286 359Q286 383 279 393Q272 403 256 403ZM192 214Q189 190 189 172Q189 149 196 138Q203 127 222 127Q239 127 251.5 137Q264 147 268 175L436 117Q429 88 415 64.5Q401 41 375.5 24Q350 7 309.5 -2.5Q269 -12 210 -12Q153 -12 114.5 0Q76 12 53 35.5Q30 59 20 94Q10 129 10 176Q10 240 20.5 305.5Q31 371 60 423.5Q89 476 140.5 509Q192 542 275 542Q329 542 366.5 530Q404 518 426.5 494Q449 470 459 434Q469 398 469 350Q469 309 463 263L457 214ZM279 576Q227 576 195 591Q163 606 147 634.5Q131 663 128.5 704.5Q126 746 134 800H264Q259 766 266.5 747Q274 728 298 728Q322 728 334 747Q346 766 350 800H480Q474 746 461 704.5Q448 663 425 634.5Q402 606 366.5 591Q331 576 279 576Z" glyph-name="ebreve" horiz-adv-x="494" unicode="&#277;" /><glyph d="M493 800 379 592H183L121 800H264L296 716L350 800ZM256 403Q233 403 221.5 384Q210 365 204 317H283Q289 365 283.5 384Q278 403 256 403ZM192 214Q187 171 191.5 149Q196 127 222 127Q239 127 251.5 137Q264 147 268 175L442 154Q438 118 427 87.5Q416 57 390.5 35Q365 13 322 0.5Q279 -12 210 -12Q141 -12 98.5 5.5Q56 23 35 58Q14 93 11 144.5Q8 196 16 265Q25 334 41.5 385.5Q58 437 88 472Q118 507 163.5 524.5Q209 542 275 542Q341 542 381.5 524.5Q422 507 443 471.5Q464 436 467.5 384Q471 332 463 263L457 214Z" glyph-name="ecaron" horiz-adv-x="494" unicode="&#283;" /><glyph d="M256 403Q233 403 221.5 384Q210 365 204 317H283Q286 342 286 359Q286 383 279 393Q272 403 256 403ZM192 214Q189 190 189 172Q189 149 196 138Q203 127 222 127Q239 127 251.5 137Q264 147 268 175L436 117Q429 88 415 64.5Q401 41 375.5 24Q350 7 309.5 -2.5Q269 -12 210 -12Q153 -12 114.5 0Q76 12 53 35.5Q30 59 20 94Q10 129 10 176Q10 240 20.5 305.5Q31 371 60 423.5Q89 476 140.5 509Q192 542 275 542Q329 542 366.5 530Q404 518 426.5 494Q449 470 459 434Q469 398 469 350Q469 309 463 263L457 214ZM95 592 209 800H405L467 592H324L292 676L238 592Z" glyph-name="ecircumflex" horiz-adv-x="494" unicode="&#234;" /><glyph d="M256 403Q233 403 221.5 384Q210 365 204 317H283Q286 342 286 359Q286 383 279 393Q272 403 256 403ZM192 214Q189 190 189 172Q189 149 196 138Q203 127 222 127Q239 127 251.5 137Q264 147 268 175L436 117Q429 88 415 64.5Q401 41 375.5 24Q350 7 309.5 -2.5Q269 -12 210 -12Q153 -12 114.5 0Q76 12 53 35.5Q30 59 20 94Q10 129 10 176Q10 240 20.5 305.5Q31 371 60 423.5Q89 476 140.5 509Q192 542 275 542Q329 542 366.5 530Q404 518 426.5 494Q449 470 459 434Q469 398 469 350Q469 309 463 263L457 214ZM492 603H313L334 780H513ZM253 603H74L95 780H274Z" glyph-name="edieresis" horiz-adv-x="494" unicode="&#235;" /><glyph d="M256 403Q233 403 221.5 384Q210 365 204 317H283Q286 342 286 359Q286 383 279 393Q272 403 256 403ZM192 214Q189 190 189 172Q189 149 196 138Q203 127 222 127Q239 127 251.5 137Q264 147 268 175L436 117Q429 88 415 64.5Q401 41 375.5 24Q350 7 309.5 -2.5Q269 -12 210 -12Q153 -12 114.5 0Q76 12 53 35.5Q30 59 20 94Q10 129 10 176Q10 240 20.5 305.5Q31 371 60 423.5Q89 476 140.5 509Q192 542 275 542Q329 542 366.5 530Q404 518 426.5 494Q449 470 459 434Q469 398 469 350Q469 309 463 263L457 214ZM374 598H190L212 780H396Z" glyph-name="edotaccent" horiz-adv-x="494" unicode="&#279;" /><glyph d="M256 403Q233 403 221.5 384Q210 365 204 317H283Q286 342 286 359Q286 383 279 393Q272 403 256 403ZM192 214Q189 190 189 172Q189 149 196 138Q203 127 222 127Q239 127 251.5 137Q264 147 268 175L436 117Q429 88 415 64.5Q401 41 375.5 24Q350 7 309.5 -2.5Q269 -12 210 -12Q153 -12 114.5 0Q76 12 53 35.5Q30 59 20 94Q10 129 10 176Q10 240 20.5 305.5Q31 371 60 423.5Q89 476 140.5 509Q192 542 275 542Q329 542 366.5 530Q404 518 426.5 494Q449 470 459 434Q469 398 469 350Q469 309 463 263L457 214ZM357 800 375 592H196L161 800Z" glyph-name="egrave" horiz-adv-x="494" unicode="&#232;" /><glyph d="M218 -12Q158 -12 117.5 0Q77 12 52.5 33.5Q28 55 17.5 86Q7 117 7 155Q7 210 16.5 251Q26 292 41 321.5Q56 351 75.5 370Q95 389 116 398Q91 410 78.5 443.5Q66 477 66 522Q66 582 79.5 629.5Q93 677 122.5 709.5Q152 742 199.5 759Q247 776 315 776Q421 776 467 737.5Q513 699 513 614Q513 576 506.5 540.5Q500 505 488 476.5Q476 448 459 427.5Q442 407 420 398Q449 384 465.5 348.5Q482 313 482 256Q482 194 470 144.5Q458 95 428 60.5Q398 26 347 7Q296 -12 218 -12ZM259 320Q244 320 230.5 316.5Q217 313 206.5 301Q196 289 190 266.5Q184 244 184 205Q184 176 195.5 161Q207 146 237 146Q278 146 295 173Q312 200 312 260Q312 296 298 308Q284 320 259 320ZM295 617Q270 617 254.5 596.5Q239 576 239 517Q239 464 276 464Q301 464 317 488Q333 512 333 567Q333 617 295 617Z" glyph-name="eight" horiz-adv-x="520" unicode="8" /><glyph d="M218 -12Q158 -12 117.5 -0.5Q77 11 52.5 32Q28 53 17.5 83Q7 113 7 151Q7 206 16.5 248Q26 290 41 320Q56 350 75.5 369.5Q95 389 116 398Q91 410 78.5 441.5Q66 473 66 518Q66 578 79.5 626Q93 674 122.5 707.5Q152 741 199.5 758.5Q247 776 315 776Q421 776 467 739.5Q513 703 513 618Q513 580 506.5 544Q500 508 488 478.5Q476 449 459 428Q442 407 420 398Q449 384 465.5 350.5Q482 317 482 260Q482 198 470 148Q458 98 428 62.5Q398 27 347 7.5Q296 -12 218 -12ZM259 320Q244 320 230.5 316Q217 312 206.5 299.5Q196 287 190 264Q184 241 184 202Q184 173 195.5 159.5Q207 146 237 146Q278 146 295 174.5Q312 203 312 263Q312 299 298 309.5Q284 320 259 320ZM295 617Q270 617 254.5 595Q239 573 239 514Q239 464 276 464Q301 464 317 489.5Q333 515 333 570Q333 596 324 606.5Q315 617 295 617Z" glyph-name="eight.LP" horiz-adv-x="520" unicode="&#58685;" /><glyph d="M116 -206Q74 -206 47 -199.5Q20 -193 3.5 -180.5Q-13 -168 -19.5 -150.5Q-26 -133 -26 -111Q-26 -56 -7.5 -25.5Q11 5 38 16Q21 23 14 42.5Q7 62 7 86Q7 161 45.5 190.5Q84 220 169 220Q240 220 271 198Q302 176 302 128Q302 90 288.5 58Q275 26 246 16Q287 -1 287 -65Q287 -98 279.5 -124Q272 -150 252.5 -168.5Q233 -187 200 -196.5Q167 -206 116 -206ZM138 -29Q120 -29 108.5 -39Q97 -49 97 -88Q97 -102 103.5 -109Q110 -116 127 -116Q150 -116 158.5 -101.5Q167 -87 167 -58Q167 -39 159.5 -34Q152 -29 138 -29ZM157 129Q144 129 136 119.5Q128 110 128 81Q128 53 148 53Q176 53 176 106Q176 129 157 129Z" glyph-name="eight.inf" horiz-adv-x="362" unicode="&#58745;" /><glyph d="M889 0H710L731 177H910ZM559 0H381L402 177H580ZM230 0H51L72 177H251Z" glyph-name="ellipsis" horiz-adv-x="1020" unicode="&#8230;" /><glyph d="M256 403Q233 403 221.5 384Q210 365 204 317H283Q286 342 286 359Q286 383 279 393Q272 403 256 403ZM192 214Q189 190 189 172Q189 149 196 138Q203 127 222 127Q239 127 251.5 137Q264 147 268 175L436 117Q429 88 415 64.5Q401 41 375.5 24Q350 7 309.5 -2.5Q269 -12 210 -12Q153 -12 114.5 0Q76 12 53 35.5Q30 59 20 94Q10 129 10 176Q10 240 20.5 305.5Q31 371 60 423.5Q89 476 140.5 509Q192 542 275 542Q329 542 366.5 530Q404 518 426.5 494Q449 470 459 434Q469 398 469 350Q469 309 463 263L457 214ZM178 780H430L410 616H158Z" glyph-name="emacron" horiz-adv-x="494" unicode="&#275;" /><glyph d="M45 253 65 417H977L957 253Z" glyph-name="emdash" horiz-adv-x="1020" unicode="&#8212;" /><glyph d="M51 307 71 471H983L963 307Z" glyph-name="emdash.cap" horiz-adv-x="1020" unicode="&#58502;" /><glyph glyph-name="emspace" horiz-adv-x="1000" unicode="&#8195;" /><glyph d="M45 253 65 417H477L457 253Z" glyph-name="endash" horiz-adv-x="520" unicode="&#8211;" /><glyph d="M51 307 71 471H483L463 307Z" glyph-name="endash.cap" horiz-adv-x="520" unicode="&#58500;" /><glyph d="M224 484Q242 499 259 510Q276 521 295 528Q314 535 335.5 538.5Q357 542 383 542Q458 542 483.5 501.5Q509 461 500 383L453 0H452L447 -45Q436 -128 388 -172Q340 -216 246 -216Q204 -216 184 -212Q164 -208 151 -203L176 -59Q197 -67 227 -67Q247 -67 260 -57.5Q273 -48 276 -24L303 200L321 345Q324 371 315 379.5Q306 388 290 388Q268 388 251.5 377.5Q235 367 223 353L180 0H5L51 378L67 530H224Z" glyph-name="eng" horiz-adv-x="534" unicode="&#331;" /><glyph glyph-name="enspace" horiz-adv-x="500" unicode="&#8194;" /><glyph d="M256 403Q233 403 221.5 384Q210 365 204 317H283Q286 342 286 359Q286 383 279 393Q272 403 256 403ZM192 214Q189 190 189 172Q189 149 196 138Q203 127 222 127Q239 127 251.5 137Q264 147 268 175L436 117Q425 74 398.5 44.5Q372 15 313 -2Q235 -23 231 -68Q230 -76 235 -85.5Q240 -95 257 -95Q276 -95 293 -86.5Q310 -78 310 -77L330 -191Q313 -201 284.5 -208.5Q256 -216 222 -216Q193 -216 169 -209.5Q145 -203 128 -190Q111 -177 103 -156.5Q95 -136 98 -107Q102 -77 116.5 -52.5Q131 -28 152 -8Q72 2 41 48.5Q10 95 10 176Q10 240 20.5 305.5Q31 371 60 423.5Q89 476 140.5 509Q192 542 275 542Q329 542 366.5 530Q404 518 426.5 494Q449 470 459 434Q469 398 469 350Q469 309 463 263L457 214Z" glyph-name="eogonek" horiz-adv-x="494" unicode="&#281;" /><glyph d="M90 428V592H630V428ZM90 188V352H630V188Z" glyph-name="equal" horiz-adv-x="720" unicode="=" /><glyph d="M50 164V328H830V164ZM50 452V616H830V452Z" glyph-name="equal.cap" horiz-adv-x="880" unicode="&#58773;" /><glyph d="M11 40 26 161H346L331 40ZM-9 -125 6 -4H326L311 -125Z" glyph-name="equal.inf" horiz-adv-x="414" unicode="&#58749;" /><glyph d="M90 308V472H630V308ZM90 496V660H630V496ZM90 120V284H630V120Z" glyph-name="equivalence" horiz-adv-x="720" unicode="&#8801;" /><glyph d="M416 670Q357 670 317 652.5Q277 635 252 604.5Q227 574 215 531.5Q203 489 199 439H632Q628 489 615.5 531.5Q603 574 578 604.5Q553 635 513.5 652.5Q474 670 416 670ZM198 325Q202 275 214.5 232.5Q227 190 252 159.5Q277 129 317 112Q357 95 416 95Q519 95 576.5 137Q634 179 653 257H790Q779 185 748 133.5Q717 82 668.5 49Q620 16 556 0Q492 -16 415 -16Q329 -16 257 12Q185 40 133.5 91.5Q82 143 53.5 216.5Q25 290 25 382Q25 473 53.5 547Q82 621 133.5 672.5Q185 724 257 752Q329 780 415 780Q501 780 573 752Q645 724 696.5 672.5Q748 621 776.5 547Q805 473 805 382V325Z" glyph-name="estimated" horiz-adv-x="830" unicode="&#8494;" /><glyph d="M226 141Q245 141 259 157Q273 173 281.5 199Q290 225 294 258.5Q298 292 298 327Q298 366 287 377.5Q276 389 256 389Q235 389 221 372.5Q207 356 199 330Q191 304 187.5 270Q184 236 184 202Q184 164 195 152.5Q206 141 226 141ZM115 666 222 702Q173 757 105 800H316Q344 778 368 751L506 798L493 686L426 663Q452 609 463.5 546.5Q475 484 475 411Q475 286 458.5 204.5Q442 123 409 75Q376 27 325.5 7.5Q275 -12 207 -12Q157 -12 120 -3Q83 6 58.5 28Q34 50 22 86.5Q10 123 10 177Q10 284 29.5 354.5Q49 425 82 466.5Q115 508 157 525Q199 542 244 542Q265 542 282 538.5Q299 535 315 524Q303 572 282 614L102 554Z" glyph-name="eth" horiz-adv-x="498" unicode="&#240;" /><glyph d="M285 780 192 248H53L90 780ZM182 0H3L24 177H203Z" glyph-name="exclam" horiz-adv-x="265" unicode="!" /><glyph d="M-28 -200 57 282H196L163 -200ZM225 353H46L68 530H247Z" glyph-name="exclamdown" horiz-adv-x="265" unicode="&#161;" /><glyph d="M-5 0 88 532H227L190 0ZM98 780H277L256 603H77Z" glyph-name="exclamdown.cap" horiz-adv-x="265" unicode="&#58433;" /><glyph d="M43 530H103L116 641Q126 724 179 768Q232 812 326 812Q369 812 389 808Q409 804 422 799L396 656Q388 659 374.5 661.5Q361 664 346 664Q317 664 303.5 653Q290 642 287 616L277 530H368L350 385H259L187 -200H13L85 385H25Z" glyph-name="f" horiz-adv-x="366" unicode="f" /><glyph d="M437 530H611L546 0H372ZM43 530H103L116 641Q126 724 179 768Q232 812 326 812Q369 812 389 808Q409 804 422 799L396 656Q388 659 374.5 661.5Q361 664 346 664Q317 664 303.5 653Q290 642 287 616L277 530H368L350 385H259L187 -200H13L85 385H25Z" glyph-name="f_dotlessi" horiz-adv-x="632" /><glyph d="M622 603H443L464 780H643ZM437 530H611L546 0H372ZM43 530H103L116 641Q126 724 179 768Q232 812 326 812Q369 812 389 808Q409 804 422 799L396 656Q388 659 374.5 661.5Q361 664 346 664Q317 664 303.5 653Q290 642 287 616L277 530H368L350 385H259L187 -200H13L85 385H25Z" glyph-name="fi" horiz-adv-x="632" unicode="&#64257;" /><glyph d="M45 253 65 417H677L657 253Z" glyph-name="figuredash" horiz-adv-x="720" unicode="&#8210;" /><glyph d="M51 307 71 471H683L663 307Z" glyph-name="figuredash.cap" horiz-adv-x="720" unicode="&#58503;" /><glyph glyph-name="figurespace" horiz-adv-x="700" unicode="&#8199;" /><glyph d="M237 144Q268 144 287.5 184Q307 224 307 319Q307 356 296.5 368Q286 380 265 380Q243 380 222 364Q201 348 189 322L48 370L115 764H512L493 604H251L229 477Q255 504 283 517Q311 530 350 530Q382 530 407 521.5Q432 513 449.5 492.5Q467 472 476.5 438Q486 404 486 353Q486 247 468 177Q450 107 415 65Q380 23 329 5.5Q278 -12 213 -12Q160 -12 121 -1.5Q82 9 57 32Q32 55 21.5 93Q11 131 16 187L201 250Q200 237 197.5 218.5Q195 200 196.5 183.5Q198 167 207 155.5Q216 144 237 144Z" glyph-name="five" horiz-adv-x="520" unicode="5" /><glyph d="M246 144Q278 144 301.5 182Q325 220 325 311Q325 353 312 366.5Q299 380 276 380Q253 380 226.5 364Q200 348 188 322L47 370L114 764H531L512 604H250L228 477Q279 529 360 529Q394 529 421 520.5Q448 512 466.5 491Q485 470 494.5 435.5Q504 401 504 350Q504 245 486 175.5Q468 106 432.5 64Q397 22 344 5Q291 -12 222 -12Q169 -12 128 -2.5Q87 7 60.5 30Q34 53 22 91.5Q10 130 15 187L200 250Q198 235 197 217Q196 199 199.5 182.5Q203 166 214 155Q225 144 246 144Z" glyph-name="five.LP" horiz-adv-x="536" unicode="&#58682;" /><glyph d="M127 -117Q143 -117 153 -96.5Q163 -76 163 -28Q163 -10 157 -4Q151 2 139 2Q128 2 115 -6Q102 -14 96 -28L-3 6L34 214H299L288 122H133L121 60Q138 75 154.5 81.5Q171 88 197 88Q240 88 264 65.5Q288 43 288 -17Q288 -114 246 -160Q204 -206 116 -206Q42 -206 10 -184Q-22 -162 -22 -106L107 -62Q105 -86 107 -101.5Q109 -117 127 -117Z" glyph-name="five.inf" horiz-adv-x="362" unicode="&#58742;" /><glyph d="M472 800H646L548 0H374ZM43 530H103L116 641Q126 724 179 768Q232 812 326 812Q369 812 389 808Q409 804 422 799L396 656Q388 659 374.5 661.5Q361 664 346 664Q317 664 303.5 653Q290 642 287 616L277 530H368L350 385H259L187 -200H13L85 385H25Z" glyph-name="fl" horiz-adv-x="636" unicode="&#64258;" /><glyph d="M37 470H117L134 605Q144 688 197 732Q250 776 344 776Q387 776 407 772Q427 768 439 763L414 620Q405 623 392 625.5Q379 628 364 628Q335 628 321.5 617Q308 606 305 580L291 470H382L364 325H273L228 -41Q218 -124 165 -168Q112 -212 18 -212Q-24 -212 -44 -208Q-64 -204 -76 -199L-50 -56Q-42 -59 -29 -61.5Q-16 -64 -1 -64Q28 -64 41 -53Q54 -42 58 -16L99 325H19Z" glyph-name="florin" horiz-adv-x="405" unicode="&#402;" /><glyph d="M309 562 181 316 270 320ZM420 161 401 0H231L250 161H5L21 292L296 776H496L440 320H493L473 161Z" glyph-name="four" horiz-adv-x="520" unicode="4" /><glyph d="M327 562 176 316 288 320ZM438 161 419 0H249L268 161H0L16 292L314 776H514L458 320H534L514 161Z" glyph-name="four.LP" horiz-adv-x="556" unicode="&#58681;" /><glyph d="M159 98 93 -25 137 -23ZM246 -114 235 -200H115L126 -114H-26L-17 -38L147 220H287L257 -23H292L281 -114Z" glyph-name="four.inf" horiz-adv-x="362" unicode="&#58741;" /><glyph glyph-name="fourperemspace" horiz-adv-x="250" unicode="&#8197;" /><glyph d="M308 764H439L-45 0H-176Z" glyph-name="fraction" horiz-adv-x="250" unicode="&#8260;" /><glyph d="M413 513 400 402H279L274 362H395L381 251H261L230 0H51L81 251H28L42 362H95L100 402H47L60 513H113L144 764H490L471 604H304L293 513Z" glyph-name="franc" horiz-adv-x="459" unicode="&#8355;" /><glyph d="M319 353Q308 369 294.5 378.5Q281 388 264 388Q250 388 238 381Q226 374 217 355.5Q208 337 202.5 305.5Q197 274 197 225Q197 193 206.5 181.5Q216 170 237 170Q254 170 270.5 179.5Q287 189 301 205ZM167 16Q133 16 105.5 26.5Q78 37 58.5 59.5Q39 82 28.5 117.5Q18 153 18 203Q18 295 35.5 359.5Q53 424 82.5 464.5Q112 505 151 523.5Q190 542 232 542Q281 542 307 526Q333 510 350 484L362 530H520L497 378L449 -14Q442 -70 422 -108Q402 -146 369.5 -169Q337 -192 294 -202Q251 -212 199 -212Q142 -212 102.5 -204.5Q63 -197 38.5 -181Q14 -165 3 -139Q-8 -113 -8 -75L169 -15Q167 -38 174 -55.5Q181 -73 212 -73Q241 -73 255.5 -57Q270 -41 275 -1L283 61Q266 43 241.5 29.5Q217 16 167 16Z" glyph-name="g" horiz-adv-x="537" unicode="g" /><glyph d="M319 353Q308 369 294.5 378.5Q281 388 264 388Q250 388 238 381Q226 374 217 355.5Q208 337 202.5 305.5Q197 274 197 225Q197 193 206.5 181.5Q216 170 237 170Q254 170 270.5 179.5Q287 189 301 205ZM167 16Q133 16 105.5 26.5Q78 37 58.5 59.5Q39 82 28.5 117.5Q18 153 18 203Q18 295 35.5 359.5Q53 424 82.5 464.5Q112 505 151 523.5Q190 542 232 542Q281 542 307 526Q333 510 350 484L362 530H520L497 378L449 -14Q442 -70 422 -108Q402 -146 369.5 -169Q337 -192 294 -202Q251 -212 199 -212Q142 -212 102.5 -204.5Q63 -197 38.5 -181Q14 -165 3 -139Q-8 -113 -8 -75L169 -15Q167 -38 174 -55.5Q181 -73 212 -73Q241 -73 255.5 -57Q270 -41 275 -1L283 61Q266 43 241.5 29.5Q217 16 167 16ZM292 576Q240 576 208 591Q176 606 160 634.5Q144 663 141.5 704.5Q139 746 147 800H277Q272 766 279.5 747Q287 728 311 728Q335 728 347 747Q359 766 363 800H493Q487 746 474 704.5Q461 663 438 634.5Q415 606 379.5 591Q344 576 292 576Z" glyph-name="gbreve" horiz-adv-x="537" unicode="&#287;" /><glyph d="M319 353Q308 369 294.5 378.5Q281 388 264 388Q250 388 238 381Q226 374 217 355.5Q208 337 202.5 305.5Q197 274 197 225Q197 193 206.5 181.5Q216 170 237 170Q254 170 270.5 179.5Q287 189 301 205ZM167 16Q133 16 105.5 26.5Q78 37 58.5 59.5Q39 82 28.5 117.5Q18 153 18 203Q18 295 35.5 359.5Q53 424 82.5 464.5Q112 505 151 523.5Q190 542 232 542Q281 542 307 526Q333 510 350 484L362 530H520L497 378L449 -14Q442 -70 422 -108Q402 -146 369.5 -169Q337 -192 294 -202Q251 -212 199 -212Q142 -212 102.5 -204.5Q63 -197 38.5 -181Q14 -165 3 -139Q-8 -113 -8 -75L169 -15Q167 -38 174 -55.5Q181 -73 212 -73Q241 -73 255.5 -57Q270 -41 275 -1L283 61Q266 43 241.5 29.5Q217 16 167 16ZM108 592 222 800H418L480 592H337L305 676L251 592Z" glyph-name="gcircumflex" horiz-adv-x="537" unicode="&#285;" /><glyph d="M319 353Q308 369 294.5 378.5Q281 388 264 388Q250 388 238 381Q226 374 217 355.5Q208 337 202.5 305.5Q197 274 197 225Q197 193 206.5 181.5Q216 170 237 170Q254 170 270.5 179.5Q287 189 301 205ZM167 16Q133 16 105.5 26.5Q78 37 58.5 59.5Q39 82 28.5 117.5Q18 153 18 203Q18 295 35.5 359.5Q53 424 82.5 464.5Q112 505 151 523.5Q190 542 232 542Q281 542 307 526Q333 510 350 484L362 530H520L497 378L449 -14Q442 -70 422 -108Q402 -146 369.5 -169Q337 -192 294 -202Q251 -212 199 -212Q142 -212 102.5 -204.5Q63 -197 38.5 -181Q14 -165 3 -139Q-8 -113 -8 -75L169 -15Q167 -38 174 -55.5Q181 -73 212 -73Q241 -73 255.5 -57Q270 -41 275 -1L283 61Q266 43 241.5 29.5Q217 16 167 16ZM193 592 280 800H459L389 592Z" glyph-name="gcommaaccent" horiz-adv-x="537" unicode="&#291;" /><glyph d="M319 353Q308 369 294.5 378.5Q281 388 264 388Q250 388 238 381Q226 374 217 355.5Q208 337 202.5 305.5Q197 274 197 225Q197 193 206.5 181.5Q216 170 237 170Q254 170 270.5 179.5Q287 189 301 205ZM167 16Q133 16 105.5 26.5Q78 37 58.5 59.5Q39 82 28.5 117.5Q18 153 18 203Q18 295 35.5 359.5Q53 424 82.5 464.5Q112 505 151 523.5Q190 542 232 542Q281 542 307 526Q333 510 350 484L362 530H520L497 378L449 -14Q442 -70 422 -108Q402 -146 369.5 -169Q337 -192 294 -202Q251 -212 199 -212Q142 -212 102.5 -204.5Q63 -197 38.5 -181Q14 -165 3 -139Q-8 -113 -8 -75L169 -15Q167 -38 174 -55.5Q181 -73 212 -73Q241 -73 255.5 -57Q270 -41 275 -1L283 61Q266 43 241.5 29.5Q217 16 167 16ZM387 598H203L225 780H409Z" glyph-name="gdotaccent" horiz-adv-x="537" unicode="&#289;" /><glyph d="M508 477Q498 471 487 463.5Q476 456 466.5 447Q457 438 450.5 426.5Q444 415 444 400Q444 364 498 352Q538 343 565 330.5Q592 318 608.5 301.5Q625 285 632 263.5Q639 242 639 214Q639 154 622.5 111.5Q606 69 574.5 41.5Q543 14 498 1Q453 -12 397 -12Q362 -12 329 -7Q296 -2 271.5 12.5Q247 27 234 53.5Q221 80 227 124L386 179Q384 170 383.5 160Q383 150 385 141Q387 132 393 126Q399 120 412 120Q449 120 449 172Q449 205 406 215Q334 231 298.5 264Q263 297 263 357Q263 395 270.5 422Q278 449 292 469Q306 489 326 504Q346 519 372 532Q401 547 419.5 561.5Q438 576 438 605Q438 664 353 664Q308 664 282 647Q256 630 252 596L154 -200H-20L79 605Q85 652 102.5 690Q120 728 153.5 755Q187 782 238 797Q289 812 363 812Q429 812 474 799.5Q519 787 547 765.5Q575 744 587 714Q599 684 599 648Q599 583 575.5 544.5Q552 506 508 477Z" glyph-name="germandbls" horiz-adv-x="680" unicode="&#223;" /><glyph d="M418 800 436 592H257L222 800Z" glyph-name="grave" horiz-adv-x="620" unicode="`" /><glyph d="M465 390 360 417 90 496V670L630 485V295L90 110V284L360 363Z" glyph-name="greater" horiz-adv-x="720" unicode="&gt;" /><glyph d="M830 465V315L50 -16V163L610 390L50 617V796Z" glyph-name="greater.cap" horiz-adv-x="880" unicode="&#58775;" /><glyph d="M90 111V180L630 318V249ZM415 440 265 467 90 496V670L630 532V348L90 210V384L265 413Z" glyph-name="greaterequal" horiz-adv-x="720" unicode="&#8805;" /><glyph d="M454 119 264 262 277 368 502 511 485 370 419 315 472 261ZM234 119 44 262 57 368 282 511 265 370 199 315 252 261Z" glyph-name="guillemotleft" horiz-adv-x="540" unicode="&#171;" /><glyph d="M463 194 273 337 286 443 511 586 494 445 428 390 481 336ZM243 194 53 337 66 443 291 586 274 445 208 390 261 336Z" glyph-name="guillemotleft.cap" horiz-adv-x="540" unicode="&#58451;" /><glyph d="M52 261 117 315 65 370 82 511 273 368 260 262 34 119ZM272 261 337 315 285 370 302 511 493 368 480 262 254 119Z" glyph-name="guillemotright" horiz-adv-x="540" unicode="&#187;" /><glyph d="M61 336 126 390 74 445 91 586 282 443 269 337 43 194ZM281 336 346 390 294 445 311 586 502 443 489 337 263 194Z" glyph-name="guillemotright.cap" horiz-adv-x="540" unicode="&#58452;" /><glyph d="M234 119 44 262 57 368 282 511 265 370 199 315 252 261Z" glyph-name="guilsinglleft" horiz-adv-x="320" unicode="&#8249;" /><glyph d="M243 194 53 337 66 443 291 586 274 445 208 390 261 336Z" glyph-name="guilsinglleft.cap" horiz-adv-x="320" unicode="&#58449;" /><glyph d="M52 261 117 315 65 370 82 511 273 368 260 262 34 119Z" glyph-name="guilsinglright" horiz-adv-x="320" unicode="&#8250;" /><glyph d="M61 336 126 390 74 445 91 586 282 443 269 337 43 194Z" glyph-name="guilsinglright.cap" horiz-adv-x="320" unicode="&#58450;" /><glyph d="M241 497Q270 520 303 531Q336 542 383 542Q458 542 483.5 501.5Q509 461 500 383L453 0H279L321 345Q324 371 315 379.5Q306 388 290 388Q268 388 251.5 377.5Q235 367 223 353L180 0H5L103 800H278Z" glyph-name="h" horiz-adv-x="534" unicode="h" /><glyph glyph-name="hairspace" horiz-adv-x="100" unicode="&#8202;" /><glyph d="M268 723H368L356 620H256L241 497Q270 520 303 531Q336 542 383 542Q458 542 483.5 501.5Q509 461 500 383L453 0H279L321 345Q324 371 315 379.5Q306 388 290 388Q268 388 251.5 377.5Q235 367 223 353L180 0H5L81 620H21L33 723H93L103 800H278Z" glyph-name="hbar" horiz-adv-x="534" unicode="&#295;" /><glyph d="M10 842 123 1050H319L382 842H239L206 926L153 842ZM241 497Q270 520 303 531Q336 542 383 542Q458 542 483.5 501.5Q509 461 500 383L453 0H279L321 345Q324 371 315 379.5Q306 388 290 388Q268 388 251.5 377.5Q235 367 223 353L180 0H5L103 800H278Z" glyph-name="hcircumflex" horiz-adv-x="534" unicode="&#293;" /><glyph d="M459 -10Q447 9 424 40Q401 71 370 110Q339 149 302.5 193.5Q266 238 226 283Q200 312 171 348Q142 384 118 423.5Q94 463 78 504Q62 545 62 584Q62 628 75 666Q88 704 113 731.5Q138 759 173.5 774.5Q209 790 253 790Q299 790 333 777Q367 764 391 742.5Q415 721 431 692.5Q447 664 458 633H462Q473 664 489 692.5Q505 721 529 742.5Q553 764 586.5 777Q620 790 667 790Q711 790 746.5 774.5Q782 759 806.5 731.5Q831 704 844.5 666Q858 628 858 584Q858 545 842 504Q826 463 802 423.5Q778 384 749 348Q720 312 694 283Q654 238 617.5 193.5Q581 149 550 110Q519 71 496 40Q473 9 461 -10Z" glyph-name="heart" horiz-adv-x="920" unicode="&#9829;" /><glyph d="M80 0V450L435 790L790 450V0Z" glyph-name="house" horiz-adv-x="870" unicode="&#8962;" /><glyph d="M638 800 541 592H362L442 800ZM422 800 325 592H146L226 800Z" glyph-name="hungarumlaut" horiz-adv-x="620" unicode="&#733;" /><glyph d="M45 253 65 417H369L349 253Z" glyph-name="hyphen" horiz-adv-x="412" unicode="-" /><glyph d="M51 307 71 471H375L355 307Z" glyph-name="hyphen.cap" horiz-adv-x="412" unicode="&#58498;" /><glyph d="M256 603H77L98 780H277ZM71 530H245L180 0H6Z" glyph-name="i" horiz-adv-x="266" unicode="i" /><glyph d="M341 800 254 592H75L145 800ZM71 530H245L180 0H6Z" glyph-name="iacute" horiz-adv-x="266" unicode="&#237;" /><glyph d="M162 576Q110 576 78 591Q46 606 30 634.5Q14 663 11.5 704.5Q9 746 17 800H147Q142 766 149.5 747Q157 728 181 728Q205 728 217 747Q229 766 233 800H363Q357 746 344 704.5Q331 663 308 634.5Q285 606 249.5 591Q214 576 162 576ZM71 530H245L180 0H6Z" glyph-name="ibreve" horiz-adv-x="266" unicode="&#301;" /><glyph d="M-22 592 92 800H288L350 592H207L175 676L121 592ZM71 530H245L180 0H6Z" glyph-name="icircumflex" horiz-adv-x="266" unicode="&#238;" /><glyph d="M375 603H196L217 780H396ZM137 603H-41L-21 780H158ZM71 530H245L180 0H6Z" glyph-name="idieresis" horiz-adv-x="266" unicode="&#239;" /><glyph d="M255 602H76L98 778H277ZM71 530H245L180 0H6Z" glyph-name="idotaccent" horiz-adv-x="266" /><glyph d="M236 800 254 592H75L40 800ZM71 530H245L180 0H6Z" glyph-name="igrave" horiz-adv-x="266" unicode="&#236;" /><glyph d="M494 603H315L336 780H515ZM412 -45Q401 -128 353 -172Q305 -216 211 -216Q169 -216 149 -212Q129 -208 116 -203L141 -59Q162 -67 192 -67Q212 -67 225 -57.5Q238 -48 241 -24L309 530H483ZM256 603H77L98 780H277ZM71 530H245L180 0H6Z" glyph-name="ij" horiz-adv-x="504" unicode="&#307;" /><glyph d="M61 780H313L293 616H41ZM71 530H245L180 0H6Z" glyph-name="imacron" horiz-adv-x="266" unicode="&#299;" /><glyph d="M485 390Q493 381 501.5 371.5Q510 362 520.5 353.5Q531 345 543.5 339.5Q556 334 572 333Q598 332 614.5 346.5Q631 361 631 390Q631 419 614.5 433Q598 447 572 447Q556 446 543.5 440.5Q531 435 520.5 426.5Q510 418 501.5 408.5Q493 399 485 390ZM410 287Q380 252 342 229Q304 206 249 206Q163 206 111 252Q59 298 59 390Q59 482 111 528Q163 574 249 574Q304 574 342 551Q380 528 410 493Q440 528 478 551Q516 574 571 574Q657 574 709 528Q761 482 761 390Q761 298 709 252Q657 206 571 206Q516 206 478 229Q440 252 410 287ZM335 390Q319 408 299 426.5Q279 445 248 447Q222 448 205.5 433.5Q189 419 189 390Q189 361 205.5 347Q222 333 248 333Q279 335 299 353.5Q319 372 335 390Z" glyph-name="infinity" horiz-adv-x="820" unicode="&#8734;" /><glyph d="M240 -23Q240 -58 229.5 -92Q219 -126 192.5 -154Q166 -182 122 -199Q78 -216 11 -216Q-30 -216 -58 -209.5Q-86 -203 -102 -196L-89 -34Q-76 -42 -49 -51.5Q-22 -61 5 -58Q31 -55 45.5 -42.5Q60 -30 60 2V623Q60 657 70.5 691.5Q81 726 107.5 754Q134 782 178 799Q222 816 289 816Q330 816 358 809.5Q386 803 402 796L389 634Q376 642 349 651.5Q322 661 295 658Q269 655 254.5 642.5Q240 630 240 598Z" glyph-name="integral" horiz-adv-x="300" unicode="&#8747;" /><glyph d="M294 492Q318 506 328.5 533.5Q339 561 339 593Q339 627 316 634ZM293 0H114L135 177H314ZM232 248 266 631Q248 622 237.5 597.5Q227 573 221 523L57 579Q66 633 83.5 674Q101 715 131 742Q161 769 206 782.5Q251 796 315 796Q424 796 474.5 748.5Q525 701 525 609Q525 549 511 506Q497 463 473.5 432.5Q450 402 419 381.5Q388 361 354 345Q330 334 306.5 326.5Q283 319 266 314L256 248Z" glyph-name="interrobang" horiz-adv-x="520" unicode="&#8253;" /><glyph d="M166 -18Q166 -30 172.5 -39Q179 -48 193 -51L211 59Q166 32 166 -18ZM209 530H388L366 353H187ZM274 282 244 -46Q261 -37 271 -14Q281 9 286 51L449 -4Q440 -55 422.5 -94Q405 -133 375 -159.5Q345 -186 300.5 -199Q256 -212 192 -212Q81 -212 30.5 -168.5Q-20 -125 -20 -40Q-20 8 -6.5 43.5Q7 79 30.5 106Q54 133 84.5 153Q115 173 149 188Q169 197 193.5 203.5Q218 210 235 215L246 282Z" glyph-name="interrobangdown" horiz-adv-x="520" /><glyph d="M241 288Q217 274 206.5 246.5Q196 219 196 187Q196 153 219 146ZM242 780H421L400 603H221ZM303 532 269 149Q287 158 297.5 182.5Q308 207 314 257L478 201Q469 147 451.5 106Q434 65 404 38Q374 11 329 -2.5Q284 -16 220 -16Q111 -16 60.5 31.5Q10 79 10 171Q10 231 24 274Q38 317 61.5 347.5Q85 378 116 398.5Q147 419 181 435Q205 446 228.5 453.5Q252 461 269 466L279 532Z" glyph-name="interrobangdown.cap" horiz-adv-x="520" /><glyph d="M370 816Q422 816 454 801Q486 786 502 757.5Q518 729 520 687.5Q522 646 515 592H385Q390 626 382.5 645Q375 664 351 664Q327 664 315 645Q303 626 299 592H169Q175 646 187.5 687.5Q200 729 223.5 757.5Q247 786 282.5 801Q318 816 370 816Z" glyph-name="invertedbreve" horiz-adv-x="620" unicode="&#58385;" /><glyph d="M255 602H76L98 778H277ZM180 0Q132 -5 106.5 -26Q81 -47 78 -68Q77 -76 82 -85.5Q87 -95 104 -95Q123 -95 140 -86.5Q157 -78 157 -77L177 -191Q160 -201 131.5 -208.5Q103 -216 69 -216Q40 -216 16 -209.5Q-8 -203 -24.5 -190Q-41 -177 -49 -156.5Q-57 -136 -54 -107Q-49 -73 -33 -46Q-17 -19 6 1L71 530H245Z" glyph-name="iogonek" horiz-adv-x="266" unicode="&#303;" /><glyph d="M402 772Q394 730 381.5 694.5Q369 659 350.5 632.5Q332 606 306.5 591Q281 576 247 576Q215 576 194 587.5Q173 599 158 613.5Q143 628 131.5 639.5Q120 651 106 651Q94 651 87.5 643.5Q81 636 78 628Q74 617 74 605L-47 620Q-40 662 -27.5 697.5Q-15 733 3.5 759.5Q22 786 47.5 801Q73 816 107 816Q139 816 159.5 804.5Q180 793 195 778.5Q210 764 221.5 752.5Q233 741 247 741Q258 741 265 748Q272 755 275 764Q279 774 280 787ZM71 530H245L180 0H6Z" glyph-name="itilde" horiz-adv-x="266" unicode="&#297;" /><glyph d="M256 603H77L98 780H277ZM174 -45Q163 -128 115 -172Q67 -216 -27 -216Q-68 -216 -88 -212Q-108 -208 -121 -203L-96 -59Q-75 -67 -45 -67Q-25 -67 -12.5 -57.5Q0 -48 3 -24L71 530H245Z" glyph-name="j" horiz-adv-x="266" unicode="j" /><glyph d="M-22 592 92 800H288L350 592H207L175 676L121 592ZM174 -45Q163 -128 115 -172Q67 -216 -27 -216Q-68 -216 -88 -212Q-108 -208 -121 -203L-96 -59Q-75 -67 -45 -67Q-25 -67 -12.5 -57.5Q0 -48 3 -24L71 530H245Z" glyph-name="jcircumflex" horiz-adv-x="266" unicode="&#309;" /><glyph d="M318 530H523L361 329L472 0H269L231 176L189 125L179 0H5L103 800H277L218 359Z" glyph-name="k" horiz-adv-x="520" unicode="k" /><glyph d="M317 -40 260 -200H97L132 -40ZM318 530H523L361 329L472 0H269L231 176L189 125L179 0H5L103 800H277L218 359Z" glyph-name="kcommaaccent" horiz-adv-x="520" unicode="&#311;" /><glyph d="M318 530H523L361 329L472 0H269L231 176L189 125L179 0H5L70 530H244L218 359Z" glyph-name="kgreenlandic" horiz-adv-x="522" unicode="&#312;" /><glyph d="M106 800H280L182 0H8Z" glyph-name="l" horiz-adv-x="270" unicode="l" /><glyph d="M374 1050 288 842H109L178 1050ZM106 800H280L182 0H8Z" glyph-name="lacute" horiz-adv-x="270" unicode="&#314;" /><glyph d="M415 800 351 560H280L315 800ZM106 800H280L182 0H8Z" glyph-name="lcaron" horiz-adv-x="270" unicode="&#318;" /><glyph d="M181 -40 124 -200H-38L-4 -40ZM106 800H280L182 0H8Z" glyph-name="lcommaaccent" horiz-adv-x="270" unicode="&#316;" /><glyph d="M433 299H249L272 481H456ZM106 800H280L182 0H8Z" glyph-name="ldot" horiz-adv-x="449" unicode="&#320;" /><glyph d="M360 363 630 284V110L90 295V485L630 670V496L360 417L255 390Z" glyph-name="less" horiz-adv-x="720" unicode="&lt;" /><glyph d="M50 315V465L830 796V617L270 390L830 163V-16Z" glyph-name="less.cap" horiz-adv-x="880" unicode="&#58774;" /><glyph d="M90 249V318L630 180V111ZM455 413 630 384V210L90 348V532L630 670V496L455 467L305 440Z" glyph-name="lessequal" horiz-adv-x="720" unicode="&#8804;" /><glyph d="M272 233 263 159H520L501 0H-2L17 159H89L98 233H26L40 344H111L116 384H45L58 495H130L139 565Q145 617 158 657Q171 697 197 723Q223 749 267.5 762.5Q312 776 381 776Q443 776 482 765Q521 754 542.5 732.5Q564 711 570.5 679Q577 647 574 604L394 543Q399 587 395 608Q391 629 363 629Q335 629 325 608Q315 587 310 543L304 495H429L416 384H290L285 344H411L397 233Z" glyph-name="lira" horiz-adv-x="580" unicode="&#8356;" /><glyph d="M466 408H90V572H630V208H466Z" glyph-name="logicalnot" horiz-adv-x="720" unicode="&#172;" /><glyph d="M-8 0 7 125H311L296 0Z" glyph-name="lowline" horiz-adv-x="368" unicode="&#58641;" /><glyph d="M460 236 597 390 460 544 323 390ZM92 390 460 790 828 390 460 -10Z" glyph-name="lozenge" horiz-adv-x="920" unicode="&#9674;" /><glyph d="M256 367 211 0H37L69 260L6 224L22 358L85 394L135 800H309L272 502L344 543L328 409Z" glyph-name="lslash" horiz-adv-x="346" unicode="&#322;" /><glyph d="M225 482Q259 514 297.5 528Q336 542 379 542Q407 542 425 535.5Q443 529 454 520Q465 511 470 501.5Q475 492 477 486Q508 513 548.5 527.5Q589 542 632 542Q666 542 687.5 532Q709 522 721 503.5Q733 485 736.5 459Q740 433 736 400L687 0H513L557 360Q560 388 532 388Q502 388 478 362L434 0H260L304 360Q307 388 278 388Q248 388 225 362L181 0H6L52 378L67 530H225Z" glyph-name="m" horiz-adv-x="768" unicode="m" /><glyph d="M239 780H491L471 616H219Z" glyph-name="macron" horiz-adv-x="620" unicode="&#175;" /><glyph d="M90 308V472H630V308Z" glyph-name="minus" horiz-adv-x="720" unicode="&#8722;" /><glyph d="M50 308V472H830V308Z" glyph-name="minus.cap" horiz-adv-x="880" unicode="&#58770;" /><glyph d="M0 -49 16 85H337L321 -49Z" glyph-name="minus.inf" horiz-adv-x="414" unicode="&#58748;" /><glyph d="M244 764 196 423H47V764Z" glyph-name="minute" horiz-adv-x="267" unicode="&#8242;" /><glyph d="M66 530H240L197 185Q194 159 203 150.5Q212 142 227 142Q250 142 266 152.5Q282 163 295 177L339 530H513L466 152L452 0H295L294 46Q281 29 265 17.5Q249 6 232.5 -0.5Q216 -7 200.5 -9.5Q185 -12 173 -12L150 -200H-24Z" glyph-name="mu" horiz-adv-x="534" unicode="&#181;" /><glyph d="M244 390 95 539 211 655 360 506 509 655 625 539 476 390 625 241 509 125 360 274 211 125 95 241Z" glyph-name="multiply" horiz-adv-x="720" unicode="&#215;" /><glyph d="M324 390 34 680 150 796 440 506 730 796 846 680 556 390 846 100 730 -16 440 274 150 -16 34 100Z" glyph-name="multiply.cap" horiz-adv-x="880" unicode="&#58771;" /><glyph d="M165 97Q194 111 229 135.5Q264 160 294.5 191.5Q325 223 345.5 261.5Q366 300 366 342Q366 380 346.5 403Q327 426 279 426Q259 426 241 418Q223 410 208 397Q193 384 182 367Q171 350 165 333ZM60 822H165V496Q183 516 219 529.5Q255 543 290 543Q397 543 441.5 490.5Q486 438 486 340Q486 274 449.5 210.5Q413 147 353.5 92Q294 37 217.5 -7Q141 -51 60 -78Z" glyph-name="musicflatsign" horiz-adv-x="520" unicode="&#9837;" /><glyph d="M165 304 241 365V475L165 414ZM346 719V-50H241V206L60 61V830H165V573Z" glyph-name="musicnaturalsign" horiz-adv-x="406" /><glyph d="M205 304 281 365V475L205 414ZM386 719 456 775V616L386 560V450L456 506V347L386 291V0H281V206L205 145V-100H100V61L30 5V164L100 220V330L30 274V433L100 489V780H205V573L281 634V880H386Z" glyph-name="musicsharpsign" horiz-adv-x="486" unicode="&#9839;" /><glyph d="M224 484Q242 499 259 510Q276 521 295 528Q314 535 335.5 538.5Q357 542 383 542Q458 542 483.5 501.5Q509 461 500 383L453 0H279L321 345Q324 371 315 379.5Q306 388 290 388Q268 388 251.5 377.5Q235 367 223 353L180 0H5L51 378L67 530H224Z" glyph-name="n" horiz-adv-x="534" unicode="n" /><glyph d="M471 800 384 592H205L275 800ZM224 484Q242 499 259 510Q276 521 295 528Q314 535 335.5 538.5Q357 542 383 542Q458 542 483.5 501.5Q509 461 500 383L453 0H279L321 345Q324 371 315 379.5Q306 388 290 388Q268 388 251.5 377.5Q235 367 223 353L180 0H5L51 378L67 530H224Z" glyph-name="nacute" horiz-adv-x="534" unicode="&#324;" /><glyph d="M511 800 397 592H201L139 800H282L314 716L368 800ZM224 484Q242 499 259 510Q276 521 295 528Q314 535 335.5 538.5Q357 542 383 542Q458 542 483.5 501.5Q509 461 500 383L453 0H279L321 345Q324 371 315 379.5Q306 388 290 388Q268 388 251.5 377.5Q235 367 223 353L180 0H5L51 378L67 530H224Z" glyph-name="ncaron" horiz-adv-x="534" unicode="&#328;" /><glyph d="M318 -40 261 -200H98L133 -40ZM224 484Q242 499 259 510Q276 521 295 528Q314 535 335.5 538.5Q357 542 383 542Q458 542 483.5 501.5Q509 461 500 383L453 0H279L321 345Q324 371 315 379.5Q306 388 290 388Q268 388 251.5 377.5Q235 367 223 353L180 0H5L51 378L67 530H224Z" glyph-name="ncommaaccent" horiz-adv-x="534" unicode="&#326;" /><glyph d="M259 393Q279 393 289 405.5Q299 418 315 444Q324 519 324 560Q324 595 317.5 609.5Q311 624 297 624Q274 624 261.5 601.5Q249 579 243 548.5Q237 518 236 487Q235 456 235 440Q235 393 259 393ZM239 140Q253 140 262 147Q271 154 277 173.5Q283 193 288.5 226Q294 259 300 312Q272 271 241 255.5Q210 240 167 240Q103 240 77.5 275Q52 310 52 387Q52 430 55.5 476Q59 522 69 565Q79 608 97.5 646.5Q116 685 145 714Q174 743 216 759.5Q258 776 316 776Q369 776 405 764Q441 752 462.5 723.5Q484 695 493.5 648Q503 601 503 532Q503 386 484.5 282.5Q466 179 430.5 113.5Q395 48 343.5 18Q292 -12 227 -12Q174 -12 136.5 -5Q99 2 75 20Q51 38 40 70Q29 102 28 152L210 214Q210 204 208.5 191Q207 178 208.5 167Q210 156 216.5 148Q223 140 239 140Z" glyph-name="nine" horiz-adv-x="520" unicode="9" /><glyph d="M274 393Q305 393 325 411Q345 429 362 459Q368 505 368 537Q368 588 354 606Q340 624 314 624Q269 624 245.5 585Q222 546 222 460Q222 425 233.5 409Q245 393 274 393ZM239 140Q259 140 275.5 148.5Q292 157 305.5 178Q319 199 329.5 234Q340 269 346 322Q326 295 304.5 279Q283 263 260.5 254.5Q238 246 215 243Q192 240 169 240Q100 240 69.5 281Q39 322 39 410Q39 500 55 568.5Q71 637 106 683Q141 729 196.5 752.5Q252 776 331 776Q391 776 432.5 763.5Q474 751 499 724Q524 697 535 654Q546 611 546 551Q546 425 531.5 321.5Q517 218 479 143.5Q441 69 375.5 28.5Q310 -12 208 -12Q163 -12 126 -6Q89 0 63 18Q37 36 22.5 68Q8 100 7 152L189 214Q184 185 192.5 162.5Q201 140 239 140Z" glyph-name="nine.LP" horiz-adv-x="565" unicode="&#58686;" /><glyph d="M139 16Q148 16 154 23Q160 30 163.5 41Q167 52 168.5 65.5Q170 79 170 92Q170 115 167 124Q164 133 156 133Q126 133 126 42Q126 16 139 16ZM128 -119Q135 -119 139 -116.5Q143 -114 146 -106Q149 -98 151.5 -82.5Q154 -67 157 -40Q140 -60 120.5 -66Q101 -72 75 -72Q35 -72 17.5 -48.5Q0 -25 0 34Q0 125 37.5 172.5Q75 220 170 220Q206 220 230.5 213Q255 206 269.5 189.5Q284 173 290 146.5Q296 120 296 81Q296 29 290.5 -22Q285 -73 265.5 -114Q246 -155 209.5 -180.5Q173 -206 112 -206Q45 -206 17 -187.5Q-11 -169 -13 -127L115 -83Q113 -92 113.5 -105.5Q114 -119 128 -119Z" glyph-name="nine.inf" horiz-adv-x="362" unicode="&#58746;" /><glyph glyph-name="nonbreakingspace" horiz-adv-x="220" unicode="&#160;" /><glyph d="M462 428 411 352H630V188H302L249 107H94L148 188H90V352H257L308 428H90V592H418L471 673H626L572 592H630V428Z" glyph-name="notequal" horiz-adv-x="720" unicode="&#8800;" /><glyph d="M537 772Q529 730 516.5 694.5Q504 659 485.5 632.5Q467 606 441.5 591Q416 576 382 576Q350 576 329 587.5Q308 599 293 613.5Q278 628 266.5 639.5Q255 651 241 651Q229 651 222.5 643.5Q216 636 213 628Q209 617 209 605L87 620Q94 662 106.5 697.5Q119 733 138 759.5Q157 786 182.5 801Q208 816 242 816Q274 816 294.5 804.5Q315 793 330 778.5Q345 764 356.5 752.5Q368 741 382 741Q393 741 400 748Q407 755 410 764Q414 774 415 787ZM224 484Q242 499 259 510Q276 521 295 528Q314 535 335.5 538.5Q357 542 383 542Q458 542 483.5 501.5Q509 461 500 383L453 0H279L321 345Q324 371 315 379.5Q306 388 290 388Q268 388 251.5 377.5Q235 367 223 353L180 0H5L51 378L67 530H224Z" glyph-name="ntilde" horiz-adv-x="534" unicode="&#241;" /><glyph d="M221 317H273L311 447H259ZM89 606H166L211 764H352L306 606H357L403 764H544L498 606H536L516 447H451L414 317H463L444 158H367L322 0H181L227 158H176L130 0H-11L35 158H-3L16 317H81L118 447H69Z" glyph-name="numbersign" horiz-adv-x="520" unicode="#" /><glyph d="M251 317H323L361 447H289ZM99 606H196L241 764H382L336 606H407L453 764H594L548 606H606L586 447H501L464 317H533L514 158H417L372 0H231L277 158H206L160 0H19L65 158H7L26 317H111L148 447H79Z" glyph-name="numbersign.LP" horiz-adv-x="600" unicode="&#58675;" /><glyph d="M209 -12Q108 -12 59 33Q10 78 10 187Q10 254 19.5 317.5Q29 381 57 431Q85 481 137 511.5Q189 542 273 542Q374 542 423 496.5Q472 451 472 342Q472 275 462.5 211Q453 147 425 97.5Q397 48 345 18Q293 -12 209 -12ZM226 141Q251 141 265.5 162Q280 183 287.5 212.5Q295 242 296.5 272.5Q298 303 298 322Q298 361 287 375Q276 389 256 389Q230 389 216 367.5Q202 346 194.5 317Q187 288 185.5 257Q184 226 184 207Q184 169 195 155Q206 141 226 141Z" glyph-name="o" horiz-adv-x="498" unicode="o" /><glyph d="M209 -12Q108 -12 59 33Q10 78 10 187Q10 254 19.5 317.5Q29 381 57 431Q85 481 137 511.5Q189 542 273 542Q374 542 423 496.5Q472 451 472 342Q472 275 462.5 211Q453 147 425 97.5Q397 48 345 18Q293 -12 209 -12ZM226 141Q251 141 265.5 162Q280 183 287.5 212.5Q295 242 296.5 272.5Q298 303 298 322Q298 361 287 375Q276 389 256 389Q230 389 216 367.5Q202 346 194.5 317Q187 288 185.5 257Q184 226 184 207Q184 169 195 155Q206 141 226 141ZM453 800 366 592H187L257 800Z" glyph-name="oacute" horiz-adv-x="498" unicode="&#243;" /><glyph d="M209 -12Q108 -12 59 33Q10 78 10 187Q10 254 19.5 317.5Q29 381 57 431Q85 481 137 511.5Q189 542 273 542Q374 542 423 496.5Q472 451 472 342Q472 275 462.5 211Q453 147 425 97.5Q397 48 345 18Q293 -12 209 -12ZM226 141Q251 141 265.5 162Q280 183 287.5 212.5Q295 242 296.5 272.5Q298 303 298 322Q298 361 287 375Q276 389 256 389Q230 389 216 367.5Q202 346 194.5 317Q187 288 185.5 257Q184 226 184 207Q184 169 195 155Q206 141 226 141ZM279 576Q227 576 195 591Q163 606 147 634.5Q131 663 128.5 704.5Q126 746 134 800H264Q259 766 266.5 747Q274 728 298 728Q322 728 334 747Q346 766 350 800H480Q474 746 461 704.5Q448 663 425 634.5Q402 606 366.5 591Q331 576 279 576Z" glyph-name="obreve" horiz-adv-x="498" unicode="&#335;" /><glyph d="M209 -12Q108 -12 59 33Q10 78 10 187Q10 254 19.5 317.5Q29 381 57 431Q85 481 137 511.5Q189 542 273 542Q374 542 423 496.5Q472 451 472 342Q472 275 462.5 211Q453 147 425 97.5Q397 48 345 18Q293 -12 209 -12ZM226 141Q251 141 265.5 162Q280 183 287.5 212.5Q295 242 296.5 272.5Q298 303 298 322Q298 361 287 375Q276 389 256 389Q230 389 216 367.5Q202 346 194.5 317Q187 288 185.5 257Q184 226 184 207Q184 169 195 155Q206 141 226 141ZM95 592 209 800H405L467 592H324L292 676L238 592Z" glyph-name="ocircumflex" horiz-adv-x="498" unicode="&#244;" /><glyph d="M209 -12Q108 -12 59 33Q10 78 10 187Q10 254 19.5 317.5Q29 381 57 431Q85 481 137 511.5Q189 542 273 542Q374 542 423 496.5Q472 451 472 342Q472 275 462.5 211Q453 147 425 97.5Q397 48 345 18Q293 -12 209 -12ZM226 141Q251 141 265.5 162Q280 183 287.5 212.5Q295 242 296.5 272.5Q298 303 298 322Q298 361 287 375Q276 389 256 389Q230 389 216 367.5Q202 346 194.5 317Q187 288 185.5 257Q184 226 184 207Q184 169 195 155Q206 141 226 141ZM492 603H313L334 780H513ZM253 603H74L95 780H274Z" glyph-name="odieresis" horiz-adv-x="498" unicode="&#246;" /><glyph d="M226 141Q251 141 265.5 162Q280 183 287.5 212.5Q295 242 296.5 272.5Q298 303 298 322Q298 361 287 375Q276 389 256 389Q230 389 216 367.5Q202 346 194.5 317Q187 288 185.5 257Q184 226 184 207Q184 169 195 155Q206 141 226 141ZM533 403Q510 403 498.5 384Q487 365 481 317H560Q563 342 563 359Q563 383 556 393Q549 403 533 403ZM209 -12Q108 -12 59 33Q10 78 10 187Q10 254 19.5 317.5Q29 381 57 431Q85 481 137 511.5Q189 542 273 542Q321 542 354 527.5Q387 513 406 487Q432 512 467 527Q502 542 552 542Q606 542 643.5 530Q681 518 703.5 494Q726 470 736 434Q746 398 746 350Q746 309 740 263L734 214H469Q466 190 466 172Q466 149 473 138Q480 127 499 127Q516 127 528.5 137Q541 147 545 175L713 117Q706 88 692 64.5Q678 41 652.5 24Q627 7 586.5 -2.5Q546 -12 487 -12Q436 -12 403.5 2.5Q371 17 351 41Q325 15 291 1.5Q257 -12 209 -12Z" glyph-name="oe" horiz-adv-x="771" unicode="&#339;" /><glyph d="M476 0Q429 -5 398 -26Q367 -47 364 -68Q363 -76 368 -85.5Q373 -95 390 -95Q409 -95 426 -86.5Q443 -78 443 -77L463 -191Q446 -201 417.5 -208.5Q389 -216 355 -216Q326 -216 302 -209.5Q278 -203 261 -190Q244 -177 236 -156.5Q228 -136 231 -107Q236 -69 257.5 -39.5Q279 -10 309 12Q339 34 373.5 48Q408 62 438 70Z" glyph-name="ogonek" horiz-adv-x="620" unicode="&#731;" /><glyph d="M209 -12Q108 -12 59 33Q10 78 10 187Q10 254 19.5 317.5Q29 381 57 431Q85 481 137 511.5Q189 542 273 542Q374 542 423 496.5Q472 451 472 342Q472 275 462.5 211Q453 147 425 97.5Q397 48 345 18Q293 -12 209 -12ZM226 141Q251 141 265.5 162Q280 183 287.5 212.5Q295 242 296.5 272.5Q298 303 298 322Q298 361 287 375Q276 389 256 389Q230 389 216 367.5Q202 346 194.5 317Q187 288 185.5 257Q184 226 184 207Q184 169 195 155Q206 141 226 141ZM357 800 375 592H196L161 800Z" glyph-name="ograve" horiz-adv-x="498" unicode="&#242;" /><glyph d="M360 617Q286 617 248.5 571.5Q211 526 211 452Q211 398 221.5 353.5Q232 309 250 272Q268 235 291 204.5Q314 174 340 149V0H28V163H169Q144 192 120.5 227Q97 262 79 302Q61 342 50.5 385.5Q40 429 40 476Q40 541 61.5 597Q83 653 124.5 693.5Q166 734 225.5 757Q285 780 360 780Q435 780 494.5 757Q554 734 595.5 693.5Q637 653 658.5 597Q680 541 680 476Q680 429 669.5 385.5Q659 342 641 302Q623 262 599.5 227Q576 192 551 163H692V0H380V149Q405 174 428.5 204.5Q452 235 470 272Q488 309 498.5 353.5Q509 398 509 452Q509 526 471.5 571.5Q434 617 360 617Z" glyph-name="ohm" horiz-adv-x="720" unicode="&#8486;" /><glyph d="M209 -12Q108 -12 59 33Q10 78 10 187Q10 254 19.5 317.5Q29 381 57 431Q85 481 137 511.5Q189 542 273 542Q374 542 423 496.5Q472 451 472 342Q472 275 462.5 211Q453 147 425 97.5Q397 48 345 18Q293 -12 209 -12ZM226 141Q251 141 265.5 162Q280 183 287.5 212.5Q295 242 296.5 272.5Q298 303 298 322Q298 361 287 375Q276 389 256 389Q230 389 216 367.5Q202 346 194.5 317Q187 288 185.5 257Q184 226 184 207Q184 169 195 155Q206 141 226 141ZM577 800 480 592H301L381 800ZM361 800 264 592H85L165 800Z" glyph-name="ohungarumlaut" horiz-adv-x="498" unicode="&#337;" /><glyph d="M209 -12Q108 -12 59 33Q10 78 10 187Q10 254 19.5 317.5Q29 381 57 431Q85 481 137 511.5Q189 542 273 542Q374 542 423 496.5Q472 451 472 342Q472 275 462.5 211Q453 147 425 97.5Q397 48 345 18Q293 -12 209 -12ZM226 141Q251 141 265.5 162Q280 183 287.5 212.5Q295 242 296.5 272.5Q298 303 298 322Q298 361 287 375Q276 389 256 389Q230 389 216 367.5Q202 346 194.5 317Q187 288 185.5 257Q184 226 184 207Q184 169 195 155Q206 141 226 141ZM178 780H430L410 616H158Z" glyph-name="omacron" horiz-adv-x="498" unicode="&#333;" /><glyph d="M15 0 34 158H161L206 522Q180 498 141 480Q102 462 60 454L82 634Q112 642 140.5 657Q169 672 194.5 691.5Q220 711 240.5 733Q261 755 273 776H413L337 158H464L445 0Z" glyph-name="one" horiz-adv-x="520" unicode="1" /><glyph d="M287 0H111L176 535Q151 518 123.5 506Q96 494 65 484L87 664Q135 685 171.5 711.5Q208 738 242 776H382Z" glyph-name="one.LP" horiz-adv-x="409" unicode="&#58678;" /><glyph d="M-19 -200 -8 -109H72L95 75Q78 62 53.5 54Q29 46 5 42L17 146Q55 154 89.5 176Q124 198 139 220H236L195 -109H275L264 -200Z" glyph-name="one.inf" horiz-adv-x="362" unicode="&#58738;" /><glyph d="M757 331Q749 331 742.5 319.5Q736 308 731 268L611 309Q616 337 625 358Q634 379 651.5 393Q669 407 697.5 413.5Q726 420 770 420Q835 420 866 398.5Q897 377 897 330Q897 298 891.5 275.5Q886 253 871.5 235Q857 217 832 200Q807 183 768 161Q749 150 738 141.5Q727 133 721 125Q715 117 712.5 109Q710 101 709 91H871L860 0H566Q573 54 579 88Q585 122 598.5 145Q612 168 637 187Q662 206 707 230Q725 240 737.5 248Q750 256 757.5 265.5Q765 275 768 286.5Q771 298 771 315Q771 331 757 331ZM650 764H781L297 0H166ZM49 354 60 445H140L163 629Q146 616 121.5 608Q97 600 73 596L85 700Q123 708 157.5 730Q192 752 207 774H304L263 445H343L332 354Z" glyph-name="onehalf" horiz-adv-x="934" unicode="&#189;" /><glyph d="M706 298 640 175 684 177ZM793 86 782 0H662L673 86H521L530 162L694 420H834L804 177H839L828 86ZM650 764H781L297 0H166ZM49 354 60 445H140L163 629Q146 616 121.5 608Q97 600 73 596L85 700Q123 708 157.5 730Q192 752 207 774H304L263 445H343L332 354Z" glyph-name="onequarter" horiz-adv-x="884" unicode="&#188;" /><glyph d="M49 350 60 441H140L163 625Q146 612 121.5 604Q97 596 73 592L85 696Q123 704 157.5 726Q192 748 207 770H304L263 441H343L332 350Z" glyph-name="onesuperior" horiz-adv-x="362" unicode="&#185;" /><glyph d="M45 253 65 417H310L290 253Z" glyph-name="onethirdemdash" horiz-adv-x="353" unicode="&#58481;" /><glyph d="M51 307 71 471H316L296 307Z" glyph-name="onethirdemdash.cap" horiz-adv-x="353" unicode="&#58499;" /><glyph d="M263 675Q243 675 232 661Q221 647 215 627Q209 607 207.5 585Q206 563 206 547Q206 530 209 519.5Q212 509 217 503.5Q222 498 228 496.5Q234 495 241 495Q255 495 267 500.5Q279 506 288 515L305 655Q290 675 263 675ZM437 505 425 390H290L289 431Q274 407 248.5 390.5Q223 374 175 374Q149 374 127.5 381Q106 388 89.5 405.5Q73 423 64 451.5Q55 480 55 524Q55 604 70.5 656.5Q86 709 110.5 740Q135 771 166 783.5Q197 796 227 796Q274 796 296 779.5Q318 763 327 739L338 780H473L456 665Z" glyph-name="ordfeminine" horiz-adv-x="462" unicode="&#170;" /><glyph d="M225 374Q135 374 95 408Q55 442 55 525Q55 600 69 651.5Q83 703 111 735.5Q139 768 180.5 782Q222 796 277 796Q367 796 407 762Q447 728 447 645Q447 570 433 518.5Q419 467 391 434.5Q363 402 321.5 388Q280 374 225 374ZM239 492Q251 492 263 496.5Q275 501 284 515.5Q293 530 298.5 556Q304 582 304 624Q304 658 293.5 668Q283 678 263 678Q251 678 239 673.5Q227 669 218 654.5Q209 640 203.5 614Q198 588 198 546Q198 512 208.5 502Q219 492 239 492Z" glyph-name="ordmasculine" horiz-adv-x="440" unicode="&#186;" /><glyph d="M226 141Q248 141 261.5 157Q275 173 282.5 197Q290 221 293 248Q296 275 297 297L190 164Q198 141 226 141ZM256 389Q234 389 220 373Q206 357 198.5 333Q191 309 188 281.5Q185 254 184 232L292 365Q287 379 277.5 384Q268 389 256 389ZM209 -12Q120 -12 74 21L57 0H-4L41 55Q10 101 10 187Q10 254 19.5 317.5Q29 381 57 431Q85 481 137 511.5Q189 542 273 542Q317 542 350.5 534Q384 526 408 508L426 530H487L441 474Q472 427 472 342Q472 275 462.5 211Q453 147 425 97.5Q397 48 345 18Q293 -12 209 -12Z" glyph-name="oslash" horiz-adv-x="498" unicode="&#248;" /><glyph d="M209 -12Q108 -12 59 33Q10 78 10 187Q10 254 19.5 317.5Q29 381 57 431Q85 481 137 511.5Q189 542 273 542Q374 542 423 496.5Q472 451 472 342Q472 275 462.5 211Q453 147 425 97.5Q397 48 345 18Q293 -12 209 -12ZM226 141Q251 141 265.5 162Q280 183 287.5 212.5Q295 242 296.5 272.5Q298 303 298 322Q298 361 287 375Q276 389 256 389Q230 389 216 367.5Q202 346 194.5 317Q187 288 185.5 257Q184 226 184 207Q184 169 195 155Q206 141 226 141ZM519 772Q511 730 498.5 694.5Q486 659 467.5 632.5Q449 606 423.5 591Q398 576 364 576Q332 576 311 587.5Q290 599 275 613.5Q260 628 248.5 639.5Q237 651 223 651Q211 651 204.5 643.5Q198 636 195 628Q191 617 191 605L69 620Q76 662 88.5 697.5Q101 733 120 759.5Q139 786 164.5 801Q190 816 224 816Q256 816 276.5 804.5Q297 793 312 778.5Q327 764 338.5 752.5Q350 741 364 741Q375 741 382 748Q389 755 392 764Q396 774 397 787Z" glyph-name="otilde" horiz-adv-x="498" unicode="&#245;" /><glyph d="M202 177Q213 161 226.5 151.5Q240 142 257 142Q270 142 282.5 149.5Q295 157 305 178Q315 199 321 235.5Q327 272 327 329Q327 364 317 376Q307 388 287 388Q270 388 254 378.5Q238 369 224 353ZM289 -12Q265 -12 248 -8.5Q231 -5 219 1.5Q207 8 199 16Q191 24 185 33L156 -200H-19L52 378L67 530H225V484Q248 510 278 526Q308 542 357 542Q425 542 465 497.5Q505 453 505 348Q505 249 487 180.5Q469 112 439 69Q409 26 370 7Q331 -12 289 -12Z" glyph-name="p" horiz-adv-x="532" unicode="p" /><glyph d="M296 620Q272 619 257.5 604Q243 589 236 566.5Q229 544 227 519Q225 494 225 474Q225 441 235.5 427Q246 413 270 413ZM368 620H332L256 0H220L251 252H236Q196 252 160.5 260.5Q125 269 99 291.5Q73 314 57.5 352.5Q42 391 42 451Q42 552 65.5 616Q89 680 126.5 716.5Q164 753 211 766.5Q258 780 305 780H567L472 0H292Z" glyph-name="paragraph" horiz-adv-x="566" unicode="&#182;" /><glyph d="M375 830Q294 687 248.5 528Q203 369 203 198Q203 110 217 30.5Q231 -49 258 -130H84Q57 -72 40.5 14.5Q24 101 24 205Q24 298 39 389.5Q54 481 79 562.5Q104 644 136 713Q168 782 202 830Z" glyph-name="parenleft" horiz-adv-x="327" unicode="(" /><glyph d="M380 870Q299 727 253.5 568Q208 409 208 238Q208 150 222 70.5Q236 -9 263 -90H89Q62 -32 45.5 54.5Q29 141 29 245Q29 338 44 429.5Q59 521 84 602.5Q109 684 141 753Q173 822 207 870Z" glyph-name="parenleft.cap" horiz-adv-x="327" unicode="&#58513;" /><glyph d="M236 258Q195 184 173 98.5Q151 13 151 -77Q151 -124 157 -168.5Q163 -213 174 -248H51Q38 -211 29 -167Q20 -123 20 -69Q20 -17 28 29.5Q36 76 49 117Q62 158 78.5 193Q95 228 113 258Z" glyph-name="parenleft.inf" horiz-adv-x="300" unicode="&#58750;" /><glyph d="M-44 -130Q37 13 82.5 172Q128 331 128 502Q128 590 114 669.5Q100 749 73 830H247Q274 772 290.5 685.5Q307 599 307 495Q307 402 292 310.5Q277 219 252 137.5Q227 56 195 -13Q163 -82 129 -130Z" glyph-name="parenright" horiz-adv-x="327" unicode=")" /><glyph d="M-39 -90Q42 53 87.5 212Q133 371 133 542Q133 630 119 709.5Q105 789 78 870H252Q279 812 295.5 725.5Q312 639 312 535Q312 442 297 350.5Q282 259 257 177.5Q232 96 200 27Q168 -42 134 -90Z" glyph-name="parenright.cap" horiz-adv-x="327" unicode="&#58514;" /><glyph d="M-16 -248Q25 -174 47 -88.5Q69 -3 69 87Q69 134 63 178.5Q57 223 46 258H169Q182 221 191 177Q200 133 200 79Q200 27 192 -19.5Q184 -66 171 -107Q158 -148 141.5 -183Q125 -218 107 -248Z" glyph-name="parenright.inf" horiz-adv-x="300" unicode="&#58751;" /><glyph d="M357 368Q306 367 274 341.5Q242 316 242 256Q242 227 251.5 206Q261 185 278 171.5Q295 158 317 151.5Q339 145 365 145Q422 144 454 165.5Q486 187 498 231Q501 267 491 293Q481 319 461.5 336Q442 353 415 360.5Q388 368 357 368ZM342 635Q301 636 252 623Q203 610 151 572L74 714Q87 724 109 738Q131 752 163.5 765Q196 778 240 787Q284 796 341 796Q427 796 493 768Q559 740 604 686.5Q649 633 672 556.5Q695 480 695 383Q695 184 615.5 84Q536 -16 364 -16Q297 -16 241 1Q185 18 144 52Q103 86 80 137Q57 188 57 256Q57 527 338 527Q357 527 382 523Q407 519 431.5 510.5Q456 502 478 488.5Q500 475 514 455Q517 504 503 538Q489 572 464 593.5Q439 615 406.5 624.5Q374 634 342 635Z" glyph-name="partialdiff" horiz-adv-x="737" unicode="&#8706;" /><glyph d="M651 764H782L298 0H167ZM734 421Q819 421 854.5 382Q890 343 890 265Q890 189 876 136Q862 83 835.5 50Q809 17 770 2.5Q731 -12 681 -12Q596 -12 560.5 27Q525 66 525 144Q525 220 539 273Q553 326 579.5 359Q606 392 645 406.5Q684 421 734 421ZM718 290Q709 290 699 286.5Q689 283 681.5 270.5Q674 258 669 234Q664 210 664 169Q664 119 697 119Q706 119 716 122.5Q726 126 733.5 138.5Q741 151 746 175Q751 199 751 240Q751 290 718 290ZM215 343Q130 343 94.5 382Q59 421 59 499Q59 575 73 628Q87 681 113.5 714Q140 747 179 761.5Q218 776 268 776Q353 776 388.5 737Q424 698 424 620Q424 544 410 491Q396 438 369.5 405Q343 372 304 357.5Q265 343 215 343ZM231 474Q240 474 250 477.5Q260 481 267.5 493.5Q275 506 280 530Q285 554 285 595Q285 645 252 645Q243 645 233 641.5Q223 638 215.5 625.5Q208 613 203 589Q198 565 198 524Q198 474 231 474Z" glyph-name="percent" horiz-adv-x="937" unicode="%" /><glyph d="M182 0H3L24 177H203Z" glyph-name="period" horiz-adv-x="265" unicode="." /><glyph d="M179 0H0L21 177H200Z" glyph-name="period.T" horiz-adv-x="260" /><glyph d="M242 245H58L80 427H264Z" glyph-name="periodcentered" horiz-adv-x="320" unicode="&#183;" /><glyph d="M248 299H64L87 481H271Z" glyph-name="periodcentered.cap" horiz-adv-x="320" unicode="&#58497;" /><glyph d="M651 764H782L298 0H167ZM1115 421Q1200 421 1235.5 382Q1271 343 1271 265Q1271 189 1257 136Q1243 83 1216.5 50Q1190 17 1151 2.5Q1112 -12 1062 -12Q977 -12 941.5 27Q906 66 906 144Q906 220 920 273Q934 326 960.5 359Q987 392 1026 406.5Q1065 421 1115 421ZM1099 290Q1090 290 1080 286.5Q1070 283 1062.5 270.5Q1055 258 1050 234Q1045 210 1045 169Q1045 119 1078 119Q1087 119 1097 122.5Q1107 126 1114.5 138.5Q1122 151 1127 175Q1132 199 1132 240Q1132 290 1099 290ZM734 421Q819 421 854.5 382Q890 343 890 265Q890 189 876 136Q862 83 835.5 50Q809 17 770 2.5Q731 -12 681 -12Q596 -12 560.5 27Q525 66 525 144Q525 220 539 273Q553 326 579.5 359Q606 392 645 406.5Q684 421 734 421ZM718 290Q709 290 699 286.5Q689 283 681.5 270.5Q674 258 669 234Q664 210 664 169Q664 119 697 119Q706 119 716 122.5Q726 126 733.5 138.5Q741 151 746 175Q751 199 751 240Q751 290 718 290ZM215 343Q130 343 94.5 382Q59 421 59 499Q59 575 73 628Q87 681 113.5 714Q140 747 179 761.5Q218 776 268 776Q353 776 388.5 737Q424 698 424 620Q424 544 410 491Q396 438 369.5 405Q343 372 304 357.5Q265 343 215 343ZM231 474Q240 474 250 477.5Q260 481 267.5 493.5Q275 506 280 530Q285 554 285 595Q285 645 252 645Q243 645 233 641.5Q223 638 215.5 625.5Q208 613 203 589Q198 565 198 524Q198 474 231 474Z" glyph-name="perthousand" horiz-adv-x="1343" unicode="&#8240;" /><glyph d="M298 398Q330 398 349.5 430Q369 462 369 543Q369 576 358 590Q347 604 324 604H268L242 398ZM1034 121Q1058 121 1070.5 135Q1083 149 1083 174Q1083 192 1070 198Q1057 204 1034 206Q989 210 954.5 217Q920 224 896.5 238.5Q873 253 861.5 276.5Q850 300 850 336Q850 400 871 440Q892 480 926 502.5Q960 525 1003.5 533.5Q1047 542 1092 542Q1137 542 1172 536.5Q1207 531 1231 517Q1255 503 1267 479Q1279 455 1278 418L1100 357Q1101 364 1101.5 373Q1102 382 1099.5 390Q1097 398 1091.5 403.5Q1086 409 1076 409Q1058 409 1050 395.5Q1042 382 1042 360Q1042 343 1053.5 336.5Q1065 330 1085 328Q1128 325 1162 318.5Q1196 312 1219 298.5Q1242 285 1254.5 262Q1267 239 1267 202Q1267 139 1246 97.5Q1225 56 1190 32Q1155 8 1108.5 -2Q1062 -12 1010 -12Q948 -12 912 -4Q876 4 858 21Q803 -12 718 -12Q617 -12 577 32Q537 76 547 159L575 385H521Q503 339 478 310.5Q453 282 423 266Q393 250 359 244Q325 238 289 238H223L194 0H14L107 764H353Q396 764 434.5 755Q473 746 500.5 720.5Q528 695 542.5 649.5Q557 604 551 530H593L610 670H784L767 530H853L835 385H749L724 180Q721 156 733 146Q745 136 774 136Q791 136 808 141Q825 146 842 161L996 179Q991 158 999.5 139.5Q1008 121 1034 121Z" glyph-name="peseta" horiz-adv-x="1309" unicode="&#8359;" /><glyph d="M362 385H283L255 158L215 0H58L80 152L109 385H28L46 530H649L631 385H536L511 180Q508 156 518 146.5Q528 137 548 137Q580 137 601 145L592 1Q578 -4 556.5 -8Q535 -12 493 -12Q399 -12 361 32Q323 76 334 159Z" glyph-name="pi" horiz-adv-x="660" unicode="&#960;" /><glyph d="M278 308H90V472H278V660H442V472H630V308H442V120H278Z" glyph-name="plus" horiz-adv-x="720" unicode="+" /><glyph d="M358 308H50V472H358V780H522V472H830V308H522V0H358Z" glyph-name="plus.cap" horiz-adv-x="880" unicode="&#58769;" /><glyph d="M94 -49H0L16 85H110L121 178H255L244 85H337L321 -49H228L216 -143H82Z" glyph-name="plus.inf" horiz-adv-x="414" unicode="&#58747;" /><glyph d="M90 70V234H630V70ZM278 423H90V587H278V710H442V587H630V423H442V300H278Z" glyph-name="plusminus" horiz-adv-x="720" unicode="&#177;" /><glyph d="M310 599V0H124V599H40V764H780V599H696V0H510V599Z" glyph-name="product" horiz-adv-x="820" unicode="&#8719;" /><glyph d="M526 514Q543 514 554 505Q565 496 565 475Q565 443 549.5 429.5Q534 416 514 416H423L435 514ZM504 275Q544 275 582 288.5Q620 302 649.5 329.5Q679 357 696.5 399Q714 441 714 499Q714 539 701.5 568.5Q689 598 667.5 617Q646 636 616 645.5Q586 655 551 655H308L243 125H387L405 274ZM418 -16Q340 -16 274 11.5Q208 39 160 87Q112 135 85 200Q58 265 58 340Q58 432 96 515Q134 598 197 660.5Q260 723 343 759.5Q426 796 516 796Q594 796 660 768.5Q726 741 774 693Q822 645 849 580Q876 515 876 440Q876 348 838 265Q800 182 737 119.5Q674 57 591 20.5Q508 -16 418 -16Z" glyph-name="published" horiz-adv-x="920" unicode="&#8471;" /><glyph glyph-name="punctuationspace" horiz-adv-x="260" unicode="&#8200;" /><glyph d="M315 353Q304 369 290 378.5Q276 388 259 388Q245 388 232.5 380.5Q220 373 210.5 352Q201 331 195 294.5Q189 258 189 201Q189 166 199 154Q209 142 229 142Q246 142 262.5 151.5Q279 161 293 177ZM159 -12Q91 -12 50.5 32.5Q10 77 10 182Q10 281 28 349.5Q46 418 76.5 461Q107 504 146 523Q185 542 227 542Q277 542 302.5 526Q328 510 345 484L357 530H515L492 378L421 -200H247L276 33Q259 15 233.5 1.5Q208 -12 159 -12Z" glyph-name="q" horiz-adv-x="532" unicode="q" /><glyph d="M293 0H114L135 177H314ZM171 248Q166 254 159 278Q152 302 152 331Q152 360 158 382.5Q164 405 178 423.5Q192 442 216.5 459Q241 476 279 494Q311 509 325 531.5Q339 554 339 595Q339 618 329.5 627.5Q320 637 297 637Q280 637 268 632Q256 627 247 614Q238 601 231.5 579Q225 557 221 523L57 579Q66 633 83.5 674Q101 715 131 742Q161 769 206 782.5Q251 796 315 796Q424 796 474.5 760Q525 724 525 636Q525 567 510 523.5Q495 480 470 452Q445 424 413 407Q381 390 347 374Q328 365 316.5 355.5Q305 346 299 335.5Q293 325 291 312.5Q289 300 289 285Q289 266 294 248Z" glyph-name="question" horiz-adv-x="520" unicode="?" /><glyph d="M209 530H388L366 353H187ZM335 282Q340 271 345.5 249.5Q351 228 351 204Q351 179 345 159.5Q339 140 324.5 122.5Q310 105 285 88Q260 71 222 53Q191 38 178.5 20Q166 2 166 -18Q166 -34 176.5 -43.5Q187 -53 211 -53Q227 -53 239.5 -48Q252 -43 261 -31Q270 -19 276 1Q282 21 286 51L449 -5Q440 -56 422.5 -94.5Q405 -133 375 -159.5Q345 -186 300.5 -199Q256 -212 192 -212Q81 -212 30.5 -177Q-20 -142 -20 -61Q-20 -4 -6 33.5Q8 71 31.5 96Q55 121 85.5 138Q116 155 150 170Q170 179 182 187.5Q194 196 201 206Q208 216 210 227.5Q212 239 212 253Q212 261 211.5 268Q211 275 210 282Z" glyph-name="questiondown" horiz-adv-x="520" unicode="&#191;" /><glyph d="M239 780H418L397 603H218ZM361 532Q366 526 373 502Q380 478 380 449Q380 420 374 397.5Q368 375 354 356.5Q340 338 315 321Q290 304 253 286Q221 271 207 248.5Q193 226 193 185Q193 162 202.5 152.5Q212 143 235 143Q251 143 263.5 148Q276 153 285 166Q294 179 300.5 201Q307 223 311 257L475 201Q466 147 448.5 106Q431 65 401 38Q371 11 326 -2.5Q281 -16 217 -16Q108 -16 57.5 20Q7 56 7 144Q7 213 22 256.5Q37 300 62 328Q87 356 119 373Q151 390 185 406Q222 423 232.5 444.5Q243 466 243 495Q243 514 238 532Z" glyph-name="questiondown.cap" horiz-adv-x="520" unicode="&#58436;" /><glyph d="M518 780 463 530H311L316 780ZM290 780 235 530H82L87 780Z" glyph-name="quotedbl" horiz-adv-x="495" unicode="&quot;" /><glyph d="M199 86 104 -164H-42L8 86ZM414 86 319 -164H172L223 86Z" glyph-name="quotedblbase" horiz-adv-x="455" unicode="&#8222;" /><glyph d="M231 530 325 780H472L422 530ZM16 530 110 780H257L207 530Z" glyph-name="quotedblleft" horiz-adv-x="447" unicode="&#8220;" /><glyph d="M304 780 210 530H63L113 780ZM519 780 425 530H278L328 780Z" glyph-name="quotedblright" horiz-adv-x="455" unicode="&#8221;" /><glyph d="M16 530 110 780H257L207 530Z" glyph-name="quoteleft" horiz-adv-x="240" unicode="&#8216;" /><glyph d="M304 780 210 530H63L113 780Z" glyph-name="quoteright" horiz-adv-x="240" unicode="&#8217;" /><glyph d="M199 86 104 -164H-42L8 86Z" glyph-name="quotesinglbase" horiz-adv-x="240" unicode="&#8218;" /><glyph d="M290 780 235 530H82L87 780Z" glyph-name="quotesingle" horiz-adv-x="267" unicode="&apos;" /><glyph d="M311 372Q261 372 221 342L180 0H5L51 378L67 530H224V478Q248 513 275.5 527.5Q303 542 331 542Q359 542 375 530L346 368Q340 370 330.5 371Q321 372 311 372Z" glyph-name="r" horiz-adv-x="367" unicode="r" /><glyph d="M395 800 308 592H129L199 800ZM311 372Q261 372 221 342L180 0H5L51 378L67 530H224V478Q248 513 275.5 527.5Q303 542 331 542Q359 542 375 530L346 368Q340 370 330.5 371Q321 372 311 372Z" glyph-name="racute" horiz-adv-x="367" unicode="&#341;" /><glyph d="M869 764 428 0H228L146 340L30 316V489L279 546L352 205L666 764Z" glyph-name="radical" horiz-adv-x="888" unicode="&#8730;" /><glyph d="M436 800 322 592H126L64 800H207L239 716L293 800ZM311 372Q261 372 221 342L180 0H5L51 378L67 530H224V478Q248 513 275.5 527.5Q303 542 331 542Q359 542 375 530L346 368Q340 370 330.5 371Q321 372 311 372Z" glyph-name="rcaron" horiz-adv-x="367" unicode="&#345;" /><glyph d="M179 -40 122 -200H-40L-6 -40ZM311 372Q261 372 221 342L180 0H5L51 378L67 530H224V478Q248 513 275.5 527.5Q303 542 331 542Q359 542 375 530L346 368Q340 370 330.5 371Q321 372 311 372Z" glyph-name="rcommaaccent" horiz-adv-x="367" unicode="&#343;" /><glyph d="M418 -16Q340 -16 274 11.5Q208 39 160 87Q112 135 85 200Q58 265 58 340Q58 432 96 515Q134 598 197 660.5Q260 723 343 759.5Q426 796 516 796Q594 796 660 768.5Q726 741 774 693Q822 645 849 580Q876 515 876 440Q876 348 838 265Q800 182 737 119.5Q674 57 591 20.5Q508 -16 418 -16ZM409 456 417 514H518Q530 514 540.5 509Q551 504 549 485Q547 465 534.5 460.5Q522 456 510 456ZM507 125H680L598 335Q637 353 662.5 388Q688 423 696 485Q702 534 691.5 567Q681 600 658.5 619.5Q636 639 603.5 647Q571 655 533 655H290L225 125H369L392 314H442Z" glyph-name="registered" horiz-adv-x="920" unicode="&#174;" /><glyph d="M67 640Q71 672 87 700.5Q103 729 126.5 750Q150 771 180 783.5Q210 796 242 796Q274 796 301 783.5Q328 771 347 750Q366 729 374.5 700.5Q383 672 379 640Q375 608 359.5 579.5Q344 551 320 530Q296 509 266 496.5Q236 484 204 484Q172 484 145 496.5Q118 509 99.5 530Q81 551 72 579.5Q63 608 67 640ZM201 654 205 690H244Q257 690 256 672Q253 654 240 654ZM245 539H307L274 609Q288 616 298.5 631Q309 646 312 672Q315 693 311 706.5Q307 720 298 728Q289 736 276.5 739Q264 742 249 742H158L133 539H187L194 601H217Z" glyph-name="registered.superior" horiz-adv-x="370" unicode="&#58644;" /><glyph d="M452 780 442 530H295L261 780ZM237 780 227 530H80L46 780Z" glyph-name="reversequotedblleft" horiz-adv-x="455" unicode="&#8223;" /><glyph d="M237 780 227 530H80L46 780Z" glyph-name="reversequoteleft" horiz-adv-x="240" unicode="&#8219;" /><glyph d="M383 696Q386 724 358 724Q330 724 327 696Q324 668 352 668Q380 668 383 696ZM235 696Q242 749 277.5 782.5Q313 816 370 816Q427 816 454.5 782.5Q482 749 475 696Q468 643 432.5 609.5Q397 576 340 576Q283 576 255.5 609.5Q228 643 235 696Z" glyph-name="ring" horiz-adv-x="620" unicode="&#730;" /><glyph d="M215 121Q239 121 251.5 135Q264 149 264 174Q264 192 251 198Q238 204 215 206Q170 210 135.5 217Q101 224 77.5 238.5Q54 253 42.5 276.5Q31 300 31 336Q31 400 52 440Q73 480 107 502.5Q141 525 184.5 533.5Q228 542 273 542Q318 542 353 536.5Q388 531 412 517Q436 503 448 479Q460 455 459 418L281 357Q282 364 282.5 373Q283 382 280.5 390Q278 398 272.5 403.5Q267 409 257 409Q239 409 231 395.5Q223 382 223 360Q223 343 234.5 336.5Q246 330 266 328Q309 325 343 318.5Q377 312 400 298.5Q423 285 435.5 262Q448 239 448 202Q448 139 427 97.5Q406 56 371 32Q336 8 289.5 -2Q243 -12 191 -12Q148 -12 112 -7.5Q76 -3 50 11Q24 25 10.5 50.5Q-3 76 -1 118L177 179Q172 158 180.5 139.5Q189 121 215 121Z" glyph-name="s" horiz-adv-x="490" unicode="s" /><glyph d="M215 121Q239 121 251.5 135Q264 149 264 174Q264 192 251 198Q238 204 215 206Q170 210 135.5 217Q101 224 77.5 238.5Q54 253 42.5 276.5Q31 300 31 336Q31 400 52 440Q73 480 107 502.5Q141 525 184.5 533.5Q228 542 273 542Q318 542 353 536.5Q388 531 412 517Q436 503 448 479Q460 455 459 418L281 357Q282 364 282.5 373Q283 382 280.5 390Q278 398 272.5 403.5Q267 409 257 409Q239 409 231 395.5Q223 382 223 360Q223 343 234.5 336.5Q246 330 266 328Q309 325 343 318.5Q377 312 400 298.5Q423 285 435.5 262Q448 239 448 202Q448 139 427 97.5Q406 56 371 32Q336 8 289.5 -2Q243 -12 191 -12Q148 -12 112 -7.5Q76 -3 50 11Q24 25 10.5 50.5Q-3 76 -1 118L177 179Q172 158 180.5 139.5Q189 121 215 121ZM446 800 359 592H180L250 800Z" glyph-name="sacute" horiz-adv-x="489" unicode="&#347;" /><glyph d="M215 121Q239 121 251.5 135Q264 149 264 174Q264 192 251 198Q238 204 215 206Q170 210 135.5 217Q101 224 77.5 238.5Q54 253 42.5 276.5Q31 300 31 336Q31 400 52 440Q73 480 107 502.5Q141 525 184.5 533.5Q228 542 273 542Q318 542 353 536.5Q388 531 412 517Q436 503 448 479Q460 455 459 418L281 357Q282 364 282.5 373Q283 382 280.5 390Q278 398 272.5 403.5Q267 409 257 409Q239 409 231 395.5Q223 382 223 360Q223 343 234.5 336.5Q246 330 266 328Q309 325 343 318.5Q377 312 400 298.5Q423 285 435.5 262Q448 239 448 202Q448 139 427 97.5Q406 56 371 32Q336 8 289.5 -2Q243 -12 191 -12Q148 -12 112 -7.5Q76 -3 50 11Q24 25 10.5 50.5Q-3 76 -1 118L177 179Q172 158 180.5 139.5Q189 121 215 121ZM486 800 372 592H176L114 800H257L289 716L343 800Z" glyph-name="scaron" horiz-adv-x="489" unicode="&#353;" /><glyph d="M215 121Q239 121 251.5 135Q264 149 264 174Q264 192 251 198Q238 204 215 206Q170 210 135.5 217Q101 224 77.5 238.5Q54 253 42.5 276.5Q31 300 31 336Q31 400 52 440Q73 480 107 502.5Q141 525 184.5 533.5Q228 542 273 542Q318 542 353 536.5Q388 531 412 517Q436 503 448 479Q460 455 459 418L281 357Q282 364 282.5 373Q283 382 280.5 390Q278 398 272.5 403.5Q267 409 257 409Q239 409 231 395.5Q223 382 223 360Q223 343 234.5 336.5Q246 330 266 328Q309 325 343 318.5Q377 312 400 298.5Q423 285 435.5 262Q448 239 448 202Q448 146 431.5 107.5Q415 69 386.5 44Q358 19 319.5 6.5Q281 -6 237 -10L228 -33Q253 -38 272.5 -46.5Q292 -55 304.5 -67Q317 -79 321.5 -95Q326 -111 321 -132Q316 -154 302.5 -170Q289 -186 269.5 -196Q250 -206 226.5 -211Q203 -216 178 -216Q125 -216 94 -207Q63 -198 52 -193L86 -117Q93 -120 101 -124Q108 -127 116 -129.5Q124 -132 134 -134Q154 -137 168.5 -133Q183 -129 185 -113Q187 -99 167 -89Q147 -79 111 -75L141 -10Q108 -8 81 -1Q54 6 35.5 20.5Q17 35 7 58.5Q-3 82 -1 118L177 179Q172 158 180.5 139.5Q189 121 215 121Z" glyph-name="scedilla" horiz-adv-x="489" unicode="&#351;" /><glyph d="M215 121Q239 121 251.5 135Q264 149 264 174Q264 192 251 198Q238 204 215 206Q170 210 135.5 217Q101 224 77.5 238.5Q54 253 42.5 276.5Q31 300 31 336Q31 400 52 440Q73 480 107 502.5Q141 525 184.5 533.5Q228 542 273 542Q318 542 353 536.5Q388 531 412 517Q436 503 448 479Q460 455 459 418L281 357Q282 364 282.5 373Q283 382 280.5 390Q278 398 272.5 403.5Q267 409 257 409Q239 409 231 395.5Q223 382 223 360Q223 343 234.5 336.5Q246 330 266 328Q309 325 343 318.5Q377 312 400 298.5Q423 285 435.5 262Q448 239 448 202Q448 139 427 97.5Q406 56 371 32Q336 8 289.5 -2Q243 -12 191 -12Q148 -12 112 -7.5Q76 -3 50 11Q24 25 10.5 50.5Q-3 76 -1 118L177 179Q172 158 180.5 139.5Q189 121 215 121ZM88 592 202 800H398L460 592H317L285 676L231 592Z" glyph-name="scircumflex" horiz-adv-x="489" unicode="&#349;" /><glyph d="M215 121Q239 121 251.5 135Q264 149 264 174Q264 192 251 198Q238 204 215 206Q170 210 135.5 217Q101 224 77.5 238.5Q54 253 42.5 276.5Q31 300 31 336Q31 400 52 440Q73 480 107 502.5Q141 525 184.5 533.5Q228 542 273 542Q318 542 353 536.5Q388 531 412 517Q436 503 448 479Q460 455 459 418L281 357Q282 364 282.5 373Q283 382 280.5 390Q278 398 272.5 403.5Q267 409 257 409Q239 409 231 395.5Q223 382 223 360Q223 343 234.5 336.5Q246 330 266 328Q309 325 343 318.5Q377 312 400 298.5Q423 285 435.5 262Q448 239 448 202Q448 139 427 97.5Q406 56 371 32Q336 8 289.5 -2Q243 -12 191 -12Q148 -12 112 -7.5Q76 -3 50 11Q24 25 10.5 50.5Q-3 76 -1 118L177 179Q172 158 180.5 139.5Q189 121 215 121ZM291 -40 234 -200H71L106 -40Z" glyph-name="scommaaccent" horiz-adv-x="489" unicode="&#537;" /><glyph d="M472 764 424 423H275V764ZM244 764 196 423H47V764Z" glyph-name="second" horiz-adv-x="495" unicode="&#8243;" /><glyph d="M262 225Q302 225 319.5 245.5Q337 266 337 306Q337 330 323.5 342.5Q310 355 278 355Q238 355 220.5 334.5Q203 314 203 274Q203 250 216.5 237.5Q230 225 262 225ZM347 792Q397 792 434 785.5Q471 779 495.5 760Q520 741 531.5 707.5Q543 674 541 620L362 559Q363 570 364.5 584.5Q366 599 363.5 612.5Q361 626 353 635.5Q345 645 328 645Q302 645 288.5 620Q275 595 275 563Q275 534 290 520Q305 506 340 501Q382 495 416 484Q450 473 473 455Q496 437 508.5 410.5Q521 384 521 346Q521 190 408 147Q433 135 442.5 103.5Q452 72 452 37Q452 -29 433 -76.5Q414 -124 380 -154Q346 -184 298.5 -198Q251 -212 193 -212Q146 -212 108 -205Q70 -198 44.5 -178.5Q19 -159 6.5 -126Q-6 -93 -1 -40L178 21Q176 10 175 -5Q174 -20 176.5 -33.5Q179 -47 187.5 -56Q196 -65 213 -65Q239 -65 252.5 -40.5Q266 -16 266 16Q266 45 250.5 59.5Q235 74 200 79Q158 85 124 95.5Q90 106 67 124Q44 142 31.5 168.5Q19 195 19 233Q19 390 133 433Q120 439 111.5 450Q103 461 97.5 476Q92 491 89.5 508.5Q87 526 87 543Q87 609 106 656Q125 703 159.5 733.5Q194 764 241.5 778Q289 792 347 792Z" glyph-name="section" horiz-adv-x="550" unicode="&#167;" /><glyph d="M210 177 102 -109H-32L24 177ZM221 319H42L63 495H242Z" glyph-name="semicolon" horiz-adv-x="265" unicode=";" /><glyph d="M207 177 99 -109H-35L21 177ZM218 319H39L60 495H239Z" glyph-name="semicolon.T" horiz-adv-x="260" /><glyph d="M161 504Q111 504 83 519.5Q55 535 53 580L136 609Q136 589 144.5 584Q153 579 171 579Q182 579 193.5 582.5Q205 586 205 596Q205 607 196 610.5Q187 614 163 617Q149 619 133 621.5Q117 624 104 631Q91 638 82.5 651Q74 664 74 686Q74 712 84 731Q94 750 110.5 762Q127 774 149 780Q171 786 194 786Q242 786 268 771.5Q294 757 296 719L213 691Q213 711 185 711Q175 711 166.5 707.5Q158 704 157 696Q157 690 161.5 687Q166 684 186 682Q210 680 228.5 677Q247 674 260.5 666.5Q274 659 281 645Q288 631 288 609Q288 582 277 562.5Q266 543 248 530Q230 517 207.5 510.5Q185 504 161 504ZM488 510H412L392 649L375 510H294L327 780H444L465 631L522 780H639L606 510H525L542 649Z" glyph-name="servicemark" horiz-adv-x="618" unicode="&#8480;" /><glyph d="M61 0 276 467 342 605 235 604H64L83 764H547L534 658L252 0Z" glyph-name="seven" horiz-adv-x="520" unicode="7" /><glyph d="M56 0 258 468 324 605 217 604H59L78 764H529L516 658L247 0Z" glyph-name="seven.LP" horiz-adv-x="497" unicode="&#58684;" /><glyph d="M8 -200 139 48 182 123 114 122H3L14 214H324L316 154L143 -200Z" glyph-name="seven.inf" horiz-adv-x="362" unicode="&#58744;" /><glyph d="M274 371Q254 371 244 358.5Q234 346 218 320Q209 245 209 204Q209 169 215.5 154.5Q222 140 236 140Q259 140 271.5 162.5Q284 185 290 215.5Q296 246 297 276.5Q298 307 298 324Q298 371 274 371ZM294 624Q280 624 271 617Q262 610 256 590.5Q250 571 244.5 537.5Q239 504 233 452Q261 493 292 508.5Q323 524 366 524Q430 524 455.5 489Q481 454 481 377Q481 333 477.5 287.5Q474 242 464 199Q454 156 435.5 117.5Q417 79 388 50Q359 21 317 4.5Q275 -12 217 -12Q164 -12 128 0Q92 12 70.5 40.5Q49 69 39.5 116Q30 163 30 232Q30 378 48.5 481.5Q67 585 102.5 650.5Q138 716 189.5 746Q241 776 306 776Q359 776 396.5 769Q434 762 458 744Q482 726 493 694Q504 662 505 612L323 550Q323 560 324.5 573Q326 586 324.5 597Q323 608 316.5 616Q310 624 294 624Z" glyph-name="six" horiz-adv-x="520" unicode="6" /><glyph d="M305 371Q274 371 254 353Q234 335 217 305Q211 258 211 227Q211 176 225 158Q239 140 265 140Q310 140 333.5 179Q357 218 357 304Q357 339 345.5 355Q334 371 305 371ZM335 624Q316 624 300 615Q284 606 271.5 585Q259 564 249 529Q239 494 233 442Q252 469 274 485Q296 501 318.5 509.5Q341 518 364 521Q387 524 410 524Q479 524 509.5 483Q540 442 540 354Q540 264 524 195.5Q508 127 473 81Q438 35 382.5 11.5Q327 -12 248 -12Q188 -12 146.5 0.5Q105 13 80 40Q55 67 44 110Q33 153 33 213Q33 339 47.5 442.5Q62 546 99 620.5Q136 695 200.5 735.5Q265 776 366 776Q409 776 445.5 770Q482 764 508 746Q534 728 549 696Q564 664 565 612L383 550Q388 579 379 601.5Q370 624 335 624Z" glyph-name="six.LP" horiz-adv-x="565" unicode="&#58683;" /><glyph d="M145 -2Q133 -2 126.5 -11.5Q120 -21 116.5 -34Q113 -47 112.5 -60.5Q112 -74 112 -81Q112 -119 125 -119Q142 -119 149.5 -94Q157 -69 157 -23Q157 -2 145 -2ZM155 133Q148 133 144 130Q140 127 137 118Q134 109 131.5 92.5Q129 76 126 49Q143 70 162.5 78Q182 86 208 86Q251 86 268 66Q285 46 285 3Q285 -50 277 -89Q269 -128 249 -154Q229 -180 196 -193Q163 -206 114 -206Q78 -206 54 -199Q30 -192 15.5 -175.5Q1 -159 -5 -133Q-11 -107 -11 -68Q-11 -17 -5 34.5Q1 86 20 127.5Q39 169 74.5 194.5Q110 220 169 220Q235 220 264 201Q293 182 295 140L169 97Q169 101 170 107.5Q171 114 170 119.5Q169 125 166 129Q163 133 155 133Z" glyph-name="six.inf" horiz-adv-x="362" unicode="&#58743;" /><glyph glyph-name="sixperemspace" horiz-adv-x="167" unicode="&#8198;" /><glyph d="M136 -90H-42L304 870H483Z" glyph-name="slash" horiz-adv-x="426" unicode="/" /><glyph d="M170 -20H-15L281 800H466Z" glyph-name="slash.cap" horiz-adv-x="436" unicode="&#58465;" /><glyph glyph-name="space" horiz-adv-x="161" unicode=" " /><glyph d="M461 790Q473 771 496 742.5Q519 714 550 682Q581 650 617.5 618Q654 586 694 560Q727 539 756.5 515.5Q786 492 808.5 464.5Q831 437 844.5 405Q858 373 858 334Q858 297 844.5 265.5Q831 234 807 210.5Q783 187 751 173.5Q719 160 682 160Q645 160 614 173.5Q583 187 558 209.5Q533 232 514 261Q495 290 482 321L479 320Q483 269 489.5 227Q496 185 505.5 147Q515 109 528.5 73Q542 37 561 0H359Q378 37 391.5 73Q405 109 414.5 147Q424 185 430.5 227Q437 269 441 320L438 321Q425 290 406 261Q387 232 362 209.5Q337 187 306 173.5Q275 160 238 160Q201 160 169 173.5Q137 187 113 210.5Q89 234 75.5 265.5Q62 297 62 334Q62 373 75.5 405Q89 437 111.5 464.5Q134 492 163.5 515.5Q193 539 226 560Q266 586 302.5 618Q339 650 370 682Q401 714 424 742.5Q447 771 459 790Z" glyph-name="spade" horiz-adv-x="920" unicode="&#9824;" /><glyph d="M374 390 287 477 403 593 490 506 577 593 693 477 606 390 693 303 577 187 490 274 403 187 287 303ZM270 614V166H710V614ZM100 780H880V0H100Z" glyph-name="squaremultiply" horiz-adv-x="980" unicode="&#8864;" /><glyph d="M381 776Q443 776 482 765Q521 754 542.5 732.5Q564 711 570.5 679Q577 647 574 604L394 543Q399 587 395 608Q391 629 363 629Q335 629 325 608Q315 587 310 543L301 470H469L451 325H283L263 159H520L501 0H-2L17 159H89L109 325H37L55 470H127L139 565Q146 617 158.5 657Q171 697 197.5 723Q224 749 268 762.5Q312 776 381 776Z" glyph-name="sterling" horiz-adv-x="570" unicode="&#163;" /><glyph d="M53 764H635V599H483L355 600L550 450V331L352 164L480 165H650V0H43V144L344 390L53 612Z" glyph-name="summation" horiz-adv-x="690" unicode="&#8721;" /><glyph d="M41 530H103L120 670H294L277 530H383L365 385H259L234 180Q231 156 241 146Q251 136 271 136Q286 136 300 138.5Q314 141 324 144L315 1Q301 -4 279.5 -8Q258 -12 215 -12Q122 -12 84.5 32Q47 76 57 159L85 385H23Z" glyph-name="t" horiz-adv-x="386" unicode="t" /><glyph d="M314 214H238L234 180Q231 156 241 146Q251 136 271 136Q286 136 300 138.5Q314 141 324 144L315 1Q301 -4 279.5 -8Q258 -12 215 -12Q122 -12 84.5 32Q47 76 57 159L64 214H2L14 317H76L85 385H23L41 530H103L120 670H294L277 530H383L365 385H259L250 317H326Z" glyph-name="tbar" horiz-adv-x="386" unicode="&#359;" /><glyph d="M445 800 381 560H310L345 800ZM41 530H103L120 670H294L277 530H383L365 385H259L234 180Q231 156 241 146Q251 136 271 136Q286 136 300 138.5Q314 141 324 144L315 1Q301 -4 279.5 -8Q258 -12 215 -12Q122 -12 84.5 32Q47 76 57 159L85 385H23Z" glyph-name="tcaron" horiz-adv-x="386" unicode="&#357;" /><glyph d="M256 -40 199 -200H36L71 -40ZM41 530H103L120 670H294L277 530H383L365 385H259L234 180Q231 156 241 146Q251 136 271 136Q286 136 300 138.5Q314 141 324 144L315 1Q301 -4 279.5 -8Q258 -12 215 -12Q122 -12 84.5 32Q47 76 57 159L85 385H23Z" glyph-name="tcommaaccent" horiz-adv-x="386" unicode="&#355;" /><glyph glyph-name="thinspace" horiz-adv-x="200" unicode="&#8201;" /><glyph d="M202 177Q213 161 226.5 151.5Q240 142 257 142Q270 142 282.5 149.5Q295 157 305 178Q315 199 321 235.5Q327 272 327 329Q327 364 317 376Q307 388 287 388Q270 388 254 378.5Q238 369 224 353ZM104 800H279L242 497Q259 515 283.5 528.5Q308 542 357 542Q425 542 465 497.5Q505 453 505 348Q505 249 487 180.5Q469 112 439 69Q409 26 370 7Q331 -12 289 -12Q265 -12 248 -8.5Q231 -5 219 1.5Q207 8 199 16Q191 24 185 33L156 -200H-19L38 265Z" glyph-name="thorn" horiz-adv-x="532" unicode="&#254;" /><glyph d="M236 144Q270 144 284.5 173Q299 202 299 259Q299 289 286.5 301Q274 313 248 313H194L213 470H267Q278 470 287 474.5Q296 479 302 491Q308 503 311.5 523.5Q315 544 315 576Q315 603 308.5 611.5Q302 620 285 620Q272 620 264 615Q256 610 250.5 597.5Q245 585 241 563.5Q237 542 233 509L68 566Q77 621 93.5 660.5Q110 700 137.5 725.5Q165 751 206 763.5Q247 776 307 776Q354 776 389 767.5Q424 759 447.5 739.5Q471 720 482.5 687Q494 654 494 605Q494 559 487 524.5Q480 490 468 464.5Q456 439 439.5 422.5Q423 406 404 397Q422 392 435.5 383.5Q449 375 458 360Q467 345 472 321.5Q477 298 477 264Q477 207 464.5 156.5Q452 106 421 68.5Q390 31 339 9.5Q288 -12 211 -12Q151 -12 111.5 0Q72 12 49.5 38.5Q27 65 19.5 106Q12 147 17 204L196 265Q194 251 191.5 230.5Q189 210 191 190.5Q193 171 203 157.5Q213 144 236 144Z" glyph-name="three" horiz-adv-x="520" unicode="3" /><glyph d="M244 144Q287 144 306.5 172Q326 200 326 254Q326 289 308.5 301Q291 313 256 313H202L221 470H275Q290 470 301.5 474Q313 478 321 489.5Q329 501 333 521.5Q337 542 337 575Q337 601 326.5 610.5Q316 620 293 620Q277 620 266 615Q255 610 247.5 597.5Q240 585 235 563.5Q230 542 226 509L61 566Q70 621 86 660.5Q102 700 131 725.5Q160 751 204.5 763.5Q249 776 315 776Q420 776 468.5 741Q517 706 517 618Q517 563 509.5 525Q502 487 489 461.5Q476 436 458.5 421Q441 406 422 397Q459 387 481.5 357.5Q504 328 504 265Q504 204 491 153Q478 102 445.5 65.5Q413 29 358 8.5Q303 -12 219 -12Q157 -12 114.5 -1.5Q72 9 46 34Q20 59 10 100.5Q0 142 5 204L184 265Q182 246 180.5 224.5Q179 203 183.5 185Q188 167 201.5 155.5Q215 144 244 144Z" glyph-name="three.LP" horiz-adv-x="535" unicode="&#58680;" /><glyph d="M127 -117Q144 -117 151.5 -101.5Q159 -86 159 -59Q159 -44 152 -38.5Q145 -33 128 -33H96L108 57H140Q153 57 158 69.5Q163 82 163 117Q163 131 149 131Q137 131 132.5 120Q128 109 123 73L9 112Q15 140 25.5 160.5Q36 181 54 194.5Q72 208 98.5 214Q125 220 163 220Q227 220 258 198Q289 176 289 113Q289 68 273.5 46.5Q258 25 235 15Q258 9 270.5 -7Q283 -23 283 -63Q283 -93 275.5 -119Q268 -145 248.5 -164.5Q229 -184 196 -195Q163 -206 111 -206Q81 -206 55.5 -202Q30 -198 12 -186Q-6 -174 -15 -153Q-24 -132 -22 -97L105 -53Q104 -61 102.5 -71.5Q101 -82 102 -92.5Q103 -103 108.5 -110Q114 -117 127 -117Z" glyph-name="three.inf" horiz-adv-x="362" unicode="&#58740;" /><glyph glyph-name="threeperemspace" horiz-adv-x="333" unicode="&#8196;" /><glyph d="M45 253 65 417H727L707 253Z" glyph-name="threequarteremdash" horiz-adv-x="770" unicode="&#58482;" /><glyph d="M51 307 71 471H733L713 307Z" glyph-name="threequarteremdash.cap" horiz-adv-x="770" unicode="&#58501;" /><glyph d="M706 298 640 175 684 177ZM793 86 782 0H662L673 86H521L530 162L694 420H834L804 177H839L828 86ZM650 764H781L297 0H166ZM195 437Q212 437 219.5 452.5Q227 468 227 495Q227 510 220 515.5Q213 521 196 521H164L176 611H208Q221 611 226 623.5Q231 636 231 671Q231 685 217 685Q205 685 200.5 674Q196 663 191 627L77 666Q83 694 93.5 714.5Q104 735 122 748.5Q140 762 166.5 768Q193 774 231 774Q295 774 326 752Q357 730 357 667Q357 622 341.5 600.5Q326 579 303 569Q326 563 338.5 547Q351 531 351 491Q351 461 343.5 435Q336 409 316.5 389.5Q297 370 264 359Q231 348 179 348Q149 348 123.5 352Q98 356 80 368Q62 380 53 401Q44 422 46 457L173 501Q172 493 170.5 482.5Q169 472 170 461.5Q171 451 176.5 444Q182 437 195 437Z" glyph-name="threequarters" horiz-adv-x="884" unicode="&#190;" /><glyph d="M195 433Q212 433 219.5 448.5Q227 464 227 491Q227 506 220 511.5Q213 517 196 517H164L176 607H208Q221 607 226 619.5Q231 632 231 667Q231 681 217 681Q205 681 200.5 670Q196 659 191 623L77 662Q83 690 93.5 710.5Q104 731 122 744.5Q140 758 166.5 764Q193 770 231 770Q295 770 326 748Q357 726 357 663Q357 618 341.5 596.5Q326 575 303 565Q326 559 338.5 543Q351 527 351 487Q351 457 343.5 431Q336 405 316.5 385.5Q297 366 264 355Q231 344 179 344Q149 344 123.5 348Q98 352 80 364Q62 376 53 397Q44 418 46 453L173 497Q172 489 170.5 478.5Q169 468 170 457.5Q171 447 176.5 440Q182 433 195 433Z" glyph-name="threesuperior" horiz-adv-x="362" unicode="&#179;" /><glyph d="M580 772Q572 730 559.5 694.5Q547 659 528.5 632.5Q510 606 484.5 591Q459 576 425 576Q393 576 372 587.5Q351 599 336 613.5Q321 628 309.5 639.5Q298 651 284 651Q272 651 265.5 643.5Q259 636 256 628Q252 617 252 605L130 620Q137 662 149.5 697.5Q162 733 181 759.5Q200 786 225.5 801Q251 816 285 816Q317 816 337.5 804.5Q358 793 373 778.5Q388 764 399.5 752.5Q411 741 425 741Q436 741 443 748Q450 755 453 764Q457 774 458 787Z" glyph-name="tilde" horiz-adv-x="620" unicode="&#732;" /><glyph d="M198 510H114L138 703H64L73 780H305L296 703H222ZM488 510H412L392 649L375 510H294L327 780H444L465 631L522 780H639L606 510H525L542 649Z" glyph-name="trademark" horiz-adv-x="618" unicode="&#8482;" /><glyph d="M800 780 410 104 20 780Z" glyph-name="triagdn" horiz-adv-x="820" unicode="&#9660;" /><glyph d="M720 0 44 390 720 780Z" glyph-name="triaglf" horiz-adv-x="820" unicode="&#9668;" /><glyph d="M44 780 720 390 44 0Z" glyph-name="triagrt" horiz-adv-x="820" unicode="&#9658;" /><glyph d="M20 0 410 676 800 0Z" glyph-name="triagup" horiz-adv-x="820" unicode="&#9650;" /><glyph d="M747 780 692 530H540L545 780ZM518 780 463 530H311L316 780ZM290 780 235 530H82L87 780Z" glyph-name="tripleprime" horiz-adv-x="724" unicode="&#8244;" /><glyph d="M299 620Q290 620 282 615Q274 610 267 597Q260 584 254.5 560.5Q249 537 245 500L76 558Q84 613 97 654Q110 695 136 722Q162 749 205.5 762.5Q249 776 319 776Q422 776 466 740Q510 704 510 622Q510 556 499 511.5Q488 467 464 432.5Q440 398 401 367.5Q362 337 305 299Q273 277 253.5 260.5Q234 244 223.5 228.5Q213 213 209 196.5Q205 180 202 158H461L442 0H-4Q4 66 11 115Q18 164 27.5 201Q37 238 51 266Q65 294 87.5 318.5Q110 343 143 367.5Q176 392 222 421Q253 440 273.5 456Q294 472 306.5 489.5Q319 507 324 528.5Q329 550 329 582Q329 602 322.5 611Q316 620 299 620Z" glyph-name="two" horiz-adv-x="520" unicode="2" /><glyph d="M308 620Q295 620 284.5 615Q274 610 266 597Q258 584 252 560.5Q246 537 242 500L73 558Q82 613 96 654Q110 695 137.5 722Q165 749 209.5 762.5Q254 776 324 776Q377 776 416 767Q455 758 480.5 737Q506 716 518.5 680.5Q531 645 531 593Q531 534 519.5 495Q508 456 482.5 424.5Q457 393 416 363.5Q375 334 315 294Q282 272 261 256.5Q240 241 227.5 226.5Q215 212 209 196Q203 180 200 158H482L463 0H-6Q2 66 10 114.5Q18 163 29 199.5Q40 236 55.5 263.5Q71 291 95 315Q119 339 152.5 362.5Q186 386 232 416Q263 435 285 451.5Q307 468 321.5 486Q336 504 343 525.5Q350 547 350 577Q350 600 340.5 610Q331 620 308 620Z" glyph-name="two.LP" horiz-adv-x="538" unicode="&#58679;" /><glyph d="M160 131Q152 131 145.5 119.5Q139 108 134 68L14 109Q19 137 28 158Q37 179 54.5 193Q72 207 100.5 213.5Q129 220 173 220Q238 220 269 198.5Q300 177 300 130Q300 98 294.5 75.5Q289 53 274.5 35Q260 17 235 0Q210 -17 171 -39Q152 -50 141 -58.5Q130 -67 124 -75Q118 -83 115.5 -91Q113 -99 112 -109H274L263 -200H-31Q-24 -146 -18 -112Q-12 -78 1.5 -55Q15 -32 40 -13Q65 6 110 30Q128 40 140.5 48Q153 56 160.5 65.5Q168 75 171 86.5Q174 98 174 115Q174 131 160 131Z" glyph-name="two.inf" horiz-adv-x="362" unicode="&#58739;" /><glyph d="M228 681Q220 681 213.5 669.5Q207 658 202 618L82 659Q87 687 96 708Q105 729 122.5 743Q140 757 168.5 763.5Q197 770 241 770Q306 770 337 748.5Q368 727 368 680Q368 648 362.5 625.5Q357 603 342.5 585Q328 567 303 550Q278 533 239 511Q220 500 209 491.5Q198 483 192 475Q186 467 183.5 459Q181 451 180 441H342L331 350H37Q44 404 50 438Q56 472 69.5 495Q83 518 108 537Q133 556 178 580Q196 590 208.5 598Q221 606 228.5 615.5Q236 625 239 636.5Q242 648 242 665Q242 681 228 681Z" glyph-name="twosuperior" horiz-adv-x="362" unicode="&#178;" /><glyph d="M294 46Q258 15 222.5 1.5Q187 -12 135 -12Q60 -12 34.5 28.5Q9 69 19 147L66 530H240L197 185Q194 159 203 150.5Q212 142 227 142Q250 142 266 152.5Q282 163 295 177L339 530H513L466 152L452 0H295Z" glyph-name="u" horiz-adv-x="534" unicode="u" /><glyph d="M475 800 388 592H209L279 800ZM294 46Q258 15 222.5 1.5Q187 -12 135 -12Q60 -12 34.5 28.5Q9 69 19 147L66 530H240L197 185Q194 159 203 150.5Q212 142 227 142Q250 142 266 152.5Q282 163 295 177L339 530H513L466 152L452 0H295Z" glyph-name="uacute" horiz-adv-x="534" unicode="&#250;" /><glyph d="M296 576Q244 576 212 591Q180 606 164 634.5Q148 663 145.5 704.5Q143 746 151 800H281Q276 766 283.5 747Q291 728 315 728Q339 728 351 747Q363 766 367 800H497Q491 746 478 704.5Q465 663 442 634.5Q419 606 383.5 591Q348 576 296 576ZM294 46Q258 15 222.5 1.5Q187 -12 135 -12Q60 -12 34.5 28.5Q9 69 19 147L66 530H240L197 185Q194 159 203 150.5Q212 142 227 142Q250 142 266 152.5Q282 163 295 177L339 530H513L466 152L452 0H295Z" glyph-name="ubreve" horiz-adv-x="534" unicode="&#365;" /><glyph d="M111 592 225 800H421L483 592H340L308 676L254 592ZM294 46Q258 15 222.5 1.5Q187 -12 135 -12Q60 -12 34.5 28.5Q9 69 19 147L66 530H240L197 185Q194 159 203 150.5Q212 142 227 142Q250 142 266 152.5Q282 163 295 177L339 530H513L466 152L452 0H295Z" glyph-name="ucircumflex" horiz-adv-x="534" unicode="&#251;" /><glyph d="M508 603H329L350 780H529ZM269 603H90L111 780H290ZM294 46Q258 15 222.5 1.5Q187 -12 135 -12Q60 -12 34.5 28.5Q9 69 19 147L66 530H240L197 185Q194 159 203 150.5Q212 142 227 142Q250 142 266 152.5Q282 163 295 177L339 530H513L466 152L452 0H295Z" glyph-name="udieresis" horiz-adv-x="534" unicode="&#252;" /><glyph d="M369 800 387 592H208L173 800ZM294 46Q258 15 222.5 1.5Q187 -12 135 -12Q60 -12 34.5 28.5Q9 69 19 147L66 530H240L197 185Q194 159 203 150.5Q212 142 227 142Q250 142 266 152.5Q282 163 295 177L339 530H513L466 152L452 0H295Z" glyph-name="ugrave" horiz-adv-x="534" unicode="&#249;" /><glyph d="M594 800 497 592H318L398 800ZM378 800 281 592H102L182 800ZM294 46Q258 15 222.5 1.5Q187 -12 135 -12Q60 -12 34.5 28.5Q9 69 19 147L66 530H240L197 185Q194 159 203 150.5Q212 142 227 142Q250 142 266 152.5Q282 163 295 177L339 530H513L466 152L452 0H295Z" glyph-name="uhungarumlaut" horiz-adv-x="534" unicode="&#369;" /><glyph d="M195 780H447L427 616H175ZM294 46Q258 15 222.5 1.5Q187 -12 135 -12Q60 -12 34.5 28.5Q9 69 19 147L66 530H240L197 185Q194 159 203 150.5Q212 142 227 142Q250 142 266 152.5Q282 163 295 177L339 530H513L466 152L452 0H295Z" glyph-name="umacron" horiz-adv-x="534" unicode="&#363;" /><glyph d="M-32 -200 -18 -75H286L271 -200Z" glyph-name="underscore" horiz-adv-x="368" unicode="_" /><glyph d="M-34 -200 -20 -75H680L665 -200Z" glyph-name="underscoremonospace" horiz-adv-x="760" unicode="&#58642;" /><glyph d="M45 253 65 417H369L349 253Z" glyph-name="uni00AD" horiz-adv-x="412" unicode="&#173;" /><glyph d="M248 503 241 447H282Q306 447 317.5 455Q329 463 329 483Q329 495 319.5 499Q310 503 289 503ZM259 261Q281 261 298.5 267Q316 273 316 300Q316 319 304 324Q292 329 270 329H227L219 261ZM232 100 192 0H34L74 100H24L93 664H277L314 764H473L431 650Q463 638 484.5 612Q506 586 506 536Q506 489 487.5 452.5Q469 416 439 398Q467 389 479.5 361Q492 333 492 298Q492 235 472 196.5Q452 158 420.5 136.5Q389 115 349 107.5Q309 100 270 100Z" glyph-name="uni0E3F" horiz-adv-x="522" unicode="&#3647;" /><glyph d="M45 253 65 417H1377L1357 253Z" glyph-name="uni2015" horiz-adv-x="1420" unicode="&#8213;" /><glyph d="M51 307 71 471H1383L1363 307Z" glyph-name="uni2015.cap" horiz-adv-x="1420" unicode="&#58504;" /><glyph d="M236 770Q270 770 294 764Q318 758 333.5 742Q349 726 356 697.5Q363 669 363 625Q363 548 350.5 495Q338 442 314.5 408Q291 374 258 359Q225 344 184 344Q150 344 126 350Q102 356 86.5 372Q71 388 64 416.5Q57 445 57 489Q57 565 69.5 618.5Q82 672 105 706Q128 740 161.5 755Q195 770 236 770ZM195 434Q204 434 212.5 451.5Q221 469 227 497.5Q233 526 237 562Q241 598 241 635Q241 663 237 671.5Q233 680 225 680Q216 680 207.5 662.5Q199 645 193 616.5Q187 588 183 552Q179 516 179 479Q179 451 183 442.5Q187 434 195 434Z" glyph-name="uni2070" horiz-adv-x="362" unicode="&#8304;" /><glyph d="M227 648 161 525 205 527ZM314 436 303 350H183L194 436H42L51 512L215 770H355L325 527H360L349 436Z" glyph-name="uni2074" horiz-adv-x="362" unicode="&#8308;" /><glyph d="M195 433Q211 433 221 453.5Q231 474 231 522Q231 540 225 546Q219 552 207 552Q196 552 183 544Q170 536 164 522L65 556L102 764H367L356 672H201L189 610Q206 625 222.5 631.5Q239 638 265 638Q308 638 332 615.5Q356 593 356 533Q356 436 314 390Q272 344 184 344Q110 344 78 366Q46 388 46 444L175 488Q173 464 175 448.5Q177 433 195 433Z" glyph-name="uni2075" horiz-adv-x="362" unicode="&#8309;" /><glyph d="M213 548Q201 548 194.5 538.5Q188 529 184.5 516Q181 503 180.5 489.5Q180 476 180 469Q180 431 193 431Q210 431 217.5 456Q225 481 225 527Q225 548 213 548ZM223 683Q216 683 212 680Q208 677 205 668Q202 659 199.5 642.5Q197 626 194 599Q211 620 230.5 628Q250 636 276 636Q319 636 336 616Q353 596 353 553Q353 500 345 461Q337 422 317 396Q297 370 264 357Q231 344 182 344Q146 344 122 351Q98 358 83.5 374.5Q69 391 63 417Q57 443 57 482Q57 533 63 584.5Q69 636 88 677.5Q107 719 142.5 744.5Q178 770 237 770Q303 770 332 751Q361 732 363 690L237 647Q237 651 238 657.5Q239 664 238 669.5Q237 675 234 679Q231 683 223 683Z" glyph-name="uni2076" horiz-adv-x="362" unicode="&#8310;" /><glyph d="M76 350 207 598 250 673 182 672H71L82 764H392L384 704L211 350Z" glyph-name="uni2077" horiz-adv-x="362" unicode="&#8311;" /><glyph d="M184 344Q142 344 115 350.5Q88 357 71.5 369.5Q55 382 48.5 399.5Q42 417 42 439Q42 494 60.5 524.5Q79 555 106 566Q89 573 82 592.5Q75 612 75 636Q75 711 113.5 740.5Q152 770 237 770Q308 770 339 748Q370 726 370 678Q370 640 356.5 608Q343 576 314 566Q355 549 355 485Q355 452 347.5 426Q340 400 320.5 381.5Q301 363 268 353.5Q235 344 184 344ZM206 521Q188 521 176.5 511Q165 501 165 462Q165 448 171.5 441Q178 434 195 434Q218 434 226.5 448.5Q235 463 235 492Q235 511 227.5 516Q220 521 206 521ZM225 679Q212 679 204 669.5Q196 660 196 631Q196 603 216 603Q244 603 244 656Q244 679 225 679Z" glyph-name="uni2078" horiz-adv-x="362" unicode="&#8312;" /><glyph d="M207 566Q216 566 222 573Q228 580 231.5 591Q235 602 236.5 615.5Q238 629 238 642Q238 665 235 674Q232 683 224 683Q194 683 194 592Q194 566 207 566ZM196 431Q203 431 207 433.5Q211 436 214 444Q217 452 219.5 467.5Q222 483 225 510Q208 490 188.5 484Q169 478 143 478Q103 478 85.5 501.5Q68 525 68 584Q68 675 105.5 722.5Q143 770 238 770Q274 770 298.5 763Q323 756 337.5 739.5Q352 723 358 696.5Q364 670 364 631Q364 579 358.5 528Q353 477 333.5 436Q314 395 277.5 369.5Q241 344 180 344Q113 344 85 362.5Q57 381 55 423L183 467Q181 458 181.5 444.5Q182 431 196 431Z" glyph-name="uni2079" horiz-adv-x="362" unicode="&#8313;" /><glyph d="M162 501H68L84 635H178L189 728H323L312 635H405L389 501H296L284 407H150Z" glyph-name="uni207A" horiz-adv-x="414" unicode="&#8314;" /><glyph d="M68 501 84 635H405L389 501Z" glyph-name="uni207B" horiz-adv-x="414" unicode="&#8315;" /><glyph d="M79 590 94 711H414L399 590ZM59 425 74 546H394L379 425Z" glyph-name="uni207C" horiz-adv-x="414" unicode="&#8316;" /><glyph d="M304 808Q263 734 241 648.5Q219 563 219 473Q219 426 225 381.5Q231 337 242 302H119Q106 339 97 383Q88 427 88 481Q88 533 96 579.5Q104 626 117 667Q130 708 146.5 743Q163 778 181 808Z" glyph-name="uni207D" horiz-adv-x="300" unicode="&#8317;" /><glyph d="M52 302Q93 376 115 461.5Q137 547 137 636Q137 684 131 728.5Q125 773 114 808H237Q250 771 259 727Q268 683 268 629Q268 577 260 530.5Q252 484 239 443Q226 402 209.5 366.5Q193 331 175 302Z" glyph-name="uni207E" horiz-adv-x="300" unicode="&#8318;" /><glyph d="M193 420Q227 420 251 414Q275 408 290.5 392Q306 376 313 347.5Q320 319 320 275Q320 198 307.5 145Q295 92 271.5 58Q248 24 215 9Q182 -6 141 -6Q107 -6 83 0Q59 6 43.5 22Q28 38 21 66.5Q14 95 14 139Q14 215 26.5 268.5Q39 322 62 356Q85 390 118.5 405Q152 420 193 420ZM152 84Q161 84 169.5 101.5Q178 119 184 147.5Q190 176 194 212Q198 248 198 285Q198 313 194 321.5Q190 330 182 330Q173 330 164.5 312.5Q156 295 150 266.5Q144 238 140 202Q136 166 136 129Q136 101 140 92.5Q144 84 152 84Z" glyph-name="uni2080" horiz-adv-x="362" unicode="&#8320;" /><glyph d="M6 0 17 91H97L120 275Q103 262 78.5 254Q54 246 30 242L42 346Q80 354 114.5 376Q149 398 164 420H261L220 91H300L289 0Z" glyph-name="uni2081" horiz-adv-x="362" unicode="&#8321;" /><glyph d="M185 331Q177 331 170.5 319.5Q164 308 159 268L39 309Q44 337 53 358Q62 379 79.5 393Q97 407 125.5 413.5Q154 420 198 420Q263 420 294 398.5Q325 377 325 330Q325 298 319.5 275.5Q314 253 299.5 235Q285 217 260 200Q235 183 196 161Q177 150 166 141.5Q155 133 149 125Q143 117 140.5 109Q138 101 137 91H299L288 0H-6Q1 54 7 88Q13 122 26.5 145Q40 168 65 187Q90 206 135 230Q153 240 165.5 248Q178 256 185.5 265.5Q193 275 196 286.5Q199 298 199 315Q199 331 185 331Z" glyph-name="uni2082" horiz-adv-x="362" unicode="&#8322;" /><glyph d="M152 83Q169 83 176.5 98.5Q184 114 184 141Q184 156 177 161.5Q170 167 153 167H121L133 257H165Q178 257 183 269.5Q188 282 188 317Q188 331 174 331Q162 331 157.5 320Q153 309 148 273L34 312Q40 340 50.5 360.5Q61 381 79 394.5Q97 408 123.5 414Q150 420 188 420Q252 420 283 398Q314 376 314 313Q314 268 298.5 246.5Q283 225 260 215Q283 209 295.5 193Q308 177 308 137Q308 107 300.5 81Q293 55 273.5 35.5Q254 16 221 5Q188 -6 136 -6Q106 -6 80.5 -2Q55 2 37 14Q19 26 10 47Q1 68 3 103L130 147Q129 139 127.5 128.5Q126 118 127 107.5Q128 97 133.5 90Q139 83 152 83Z" glyph-name="uni2083" horiz-adv-x="362" unicode="&#8323;" /><glyph d="M184 298 118 175 162 177ZM271 86 260 0H140L151 86H-1L8 162L172 420H312L282 177H317L306 86Z" glyph-name="uni2084" horiz-adv-x="362" unicode="&#8324;" /><glyph d="M152 83Q168 83 178 103.5Q188 124 188 172Q188 190 182 196Q176 202 164 202Q153 202 140 194Q127 186 121 172L22 206L59 414H324L313 322H158L146 260Q163 275 179.5 281.5Q196 288 222 288Q265 288 289 265.5Q313 243 313 183Q313 86 271 40Q229 -6 141 -6Q67 -6 35 16Q3 38 3 94L132 138Q130 114 132 98.5Q134 83 152 83Z" glyph-name="uni2085" horiz-adv-x="362" unicode="&#8325;" /><glyph d="M170 198Q158 198 151.5 188.5Q145 179 141.5 166Q138 153 137.5 139.5Q137 126 137 119Q137 81 150 81Q167 81 174.5 106Q182 131 182 177Q182 198 170 198ZM180 333Q173 333 169 330Q165 327 162 318Q159 309 156.5 292.5Q154 276 151 249Q168 270 187.5 278Q207 286 233 286Q276 286 293 266Q310 246 310 203Q310 150 302 111Q294 72 274 46Q254 20 221 7Q188 -6 139 -6Q103 -6 79 1Q55 8 40.5 24.5Q26 41 20 67Q14 93 14 132Q14 183 20 234.5Q26 286 45 327.5Q64 369 99.5 394.5Q135 420 194 420Q260 420 289 401Q318 382 320 340L194 297Q194 301 195 307.5Q196 314 195 319.5Q194 325 191 329Q188 333 180 333Z" glyph-name="uni2086" horiz-adv-x="362" unicode="&#8326;" /><glyph d="M33 0 164 248 207 323 139 322H28L39 414H349L341 354L168 0Z" glyph-name="uni2087" horiz-adv-x="362" unicode="&#8327;" /><glyph d="M141 -6Q99 -6 72 0.5Q45 7 28.5 19.5Q12 32 5.5 49.5Q-1 67 -1 89Q-1 144 17.5 174.5Q36 205 63 216Q46 223 39 242.5Q32 262 32 286Q32 361 70.5 390.5Q109 420 194 420Q265 420 296 398Q327 376 327 328Q327 290 313.5 258Q300 226 271 216Q312 199 312 135Q312 102 304.5 76Q297 50 277.5 31.5Q258 13 225 3.5Q192 -6 141 -6ZM163 171Q145 171 133.5 161Q122 151 122 112Q122 98 128.5 91Q135 84 152 84Q175 84 183.5 98.5Q192 113 192 142Q192 161 184.5 166Q177 171 163 171ZM182 329Q169 329 161 319.5Q153 310 153 281Q153 253 173 253Q201 253 201 306Q201 329 182 329Z" glyph-name="uni2088" horiz-adv-x="362" unicode="&#8328;" /><glyph d="M164 216Q173 216 179 223Q185 230 188.5 241Q192 252 193.5 265.5Q195 279 195 292Q195 315 192 324Q189 333 181 333Q151 333 151 242Q151 216 164 216ZM153 81Q160 81 164 83.5Q168 86 171 94Q174 102 176.5 117.5Q179 133 182 160Q165 140 145.5 134Q126 128 100 128Q60 128 42.5 151.5Q25 175 25 234Q25 325 62.5 372.5Q100 420 195 420Q231 420 255.5 413Q280 406 294.5 389.5Q309 373 315 346.5Q321 320 321 281Q321 229 315.5 178Q310 127 290.5 86Q271 45 234.5 19.5Q198 -6 137 -6Q70 -6 42 12.5Q14 31 12 73L140 117Q138 108 138.5 94.5Q139 81 153 81Z" glyph-name="uni2089" horiz-adv-x="362" unicode="&#8329;" /><glyph d="M119 151H25L41 285H135L146 378H280L269 285H362L346 151H253L241 57H107Z" glyph-name="uni208A" horiz-adv-x="414" unicode="&#8330;" /><glyph d="M25 151 41 285H362L346 151Z" glyph-name="uni208B" horiz-adv-x="414" unicode="&#8331;" /><glyph d="M36 240 51 361H371L356 240ZM16 75 31 196H351L336 75Z" glyph-name="uni208C" horiz-adv-x="414" unicode="&#8332;" /><glyph d="M261 458Q220 384 198 298.5Q176 213 176 123Q176 76 182 31.5Q188 -13 199 -48H76Q63 -11 54 33Q45 77 45 131Q45 183 53 229.5Q61 276 74 317Q87 358 103.5 393Q120 428 138 458Z" glyph-name="uni208D" horiz-adv-x="300" unicode="&#8333;" /><glyph d="M9 -48Q50 26 72 111.5Q94 197 94 287Q94 334 88 378.5Q82 423 71 458H194Q207 421 216 377Q225 333 225 279Q225 227 217 180.5Q209 134 196 93Q183 52 166.5 17Q150 -18 132 -48Z" glyph-name="uni208E" horiz-adv-x="300" unicode="&#8334;" /><glyph d="M207 214Q207 177 215 162L394 565L358 552ZM215 324 342 609Q333 621 307 621Q288 621 275.5 609.5Q263 598 254 570Q245 542 238 496.5Q231 451 222 382ZM507 726Q524 706 530 678Q536 650 534 612L443 581L247 143H248Q261 143 271 146Q281 149 288.5 157Q296 165 301.5 178.5Q307 192 310 214L478 155Q470 111 454.5 79.5Q439 48 411 28Q383 8 341 -2Q299 -12 238 -12Q222 -12 207.5 -11Q193 -10 180 -8L163 -46H122L142 0Q135 2 128.5 4.5Q122 7 116 10L91 -46H50L85 32Q41 72 34 156.5Q27 241 44 382Q58 492 77.5 567.5Q97 643 130 689.5Q163 736 212.5 756Q262 776 335 776Q381 776 414 770L432 810H473L451 761Q459 759 465.5 756.5Q472 754 477 750L504 810H545Z" glyph-name="uni20A1" horiz-adv-x="531" unicode="&#8353;" /><glyph d="M453 302Q402 302 363 272L346 136Q360 146 367.5 164Q375 182 380 214L482 178Q475 128 460 92Q445 56 417.5 33Q390 10 346 -1Q302 -12 238 -12Q165 -12 120.5 8Q76 28 54.5 74.5Q33 121 31.5 196.5Q30 272 44 382Q58 492 77.5 567.5Q97 643 130 689.5Q163 736 212.5 756Q262 776 335 776Q395 776 434.5 766.5Q474 757 497 737Q520 717 528 686Q536 655 534 612L351 550Q355 594 344 607.5Q333 621 307 621Q288 621 275.5 609.5Q263 598 254 570Q245 542 238 496.5Q231 451 222 382Q215 327 211.5 285.5Q208 244 208.5 214.5Q209 185 214.5 166Q220 147 231 137L252 308L268 460H365L366 408Q389 443 416.5 457.5Q444 472 472 472Q500 472 516 460L487 298Q481 300 472 301Q463 302 453 302Z" glyph-name="uni20A2" horiz-adv-x="531" unicode="&#8354;" /><glyph d="M415 334 422 402H403ZM252 362H270L259 430ZM380 544 385 513H433L464 764H623L592 513H645L632 402H579L574 362H627L613 251H560L530 0H332L294 220L289 251H240L210 0H51L81 251H28L42 362H95L100 402H47L60 513H113L144 764H342Z" glyph-name="uni20A6" horiz-adv-x="661" unicode="&#8358;" /><glyph d="M967 202Q967 139 946.5 97.5Q926 56 882.5 32Q839 8 772.5 -2Q706 -12 614 -12Q521 -12 459.5 8Q398 28 359.5 63.5Q321 99 300.5 148.5Q280 198 268 258H225L194 0H14L107 764H353Q393 764 429.5 755.5Q466 747 493.5 725Q521 703 537 665Q553 627 553 569Q553 512 543 466.5Q533 421 516 387Q499 353 477.5 329Q456 305 432 291Q453 208 501.5 164.5Q550 121 634 121Q686 121 716 124.5Q746 128 761 135Q776 142 779.5 152Q783 162 783 174Q783 192 770 198Q757 204 734 206Q689 210 654.5 217Q620 224 596.5 238.5Q573 253 561.5 276.5Q550 300 550 336Q550 400 571 440Q592 480 626 502.5Q660 525 703.5 533.5Q747 542 792 542Q837 542 872 536.5Q907 531 931 517Q955 503 967 479Q979 455 978 418L800 357Q801 364 801.5 373Q802 382 799.5 390Q797 398 791.5 403.5Q786 409 776 409Q758 409 750 395.5Q742 382 742 360Q742 343 753.5 336.5Q765 330 785 328Q828 325 862 318.5Q896 312 919 298.5Q942 285 954.5 262Q967 239 967 202ZM301 418Q333 418 351 448Q369 478 369 546Q369 576 358.5 590Q348 604 324 604H268L245 418Z" glyph-name="uni20A8" horiz-adv-x="1009" unicode="&#8360;" /><glyph d="M236 230 276 402H248ZM541 402 540 230 569 402ZM388 362H419L424 529ZM416 251H364L309 -6H84L91 251H28L42 362H94L95 402H47L60 513H98L106 764H275L256 513H303L362 764H544L542 513H588L631 764H800L746 513H784L771 402H722L713 362H766L752 251H689L634 -6H409Z" glyph-name="uni20A9" horiz-adv-x="800" unicode="&#8361;" /><glyph d="M204 0 275 581H359L306 153H398Q449 153 457 205L525 764H685L616 200Q603 97 544 48.5Q485 0 382 0ZM285 764Q388 764 435.5 715.5Q483 667 471 564L424 183H340L386 559Q392 611 341 611H249L174 0H14L107 764Z" glyph-name="uni20AA" horiz-adv-x="686" unicode="&#8362;" /><glyph d="M119 260 124 300 52 263 65 371 137 408 161 604H56L75 764H464L445 604H340L328 507L404 546L390 438L315 399L310 359L385 398L372 290L297 251L266 0H87L105 152L34 115L47 223Z" glyph-name="uni20AE" horiz-adv-x="433" unicode="&#8366;" /><glyph d="M553 360Q535 318 510 290.5Q485 263 455.5 247Q426 231 393 224.5Q360 218 326 218H260L234 0H54L98 360H42L55 471H111L116 511H60L74 622H130L147 764H393Q427 764 458.5 757.5Q490 751 515.5 735Q541 719 559.5 691.5Q578 664 586 622H655L641 511H589Q588 505 587.5 498Q587 491 586 485Q585 478 584 471H636L623 360ZM337 388Q368 388 388 420Q408 452 408 532Q408 565 397 579.5Q386 594 362 594H306L281 388Z" glyph-name="uni20B1" horiz-adv-x="657" unicode="&#8369;" /><glyph d="M724 83Q741 83 748.5 98.5Q756 114 756 141Q756 156 749 161.5Q742 167 725 167H693L705 257H737Q750 257 755 269.5Q760 282 760 317Q760 331 746 331Q734 331 729.5 320Q725 309 720 273L606 312Q612 340 622.5 360.5Q633 381 651 394.5Q669 408 695.5 414Q722 420 760 420Q824 420 855 398Q886 376 886 313Q886 268 870.5 246.5Q855 225 832 215Q855 209 867.5 193Q880 177 880 137Q880 107 872.5 81Q865 55 845.5 35.5Q826 16 793 5Q760 -6 708 -6Q678 -6 652.5 -2Q627 2 609 14Q591 26 582 47Q573 68 575 103L702 147Q701 139 699.5 128.5Q698 118 699 107.5Q700 97 705.5 90Q711 83 724 83ZM650 764H781L297 0H166ZM49 354 60 445H140L163 629Q146 616 121.5 608Q97 600 73 596L85 700Q123 708 157.5 730Q192 752 207 774H304L263 445H343L332 354Z" glyph-name="uni2153" horiz-adv-x="934" unicode="&#8531;" /><glyph d="M724 83Q741 83 748.5 98.5Q756 114 756 141Q756 156 749 161.5Q742 167 725 167H693L705 257H737Q750 257 755 269.5Q760 282 760 317Q760 331 746 331Q734 331 729.5 320Q725 309 720 273L606 312Q612 340 622.5 360.5Q633 381 651 394.5Q669 408 695.5 414Q722 420 760 420Q824 420 855 398Q886 376 886 313Q886 268 870.5 246.5Q855 225 832 215Q855 209 867.5 193Q880 177 880 137Q880 107 872.5 81Q865 55 845.5 35.5Q826 16 793 5Q760 -6 708 -6Q678 -6 652.5 -2Q627 2 609 14Q591 26 582 47Q573 68 575 103L702 147Q701 139 699.5 128.5Q698 118 699 107.5Q700 97 705.5 90Q711 83 724 83ZM650 764H781L297 0H166ZM228 685Q220 685 213.5 673.5Q207 662 202 622L82 663Q87 691 96 712Q105 733 122.5 747Q140 761 168.5 767.5Q197 774 241 774Q306 774 337 752.5Q368 731 368 684Q368 652 362.5 629.5Q357 607 342.5 589Q328 571 303 554Q278 537 239 515Q220 504 209 495.5Q198 487 192 479Q186 471 183.5 463Q181 455 180 445H342L331 354H37Q44 408 50 442Q56 476 69.5 499Q83 522 108 541Q133 560 178 584Q196 594 208.5 602Q221 610 228.5 619.5Q236 629 239 640.5Q242 652 242 669Q242 685 228 685Z" glyph-name="uni2154" horiz-adv-x="934" unicode="&#8532;" /><glyph d="M724 83Q740 83 750 103.5Q760 124 760 172Q760 190 754 196Q748 202 736 202Q725 202 712 194Q699 186 693 172L594 206L631 414H896L885 322H730L718 260Q735 275 751.5 281.5Q768 288 794 288Q837 288 861 265.5Q885 243 885 183Q885 86 843 40Q801 -6 713 -6Q639 -6 607 16Q575 38 575 94L704 138Q702 114 704 98.5Q706 83 724 83ZM650 764H781L297 0H166ZM49 354 60 445H140L163 629Q146 616 121.5 608Q97 600 73 596L85 700Q123 708 157.5 730Q192 752 207 774H304L263 445H343L332 354Z" glyph-name="uni2155" horiz-adv-x="934" unicode="&#8533;" /><glyph d="M724 83Q740 83 750 103.5Q760 124 760 172Q760 190 754 196Q748 202 736 202Q725 202 712 194Q699 186 693 172L594 206L631 414H896L885 322H730L718 260Q735 275 751.5 281.5Q768 288 794 288Q837 288 861 265.5Q885 243 885 183Q885 86 843 40Q801 -6 713 -6Q639 -6 607 16Q575 38 575 94L704 138Q702 114 704 98.5Q706 83 724 83ZM650 764H781L297 0H166ZM228 685Q220 685 213.5 673.5Q207 662 202 622L82 663Q87 691 96 712Q105 733 122.5 747Q140 761 168.5 767.5Q197 774 241 774Q306 774 337 752.5Q368 731 368 684Q368 652 362.5 629.5Q357 607 342.5 589Q328 571 303 554Q278 537 239 515Q220 504 209 495.5Q198 487 192 479Q186 471 183.5 463Q181 455 180 445H342L331 354H37Q44 408 50 442Q56 476 69.5 499Q83 522 108 541Q133 560 178 584Q196 594 208.5 602Q221 610 228.5 619.5Q236 629 239 640.5Q242 652 242 669Q242 685 228 685Z" glyph-name="uni2156" horiz-adv-x="934" unicode="&#8534;" /><glyph d="M724 83Q740 83 750 103.5Q760 124 760 172Q760 190 754 196Q748 202 736 202Q725 202 712 194Q699 186 693 172L594 206L631 414H896L885 322H730L718 260Q735 275 751.5 281.5Q768 288 794 288Q837 288 861 265.5Q885 243 885 183Q885 86 843 40Q801 -6 713 -6Q639 -6 607 16Q575 38 575 94L704 138Q702 114 704 98.5Q706 83 724 83ZM650 764H781L297 0H166ZM195 437Q212 437 219.5 452.5Q227 468 227 495Q227 510 220 515.5Q213 521 196 521H164L176 611H208Q221 611 226 623.5Q231 636 231 671Q231 685 217 685Q205 685 200.5 674Q196 663 191 627L77 666Q83 694 93.5 714.5Q104 735 122 748.5Q140 762 166.5 768Q193 774 231 774Q295 774 326 752Q357 730 357 667Q357 622 341.5 600.5Q326 579 303 569Q326 563 338.5 547Q351 531 351 491Q351 461 343.5 435Q336 409 316.5 389.5Q297 370 264 359Q231 348 179 348Q149 348 123.5 352Q98 356 80 368Q62 380 53 401Q44 422 46 457L173 501Q172 493 170.5 482.5Q169 472 170 461.5Q171 451 176.5 444Q182 437 195 437Z" glyph-name="uni2157" horiz-adv-x="934" unicode="&#8535;" /><glyph d="M724 83Q740 83 750 103.5Q760 124 760 172Q760 190 754 196Q748 202 736 202Q725 202 712 194Q699 186 693 172L594 206L631 414H896L885 322H730L718 260Q735 275 751.5 281.5Q768 288 794 288Q837 288 861 265.5Q885 243 885 183Q885 86 843 40Q801 -6 713 -6Q639 -6 607 16Q575 38 575 94L704 138Q702 114 704 98.5Q706 83 724 83ZM650 764H781L297 0H166ZM227 652 161 529 205 531ZM314 440 303 354H183L194 440H42L51 516L215 774H355L325 531H360L349 440Z" glyph-name="uni2158" horiz-adv-x="934" unicode="&#8536;" /><glyph d="M742 198Q730 198 723.5 188.5Q717 179 713.5 166Q710 153 709.5 139.5Q709 126 709 119Q709 81 722 81Q739 81 746.5 106Q754 131 754 177Q754 198 742 198ZM752 333Q745 333 741 330Q737 327 734 318Q731 309 728.5 292.5Q726 276 723 249Q740 270 759.5 278Q779 286 805 286Q848 286 865 266Q882 246 882 203Q882 150 874 111Q866 72 846 46Q826 20 793 7Q760 -6 711 -6Q675 -6 651 1Q627 8 612.5 24.5Q598 41 592 67Q586 93 586 132Q586 183 592 234.5Q598 286 617 327.5Q636 369 671.5 394.5Q707 420 766 420Q832 420 861 401Q890 382 892 340L766 297Q766 301 767 307.5Q768 314 767 319.5Q766 325 763 329Q760 333 752 333ZM650 764H781L297 0H166ZM49 354 60 445H140L163 629Q146 616 121.5 608Q97 600 73 596L85 700Q123 708 157.5 730Q192 752 207 774H304L263 445H343L332 354Z" glyph-name="uni2159" horiz-adv-x="934" unicode="&#8537;" /><glyph d="M742 198Q730 198 723.5 188.5Q717 179 713.5 166Q710 153 709.5 139.5Q709 126 709 119Q709 81 722 81Q739 81 746.5 106Q754 131 754 177Q754 198 742 198ZM752 333Q745 333 741 330Q737 327 734 318Q731 309 728.5 292.5Q726 276 723 249Q740 270 759.5 278Q779 286 805 286Q848 286 865 266Q882 246 882 203Q882 150 874 111Q866 72 846 46Q826 20 793 7Q760 -6 711 -6Q675 -6 651 1Q627 8 612.5 24.5Q598 41 592 67Q586 93 586 132Q586 183 592 234.5Q598 286 617 327.5Q636 369 671.5 394.5Q707 420 766 420Q832 420 861 401Q890 382 892 340L766 297Q766 301 767 307.5Q768 314 767 319.5Q766 325 763 329Q760 333 752 333ZM650 764H781L297 0H166ZM195 437Q211 437 221 457.5Q231 478 231 526Q231 544 225 550Q219 556 207 556Q196 556 183 548Q170 540 164 526L65 560L102 768H367L356 676H201L189 614Q206 629 222.5 635.5Q239 642 265 642Q308 642 332 619.5Q356 597 356 537Q356 440 314 394Q272 348 184 348Q110 348 78 370Q46 392 46 448L175 492Q173 468 175 452.5Q177 437 195 437Z" glyph-name="uni215A" horiz-adv-x="934" unicode="&#8538;" /><glyph d="M713 -6Q671 -6 644 0.5Q617 7 600.5 19.5Q584 32 577.5 49.5Q571 67 571 89Q571 144 589.5 174.5Q608 205 635 216Q618 223 611 242.5Q604 262 604 286Q604 361 642.5 390.5Q681 420 766 420Q837 420 868 398Q899 376 899 328Q899 290 885.5 258Q872 226 843 216Q884 199 884 135Q884 102 876.5 76Q869 50 849.5 31.5Q830 13 797 3.5Q764 -6 713 -6ZM735 171Q717 171 705.5 161Q694 151 694 112Q694 98 700.5 91Q707 84 724 84Q747 84 755.5 98.5Q764 113 764 142Q764 161 756.5 166Q749 171 735 171ZM754 329Q741 329 733 319.5Q725 310 725 281Q725 253 745 253Q773 253 773 306Q773 329 754 329ZM650 764H781L297 0H166ZM49 354 60 445H140L163 629Q146 616 121.5 608Q97 600 73 596L85 700Q123 708 157.5 730Q192 752 207 774H304L263 445H343L332 354Z" glyph-name="uni215B" horiz-adv-x="934" unicode="&#8539;" /><glyph d="M713 -6Q671 -6 644 0.5Q617 7 600.5 19.5Q584 32 577.5 49.5Q571 67 571 89Q571 144 589.5 174.5Q608 205 635 216Q618 223 611 242.5Q604 262 604 286Q604 361 642.5 390.5Q681 420 766 420Q837 420 868 398Q899 376 899 328Q899 290 885.5 258Q872 226 843 216Q884 199 884 135Q884 102 876.5 76Q869 50 849.5 31.5Q830 13 797 3.5Q764 -6 713 -6ZM735 171Q717 171 705.5 161Q694 151 694 112Q694 98 700.5 91Q707 84 724 84Q747 84 755.5 98.5Q764 113 764 142Q764 161 756.5 166Q749 171 735 171ZM754 329Q741 329 733 319.5Q725 310 725 281Q725 253 745 253Q773 253 773 306Q773 329 754 329ZM650 764H781L297 0H166ZM195 437Q212 437 219.5 452.5Q227 468 227 495Q227 510 220 515.5Q213 521 196 521H164L176 611H208Q221 611 226 623.5Q231 636 231 671Q231 685 217 685Q205 685 200.5 674Q196 663 191 627L77 666Q83 694 93.5 714.5Q104 735 122 748.5Q140 762 166.5 768Q193 774 231 774Q295 774 326 752Q357 730 357 667Q357 622 341.5 600.5Q326 579 303 569Q326 563 338.5 547Q351 531 351 491Q351 461 343.5 435Q336 409 316.5 389.5Q297 370 264 359Q231 348 179 348Q149 348 123.5 352Q98 356 80 368Q62 380 53 401Q44 422 46 457L173 501Q172 493 170.5 482.5Q169 472 170 461.5Q171 451 176.5 444Q182 437 195 437Z" glyph-name="uni215C" horiz-adv-x="934" unicode="&#8540;" /><glyph d="M713 -6Q671 -6 644 0.5Q617 7 600.5 19.5Q584 32 577.5 49.5Q571 67 571 89Q571 144 589.5 174.5Q608 205 635 216Q618 223 611 242.5Q604 262 604 286Q604 361 642.5 390.5Q681 420 766 420Q837 420 868 398Q899 376 899 328Q899 290 885.5 258Q872 226 843 216Q884 199 884 135Q884 102 876.5 76Q869 50 849.5 31.5Q830 13 797 3.5Q764 -6 713 -6ZM735 171Q717 171 705.5 161Q694 151 694 112Q694 98 700.5 91Q707 84 724 84Q747 84 755.5 98.5Q764 113 764 142Q764 161 756.5 166Q749 171 735 171ZM754 329Q741 329 733 319.5Q725 310 725 281Q725 253 745 253Q773 253 773 306Q773 329 754 329ZM650 764H781L297 0H166ZM195 437Q211 437 221 457.5Q231 478 231 526Q231 544 225 550Q219 556 207 556Q196 556 183 548Q170 540 164 526L65 560L102 768H367L356 676H201L189 614Q206 629 222.5 635.5Q239 642 265 642Q308 642 332 619.5Q356 597 356 537Q356 440 314 394Q272 348 184 348Q110 348 78 370Q46 392 46 448L175 492Q173 468 175 452.5Q177 437 195 437Z" glyph-name="uni215D" horiz-adv-x="934" unicode="&#8541;" /><glyph d="M713 -6Q671 -6 644 0.5Q617 7 600.5 19.5Q584 32 577.5 49.5Q571 67 571 89Q571 144 589.5 174.5Q608 205 635 216Q618 223 611 242.5Q604 262 604 286Q604 361 642.5 390.5Q681 420 766 420Q837 420 868 398Q899 376 899 328Q899 290 885.5 258Q872 226 843 216Q884 199 884 135Q884 102 876.5 76Q869 50 849.5 31.5Q830 13 797 3.5Q764 -6 713 -6ZM735 171Q717 171 705.5 161Q694 151 694 112Q694 98 700.5 91Q707 84 724 84Q747 84 755.5 98.5Q764 113 764 142Q764 161 756.5 166Q749 171 735 171ZM754 329Q741 329 733 319.5Q725 310 725 281Q725 253 745 253Q773 253 773 306Q773 329 754 329ZM650 764H781L297 0H166ZM116 354 247 602 290 677 222 676H111L122 768H432L424 708L251 354Z" glyph-name="uni215E" horiz-adv-x="933" unicode="&#8542;" /><glyph d="M610 764H741L257 0H126ZM9 354 20 445H100L123 629Q106 616 81.5 608Q57 600 33 596L45 700Q83 708 117.5 730Q152 752 167 774H264L223 445H303L292 354Z" glyph-name="uni215F" horiz-adv-x="592" unicode="&#8543;" /><glyph d="M109 796 630 672 490 532 364 573 483 459 691 252 570 131 363 339 249 458 290 332 150 192 26 713Z" glyph-name="uni2196" horiz-adv-x="880" unicode="&#8598;" /><glyph d="M854 713 730 192 590 332 631 458 517 339 310 131 189 252 397 459 516 573 390 532 250 672 771 796Z" glyph-name="uni2197" horiz-adv-x="880" unicode="&#8599;" /><glyph d="M771 -6 250 118 390 258 516 217 397 331 189 538 310 659 517 451 631 332 590 458 730 598 854 77Z" glyph-name="uni2198" horiz-adv-x="880" unicode="&#8600;" /><glyph d="M26 77 150 598 290 458 249 332 363 451 570 659 691 538 483 331 364 217 490 258 630 118 109 -6Z" glyph-name="uni2199" horiz-adv-x="880" unicode="&#8601;" /><glyph d="M588 754 790 0 36 202Z" glyph-name="uni25E2" horiz-adv-x="820" unicode="&#9698;" /><glyph d="M784 202 30 0 232 754Z" glyph-name="uni25E3" horiz-adv-x="820" unicode="&#9699;" /><glyph d="M232 26 30 780 784 578Z" glyph-name="uni25E4" horiz-adv-x="820" unicode="&#9700;" /><glyph d="M36 578 790 780 588 26Z" glyph-name="uni25E5" horiz-adv-x="820" unicode="&#9701;" /><glyph d="M190 -10 289 297 29 486H351L450 792L549 486H871L611 297L710 -10L450 180Z" glyph-name="uni2605" horiz-adv-x="900" unicode="&#9733;" /><glyph d="M721 360 876 287 705 302 837 190 675 249 773 108 632 206 690 44 579 174 594 4 520 159 490 -10 460 159 386 4 401 174 290 44 348 206 207 108 305 249 143 190 275 302 104 287 259 360 90 390 259 420 104 493 275 478 143 590 305 531 207 672 348 574 290 736 401 606 386 776 460 621 490 790 520 621 594 776 579 606 690 736 632 574 773 672 675 531 837 590 705 478 876 493 721 420 890 390Z" glyph-name="uni263C" horiz-adv-x="980" unicode="&#9788;" /><glyph d="M634 728Q567 728 508 701.5Q449 675 405 629Q361 583 335.5 521.5Q310 460 310 390Q310 320 335.5 258.5Q361 197 405 151Q449 105 508 78.5Q567 52 634 52Q683 52 730 67Q679 30 617.5 10Q556 -10 490 -10Q407 -10 334 21.5Q261 53 207 107Q153 161 121.5 234Q90 307 90 390Q90 473 121.5 546Q153 619 207 673Q261 727 334 758.5Q407 790 490 790Q556 790 617.5 769.5Q679 749 730 713Q707 720 683 724Q659 728 634 728Z" glyph-name="uni263E" horiz-adv-x="980" unicode="&#9790;" /><glyph d="M885 410Q889 403 892 391.5Q895 380 895 366Q895 340 883.5 317Q872 294 855 277Q838 260 818.5 250Q799 240 783 240L667 441L816 527ZM321 41Q313 41 300.5 44Q288 47 277 54Q254 67 240 88.5Q226 110 219.5 133Q213 156 214.5 178Q216 200 224 214H456V41ZM277 717Q281 724 290 732.5Q299 741 311 748Q333 761 358.5 762.5Q384 764 407.5 758Q431 752 449.5 739.5Q468 727 476 713L360 512L210 598ZM414 780H607Q621 780 633.5 778.5Q646 777 657.5 772.5Q669 768 679 759Q689 750 699 733L727 684L770 708L709 542L536 573L577 597L505 722Q494 742 478 753Q462 764 448 770Q431 777 414 779ZM194 122 98 290Q92 302 86.5 313.5Q81 325 79.5 337Q78 349 81 362.5Q84 376 94 393L122 442L80 466L254 497L313 331L272 355Q253 321 237 294Q223 271 212 251.5Q201 232 200 230Q189 210 187 191.5Q185 173 187 157Q190 139 196 122ZM874 264 778 97Q770 85 763 75Q756 65 746 57.5Q736 50 723 45.5Q710 41 690 41H633V-8L520 128L633 263V214H778Q800 214 818 222Q836 230 848 240Q862 251 873 266Z" glyph-name="uni267B" horiz-adv-x="980" unicode="&#9851;" /><glyph d="M785 295Q776 284 765 275Q755 267 741.5 261Q728 255 711 255H599V293L511 188L599 83V121H643Q674 121 687 133.5Q700 146 711 164L786 294ZM741 498 625 431 715 275Q727 275 742.5 282.5Q758 290 771.5 303.5Q785 317 793.5 335Q802 353 802 373Q802 384 799.5 393Q797 402 794 407ZM260 184Q255 197 253 211Q251 223 252.5 238Q254 253 263 268L319 365L351 346L305 475L170 451L203 432L181 394Q165 368 169.5 350.5Q174 333 184 314L259 184ZM458 121V255H278Q272 244 271 227Q270 210 274.5 192Q279 174 290 157.5Q301 141 319 131Q328 126 337.5 123.5Q347 121 353 121ZM425 693Q439 691 452 686Q463 681 475 672Q487 663 496 649L552 552L520 533L654 509L701 638L668 619L646 657Q631 683 614 688.5Q597 694 575 694H425ZM271 553 387 486 477 642Q471 653 456.5 662.5Q442 672 424 676.5Q406 681 386 680Q366 679 349 669Q340 664 333 657Q326 650 323 645ZM890 389Q890 306 858.5 233.5Q827 161 773 107Q719 53 646.5 21.5Q574 -10 491 -10Q408 -10 335 21.5Q262 53 207.5 107Q153 161 121.5 233.5Q90 306 90 389Q90 472 121.5 545Q153 618 207.5 672.5Q262 727 335 758.5Q408 790 491 790Q574 790 646.5 758.5Q719 727 773 672.5Q827 618 858.5 545Q890 472 890 389Z" glyph-name="uni267C" horiz-adv-x="980" unicode="&#9852;" /><glyph d="M786 294 711 164Q700 146 687 133.5Q674 121 643 121H599V83L511 188L599 293V255H711Q728 255 741.5 261Q755 267 765 275Q776 284 785 295ZM794 407Q797 402 799.5 393Q802 384 802 373Q802 353 793.5 335Q785 317 771.5 303.5Q758 290 742.5 282.5Q727 275 715 275L625 431L741 498ZM259 184 184 314Q174 333 169.5 350.5Q165 368 181 394L203 432L170 451L305 475L351 346L319 365L263 268Q254 253 252.5 238Q251 223 253 211Q255 197 260 184ZM353 121Q347 121 337.5 123.5Q328 126 319 131Q301 141 290 157.5Q279 174 274.5 192Q270 210 271 227Q272 244 278 255H458V121ZM425 694H575Q597 694 614 688.5Q631 683 646 657L668 619L701 638L654 509L520 533L552 552L496 649Q487 663 475 672Q463 681 452 686Q439 691 425 693ZM323 645Q326 650 333 657Q340 664 349 669Q366 679 386 680Q406 681 424 676.5Q442 672 456.5 662.5Q471 653 477 642L387 486L271 553ZM870 389Q870 468 840.5 537.5Q811 607 759.5 658.5Q708 710 639 740Q570 770 491 770Q412 770 342.5 740Q273 710 221.5 658.5Q170 607 140 537.5Q110 468 110 389Q110 310 140 241Q170 172 221.5 120.5Q273 69 342.5 39.5Q412 10 491 10Q570 10 639 39.5Q708 69 759.5 120.5Q811 172 840.5 241Q870 310 870 389ZM890 389Q890 306 858.5 233.5Q827 161 773 107Q719 53 646.5 21.5Q574 -10 491 -10Q408 -10 335 21.5Q262 53 207.5 107Q153 161 121.5 233.5Q90 306 90 389Q90 472 121.5 545Q153 618 207.5 672.5Q262 727 335 758.5Q408 790 491 790Q574 790 646.5 758.5Q719 727 773 672.5Q827 618 858.5 545Q890 472 890 389Z" glyph-name="uni267D" horiz-adv-x="980" unicode="&#9853;" /><glyph d="M452 0Q405 -5 374 -26Q343 -47 340 -68Q339 -76 344 -85.5Q349 -95 366 -95Q385 -95 402 -86.5Q419 -78 419 -77L439 -191Q422 -201 393.5 -208.5Q365 -216 331 -216Q302 -216 278 -209.5Q254 -203 237 -190Q220 -177 212 -156.5Q204 -136 207 -107Q212 -65 236.5 -34.5Q261 -4 294 18V46Q258 15 222.5 1.5Q187 -12 135 -12Q60 -12 34.5 28.5Q9 69 19 147L66 530H240L197 185Q194 159 203 150.5Q212 142 227 142Q250 142 266 152.5Q282 163 295 177L339 530H513L466 152Z" glyph-name="uogonek" horiz-adv-x="534" unicode="&#371;" /><glyph d="M296 576Q244 576 217 603.5Q190 631 190 676Q190 706 199.5 731.5Q209 757 227 775.5Q245 794 270 805Q295 816 326 816Q378 816 405 788.5Q432 761 432 716Q432 686 422.5 660.5Q413 635 395 616.5Q377 598 352 587Q327 576 296 576ZM308 668Q339 668 339 701Q339 724 314 724Q283 724 283 691Q283 668 308 668ZM294 46Q258 15 222.5 1.5Q187 -12 135 -12Q60 -12 34.5 28.5Q9 69 19 147L66 530H240L197 185Q194 159 203 150.5Q212 142 227 142Q250 142 266 152.5Q282 163 295 177L339 530H513L466 152L452 0H295Z" glyph-name="uring" horiz-adv-x="534" unicode="&#367;" /><glyph d="M536 772Q528 730 515.5 694.5Q503 659 484.5 632.5Q466 606 440.5 591Q415 576 381 576Q349 576 328 587.5Q307 599 292 613.5Q277 628 265.5 639.5Q254 651 240 651Q228 651 221.5 643.5Q215 636 212 628Q208 617 208 605L86 620Q93 662 105.5 697.5Q118 733 137 759.5Q156 786 181.5 801Q207 816 241 816Q273 816 293.5 804.5Q314 793 329 778.5Q344 764 355.5 752.5Q367 741 381 741Q392 741 399 748Q406 755 409 764Q413 774 414 787ZM294 46Q258 15 222.5 1.5Q187 -12 135 -12Q60 -12 34.5 28.5Q9 69 19 147L66 530H240L197 185Q194 159 203 150.5Q212 142 227 142Q250 142 266 152.5Q282 163 295 177L339 530H513L466 152L452 0H295Z" glyph-name="utilde" horiz-adv-x="534" unicode="&#361;" /><glyph d="M325 0H72L31 530H215L216 150L312 530H496Z" glyph-name="v" horiz-adv-x="477" unicode="v" /><glyph d="M443 530 455 236 513 530H680L544 0H345L335 304L251 0H52L46 530H213L197 236L283 530Z" glyph-name="w" horiz-adv-x="676" unicode="w" /><glyph d="M184 592 298 800H494L556 592H413L381 676L327 592ZM443 530 455 236 513 530H680L544 0H345L335 304L251 0H52L46 530H213L197 236L283 530Z" glyph-name="wcircumflex" horiz-adv-x="676" unicode="&#373;" /><glyph d="M706 390Q706 436 689 476.5Q672 517 643 547Q614 577 574.5 594Q535 611 490 611Q445 611 406 594Q367 577 337.5 547Q308 517 291.5 476.5Q275 436 275 390Q275 343 292 303Q309 263 338 233Q367 203 406.5 186Q446 169 491 169Q536 169 575 186Q614 203 643.5 233Q673 263 689.5 303Q706 343 706 390ZM90 390Q90 473 121.5 546Q153 619 207 673Q261 727 334 758.5Q407 790 490 790Q573 790 646 758.5Q719 727 773 673Q827 619 858.5 546Q890 473 890 390Q890 307 858.5 234Q827 161 773 107Q719 53 646 21.5Q573 -10 490 -10Q407 -10 334 21.5Q261 53 207 107Q153 161 121.5 234Q90 307 90 390Z" glyph-name="whitecircle" horiz-adv-x="980" unicode="&#9675;" /><glyph d="M270 364V166H460V364ZM100 530H630V0H100Z" glyph-name="whitesmallsquare" horiz-adv-x="730" unicode="&#9643;" /><glyph d="M270 614V166H710V614ZM100 780H880V0H100Z" glyph-name="whitesquare" horiz-adv-x="980" unicode="&#9633;" /><glyph d="M240 184 180 0H-24L101 270L52 530H245L260 343L321 530H514L401 270L460 0H256Z" glyph-name="x" horiz-adv-x="516" unicode="x" /><glyph d="M345 530H530L307 4L210 -200H13L119 -7L32 530H217L239 189Z" glyph-name="y" horiz-adv-x="512" unicode="y" /><glyph d="M465 800 378 592H199L269 800ZM345 530H530L307 4L210 -200H13L119 -7L32 530H217L239 189Z" glyph-name="yacute" horiz-adv-x="512" unicode="&#253;" /><glyph d="M102 592 216 800H412L474 592H331L299 676L245 592ZM345 530H530L307 4L210 -200H13L119 -7L32 530H217L239 189Z" glyph-name="ycircumflex" horiz-adv-x="512" unicode="&#375;" /><glyph d="M499 603H320L341 780H520ZM260 603H81L102 780H281ZM345 530H530L307 4L210 -200H13L119 -7L32 530H217L239 189Z" glyph-name="ydieresis" horiz-adv-x="512" unicode="&#255;" /><glyph d="M432 764H616L437 387H538L524 276H384L365 236H519L506 125H353L340 0H160L176 125H24L37 236H191L182 276H42L56 387H156L70 764H254L301 421Z" glyph-name="yen" horiz-adv-x="580" unicode="&#165;" /><glyph d="M-12 117 196 379 35 376 54 530H421L406 413L197 151L388 154L370 0H-26Z" glyph-name="z" horiz-adv-x="425" unicode="z" /></font>
</defs>
</svg>
